<svg width="395" height="171" viewBox="0 0 395 171" fill="none" xmlns="http://www.w3.org/2000/svg"><path d="M186.72 150.388c-36.103 0-54.471-21.113-54.471-47.504 0-31.247 24.913-59.5381 61.016-59.5381 36.102 0 54.471 21.1128 54.471 47.5037 0 31.2474-24.914 59.5384-61.016 59.5384Zm1.478-33.57c12.667 0 20.69-11.401 20.69-24.0682 0-10.1341-6.545-15.8346-17.101-15.8346-12.668 0-20.691 11.4009-20.691 24.0688 0 10.134 6.545 15.834 17.102 15.834ZM286.192 147.854h-38.003L279.225 7.03194h38.003L286.192 147.854Z" fill="#000"/><path fill-rule="evenodd" clip-rule="evenodd" d="M74.6735 150.388c-11.612 0-23.0129-4.223-29.5579-13.301l-2.3085 10.707L.186035 170.436l4.601135-22.642L35.826 7.03194h38.003L62.8504 56.647c8.8673-9.7119 17.1013-13.3011 27.6577-13.3011 22.8019 0 38.0029 14.9901 38.0029 42.4367 0 28.2914-17.524 64.6054-53.8375 64.6054Zm14.5678-56.5826c0 13.0896-9.2896 23.0126-21.3239 23.0126-6.7561 0-12.8788-2.533-16.8902-6.967l5.9116-25.9686c4.4337-4.4336 9.5007-6.9672 15.4123-6.9672 9.0785 0 16.8902 6.7561 16.8902 16.8902Z" fill="#000"/><path d="M356.767 150.388c-21.958 0-37.581-8.023-37.581-25.758 0-1.478.211-5.067.844-8.023l8.234-37.7916h-16.89l7.39-32.936h16.89l6.122-27.8688L384.321.436035 379.78 18.0536l-6.123 27.8258h20.69l-7.389 32.936h-20.691l-5.489 24.9126c-.422 1.901-.633 4.012-.633 4.856 0 4.856 2.955 8.234 9.5 8.234 1.9 0 4.645-.633 5.278-1.055v30.402c-4.011 2.745-11.189 4.223-18.156 4.223Z" fill="#000"/></svg>