<svg id="Warstwa_1" data-name="Warstwa 1" xmlns="http://www.w3.org/2000/svg" viewBox="0 0 1300 197.33459"><defs><style>.cls-1{fill:#1a42e8;}</style></defs><title>Handsontable_logo_color</title><path d="M50,108.21949H87.31046v49.44708h42.5603V108.21949h37.12505V237.71215H129.87076V186.644H87.31046v51.06813H50Z" transform="translate(-50 -101.33271)"/><path d="M182.72415,211.447c0-22.27079,18.838-30.96932,50.34767-30.96932h9.05876v-2.172c0-9.04817-2.172-15.03437-12.49686-15.03437-8.87335,0-12.13662,5.25514-12.85709,11.23075h-30.429c1.45152-22.82173,19.37834-34.04189,45.27793-34.04189,26.07971,0,42.74042,10.67981,42.74042,35.85364v61.3983H242.85634V226.66152c-4.52938,6.88678-12.86239,13.22262-28.07157,13.22262C197.75852,239.88414,182.72415,231.55643,182.72415,211.447Zm59.40643-6.87619v-5.79549h-8.51312c-13.0372,0-18.83269,2.53222-18.83269,10.31958,0,5.43526,3.6182,8.87865,11.22545,8.87865C235.2491,217.97358,242.13058,212.71844,242.13058,204.57084Z" transform="translate(-50 -101.33271)"/><path d="M292.81729,142.99243h32.42084v15.21449c5.06973-9.77923,15.38931-17.74671,31.14944-17.74671,18.29235,0,30.96932,11.41087,30.96932,35.67353v61.57841H354.93605V182.66029c0-10.69041-4.16386-15.94555-13.58285-15.94555-9.59912,0-16.11507,5.79549-16.11507,17.93742v53.06H292.81729Z" transform="translate(-50 -101.33271)"/><path d="M401.09337,191.34823V189.8967c0-32.23013,17.7467-49.43649,40.2082-49.43649,14.849,0,23.72231,6.33584,29.15757,15.935V101.33271h32.41555V237.71215H470.45914v-15.3946c-4.7095,9.77923-15.21449,17.56659-29.5231,17.56659C419.02548,239.88414,401.09337,224.1293,401.09337,191.34823Zm70.27165-.54035v-1.45152c0-15.93495-6.70137-24.45337-18.65788-24.45337-12.13133,0-18.65258,8.15818-18.65258,24.63348V190.988c0,15.935,7.0616,24.08255,18.29235,24.08255C464.118,215.07054,471.365,206.92294,471.365,190.80788Z" transform="translate(-50 -101.33271)"/><path d="M515.71059,207.64341h29.88333c1.086,6.88678,4.16915,10.6904,13.40273,10.6904,7.96748,0,11.591-3.08316,11.591-7.78736,0-4.52408-4.52408-6.70666-17.56659-8.50782-25.35394-3.26328-36.039-10.6904-36.039-30.429,0-21.01,18.65258-31.14944,40.56844-31.14944,23.36207,0,39.66255,7.96748,41.83454,30.6091H570.04728c-1.2714-6.34644-4.70949-9.419-12.13662-9.419-7.0616,0-10.68511,3.07256-10.68511,7.41653,0,4.53468,4.344,6.34643,15.93495,7.78736,26.26512,3.26328,38.9421,10.15006,38.9421,30.429,0,22.4615-16.66071,32.601-42.92583,32.601C532.19118,239.88414,516.43635,228.65339,515.71059,207.64341Z" transform="translate(-50 -101.33271)"/><path d="M611.14017,191.52834v-1.45152c0-30.41838,22.63632-49.61661,51.974-49.61661,29.16286,0,51.61906,18.64729,51.61906,48.716v1.45152c0,30.78921-22.64161,49.25638-51.79918,49.25638S611.14017,222.13743,611.14017,191.52834Zm70.63188-.54035v-1.45152c0-15.935-6.34113-24.8136-18.65787-24.8136-12.13133,0-18.8327,8.51842-18.8327,24.45337v1.45152c0,16.29518,6.34114,25.17383,18.8327,25.17383C675.2508,215.80159,681.77205,206.74283,681.77205,190.988Z" transform="translate(-50 -101.33271)"/><path d="M728.83525,142.99243H761.2561v15.21449c5.06973-9.77923,15.3893-17.74671,31.14943-17.74671,18.29235,0,30.96933,11.41087,30.96933,35.67353v61.57841H790.954V182.66029c0-10.69041-4.16385-15.94555-13.58285-15.94555-9.59911,0-16.11506,5.79549-16.11506,17.93742v53.06H728.83525Z" transform="translate(-50 -101.33271)"/><path d="M846.1648,207.28318V165.0831H834.75923V142.99243H846.1648V123.25386h32.42085v19.73857h18.65258V165.0831H878.58565v39.12751c0,6.87619,3.44339,9.95935,9.59911,9.95935a24.63418,24.63418,0,0,0,9.23888-1.63164V237.1718a68.33784,68.33784,0,0,1-17.93212,2.71234C858.12131,239.88414,846.1648,229.56456,846.1648,207.28318Z" transform="translate(-50 -101.33271)"/><path d="M906.82145,211.447c0-22.27079,18.838-30.96932,50.34766-30.96932h9.05876v-2.172c0-9.04817-2.172-15.03437-12.49685-15.03437-8.87336,0-12.13663,5.25514-12.85709,11.23075H910.445c1.45152-22.82173,19.37834-34.04189,45.27794-34.04189,26.0797,0,42.74041,10.67981,42.74041,35.85364v61.3983H966.95363V226.66152c-4.52938,6.88678-12.86238,13.22262-28.07157,13.22262C921.85582,239.88414,906.82145,231.55643,906.82145,211.447Zm59.40642-6.87619v-5.79549h-8.51312c-13.0372,0-18.83269,2.53222-18.83269,10.31958,0,5.43526,3.61821,8.87865,11.22545,8.87865C959.34639,217.97358,966.22787,212.71844,966.22787,204.57084Z" transform="translate(-50 -101.33271)"/><path d="M1049.33542,223.038v14.67414h-32.42084V101.33271h32.42084v55.78292a33.42707,33.42707,0,0,1,29.5178-16.65542c22.096,0,40.02809,16.65542,40.02809,49.07626V190.988c0,32.601-17.93212,48.89615-40.2082,48.89615C1064.54461,239.88414,1054.03962,233.18807,1049.33542,223.038Zm36.5794-32.05v-1.45152c0-16.666-7.24171-24.63348-18.65258-24.63348-11.7711,0-18.83269,8.51842-18.83269,24.45337v1.45152c0,16.11506,7.06159,24.26266,18.83269,24.26266C1079.39887,215.07054,1085.91482,206.56271,1085.91482,190.988Z" transform="translate(-50 -101.33271)"/><path d="M1134.24943,101.33271h32.23543V237.71215h-32.23543Z" transform="translate(-50 -101.33271)"/><path d="M1181.50863,191.52834v-1.45152c0-30.41838,22.63632-49.61661,51.25354-49.61661,25.89959,0,48.17568,14.84367,48.17568,48.89615v8.50782h-66.64814c.90587,12.50215,8.14759,19.74917,19.73857,19.74917,10.68511,0,15.21449-4.89491,16.4806-11.23075h30.429c-2.89774,21.37021-19.37834,33.50154-47.99556,33.50154C1203.23907,239.88414,1181.50863,222.49766,1181.50863,191.52834Zm67.91425-11.95121c-.54564-11.41087-6.15572-17.74671-16.66071-17.74671-9.77923,0-16.48059,6.33584-18.11223,17.74671Z" transform="translate(-50 -101.33271)"/><path class="cls-1" d="M1295.33225,243.99954H1350v54.66775h-54.66775Z" transform="translate(-50 -101.33271)"/></svg>