<svg viewBox="0 0 71 25" fill="black" xmlns="http://www.w3.org/2000/svg">
<path d="M22.4 16C23.2837 16 24 16.7163 24 17.6V22.4C24 23.2837 23.2837 24 22.4 24L17.6 24C16.7163 24 16 23.2837 16 22.4V17.6C16 16.7163 16.7163 16 17.6 16H22.4Z"/>
<path d="M6.4 6.99383e-08C7.28365 3.13124e-08 8 0.716344 8 1.6V6.4C8 7.28365 7.28366 8 6.4 8H1.6C0.716345 8 4.9004e-07 7.28366 4.51414e-07 6.4L2.416e-07 1.6C2.02974e-07 0.716345 0.716345 3.18379e-07 1.6 2.79753e-07L6.4 6.99383e-08Z"/>
<path d="M23.5314 8.46863C23.8314 8.16857 24 7.7616 24 7.33726V1.6C24 0.716344 23.2837 -3.86258e-08 22.4 0L17.6 2.09815e-07C16.7163 2.4844e-07 16 0.716344 16 1.6V6.4C16 7.28365 15.2837 8 14.4 8H8.66274C8.23839 8 7.83143 8.16857 7.53137 8.46863L0.468629 15.5314C0.168571 15.8314 -2.76543e-08 16.2384 0 16.6627L3.73892e-07 22.4C4.31479e-07 23.2837 0.716345 24 1.6 24L6.4 24C7.28366 24 8 23.2837 8 22.4L8 17.6C8 16.7163 8.71634 16 9.6 16H15.3373C15.7616 16 16.1686 15.8314 16.4686 15.5314L23.5314 8.46863Z"/>
<path d="M31.22 20V3.8H34.84V10.9C35.12 10.42 35.5133 10.0467 36.02 9.78C36.54 9.5 37.1333 9.36 37.8 9.36C38.96 9.36 39.84 9.73333 40.44 10.48C41.0533 11.2133 41.36 12.2933 41.36 13.72V20H37.74V14.4C37.74 13.1867 37.28 12.58 36.36 12.58C35.8667 12.58 35.4867 12.7533 35.22 13.1C34.9667 13.4333 34.84 13.9133 34.84 14.54V20H31.22ZM47.82 20.32C46.18 20.32 44.9333 19.9067 44.08 19.08C43.24 18.2533 42.82 17.0467 42.82 15.46V9.68H46.46V15.34C46.46 16.5133 46.92 17.1 47.84 17.1C48.3067 17.1 48.6467 16.96 48.86 16.68C49.0733 16.4 49.18 15.9533 49.18 15.34V9.68H52.82V15.46C52.82 17.0467 52.3933 18.2533 51.54 19.08C50.7 19.9067 49.46 20.32 47.82 20.32ZM54.3661 20V3.8H57.9861V20H54.3661ZM60.3208 24.9L62.9008 19.44L58.6608 9.68H62.6408L64.7408 15.74L66.6808 9.68H70.5608L63.9608 24.9H60.3208Z"/>
</svg>
