<svg width="504" height="504" viewBox="0 0 504 504" fill="none" xmlns="http://www.w3.org/2000/svg">
<path d="M446.641 136.525L262.643 465.545C258.844 472.338 249.084 472.378 245.228 465.618L57.5817 136.556C53.3809 129.19 59.6802 120.267 68.0281 121.759L252.223 154.682C253.398 154.892 254.601 154.89 255.776 154.676L436.119 121.806C444.439 120.289 450.768 129.143 446.641 136.525Z" fill="url(#paint0_linear)"/>
<path d="M339.965 78.5744L203.801 105.255C201.563 105.694 199.906 107.59 199.771 109.866L191.395 251.33C191.198 254.662 194.258 257.248 197.51 256.498L235.42 247.749C238.967 246.931 242.172 250.055 241.443 253.622L230.18 308.775C229.422 312.487 232.907 315.661 236.532 314.56L259.947 307.446C263.577 306.344 267.065 309.527 266.297 313.242L248.398 399.875C247.278 405.294 254.486 408.249 257.492 403.603L259.5 400.5L370.454 179.072C372.312 175.364 369.108 171.137 365.036 171.923L326.014 179.454C322.347 180.161 319.227 176.746 320.262 173.158L345.731 84.8669C346.767 81.2731 343.636 77.8552 339.965 78.5744Z" fill="url(#paint1_linear)"/>
<defs>
<linearGradient id="paint0_linear" x1="53.0002" y1="110" x2="282" y2="421" gradientUnits="userSpaceOnUse">
<stop stop-color="#41D1FF"/>
<stop offset="1" stop-color="#BD34FE"/>
</linearGradient>
<linearGradient id="paint1_linear" x1="241.651" y1="85.8182" x2="283.076" y2="369.989" gradientUnits="userSpaceOnUse">
<stop stop-color="#FFEA83"/>
<stop offset="0.0833333" stop-color="#FFDD35"/>
<stop offset="1" stop-color="#FFA800"/>
</linearGradient>
</defs>
</svg>
