<svg width="48" height="46" viewBox="0 0 48 46" fill="none" xmlns="http://www.w3.org/2000/svg">
<path d="M25.9456 44.9383C25.2821 45.7827 23.925 45.3131 23.925 44.2403V33.9369C23.925 32.6875 22.9126 31.6751 21.6631 31.6751H10.287C9.36714 31.6751 8.83075 30.6346 9.36713 29.8871L16.8464 19.4157C17.917 17.9185 16.8464 15.8376 15.0046 15.8376H1.23731C0.317479 15.8376 -0.218913 14.7972 0.317475 14.0497L10.0134 0.4741C10.2266 0.176825 10.5692 0.000183105 10.9332 0.000183105H39.8271C40.7469 0.000183105 41.2833 1.04065 40.7469 1.78814L33.2676 12.2595C32.197 13.7567 33.2676 15.8376 35.1094 15.8376H46.4856C47.4291 15.8376 47.959 16.9255 47.3753 17.6687L25.9478 44.9404L25.9456 44.9383Z" fill="#863BFF" style="fill:#863BFF;fill:color(display-p3 0.5252 0.2300 1.0000);fill-opacity:1;"/>
<mask id="mask0_2002_17158" style="mask-type:alpha" maskUnits="userSpaceOnUse" x="0" y="0" width="48" height="46">
<path d="M25.8416 44.9381C25.1781 45.7825 23.821 45.3129 23.821 44.2401V33.9368C23.821 32.6873 22.8085 31.6749 21.5591 31.6749H10.183C9.26313 31.6749 8.72674 30.6344 9.26313 29.8869L16.7424 19.4155C17.813 17.9184 16.7424 15.8374 14.9006 15.8374H1.1333C0.213475 15.8374 -0.322917 14.797 0.213471 14.0495L9.90938 0.473917C10.1226 0.176641 10.4652 0 10.8292 0H39.7231C40.6429 0 41.1793 1.04046 40.6429 1.78796L33.1636 12.2594C32.093 13.7565 33.1636 15.8374 35.0054 15.8374H46.3816C47.3251 15.8374 47.855 16.9253 47.2713 17.6685L25.8438 44.9402L25.8416 44.9381Z" fill="black" style="fill:black;fill-opacity:1;"/>
</mask>
<g mask="url(#mask0_2002_17158)">
<g filter="url(#filter0_f_2002_17158)">
<ellipse cx="5.50802" cy="14.7043" rx="5.50802" ry="14.7043" transform="matrix(0.00324134 0.999995 0.999995 -0.00324134 -4.46924 31.5157)" fill="#EDE6FF" style="fill:#EDE6FF;fill:color(display-p3 0.9275 0.9033 1.0000);fill-opacity:1;"/>
</g>
<g filter="url(#filter1_f_2002_17158)">
<ellipse cx="10.3995" cy="29.8514" rx="10.3995" ry="29.8514" transform="matrix(0.00324134 0.999995 0.999995 -0.00324134 -39.3281 7.88272)" fill="#EDE6FF" style="fill:#EDE6FF;fill:color(display-p3 0.9275 0.9033 1.0000);fill-opacity:1;"/>
</g>
<g filter="url(#filter2_f_2002_17158)">
<ellipse cx="5.50802" cy="30.4868" rx="5.50802" ry="30.4868" transform="matrix(0.00324134 0.999995 0.999995 -0.00324134 -40.4673 11.3212)" fill="#7E14FF" style="fill:#7E14FF;fill:color(display-p3 0.4922 0.0767 1.0000);fill-opacity:1;"/>
</g>
<g filter="url(#filter3_f_2002_17158)">
<ellipse cx="5.50802" cy="30.5986" rx="5.50802" ry="30.5986" transform="matrix(0.00324134 0.999995 0.999995 -0.00324134 -35.8721 29.3204)" fill="#7E14FF" style="fill:#7E14FF;fill:color(display-p3 0.4922 0.0767 1.0000);fill-opacity:1;"/>
</g>
<g filter="url(#filter4_f_2002_17158)">
<ellipse cx="5.50802" cy="30.5986" rx="5.50802" ry="30.5986" transform="matrix(0.00324134 0.999995 0.999995 -0.00324134 -34.3398 30.4693)" fill="#7E14FF" style="fill:#7E14FF;fill:color(display-p3 0.4922 0.0767 1.0000);fill-opacity:1;"/>
</g>
<g filter="url(#filter5_f_2002_17158)">
<ellipse cx="14.0715" cy="22.0783" rx="14.0715" ry="22.0783" transform="matrix(0.0584509 -0.99829 -0.99829 -0.0584509 74.3486 26.8633)" fill="#EDE6FF" style="fill:#EDE6FF;fill:color(display-p3 0.9275 0.9033 1.0000);fill-opacity:1;"/>
</g>
<g filter="url(#filter6_f_2002_17158)">
<ellipse cx="3.47034" cy="21.5008" rx="3.47034" ry="21.5008" transform="matrix(-0.0172986 -0.99985 -0.99985 0.0172986 75.7944 18.0627)" fill="#7E14FF" style="fill:#7E14FF;fill:color(display-p3 0.4922 0.0767 1.0000);fill-opacity:1;"/>
</g>
<g filter="url(#filter7_f_2002_17158)">
<ellipse cx="3.47034" cy="21.5008" rx="3.47034" ry="21.5008" transform="matrix(-0.0172986 -0.99985 -0.99985 0.0172986 75.7944 18.0627)" fill="#7E14FF" style="fill:#7E14FF;fill:color(display-p3 0.4922 0.0767 1.0000);fill-opacity:1;"/>
</g>
<g filter="url(#filter8_f_2002_17158)">
<ellipse cx="0.386861" cy="8.97156" rx="4.40666" ry="29.1076" transform="rotate(39.5103 0.386861 8.97156)" fill="#7E14FF" style="fill:#7E14FF;fill:color(display-p3 0.4922 0.0767 1.0000);fill-opacity:1;"/>
</g>
<g filter="url(#filter9_f_2002_17158)">
<ellipse cx="47.5226" cy="-6.09166" rx="4.40666" ry="29.1076" transform="rotate(37.8923 47.5226 -6.09166)" fill="#7E14FF" style="fill:#7E14FF;fill:color(display-p3 0.4922 0.0767 1.0000);fill-opacity:1;"/>
</g>
<g filter="url(#filter10_f_2002_17158)">
<ellipse cx="41.4121" cy="6.3335" rx="5.9715" ry="9.66515" transform="rotate(37.8923 41.4121 6.3335)" fill="#47BFFF" style="fill:#47BFFF;fill:color(display-p3 0.2799 0.7480 1.0000);fill-opacity:1;"/>
</g>
<g filter="url(#filter11_f_2002_17158)">
<ellipse cx="-1.87921" cy="38.3321" rx="4.40666" ry="29.1076" transform="rotate(37.8923 -1.87921 38.3321)" fill="#7E14FF" style="fill:#7E14FF;fill:color(display-p3 0.4922 0.0767 1.0000);fill-opacity:1;"/>
</g>
<g filter="url(#filter12_f_2002_17158)">
<ellipse cx="-1.87921" cy="38.3321" rx="4.40666" ry="29.1076" transform="rotate(37.8923 -1.87921 38.3321)" fill="#7E14FF" style="fill:#7E14FF;fill:color(display-p3 0.4922 0.0767 1.0000);fill-opacity:1;"/>
</g>
<g filter="url(#filter13_f_2002_17158)">
<ellipse cx="35.6511" cy="29.9069" rx="4.40666" ry="29.1076" transform="rotate(37.8923 35.6511 29.9069)" fill="#7E14FF" style="fill:#7E14FF;fill:color(display-p3 0.4922 0.0767 1.0000);fill-opacity:1;"/>
</g>
<g filter="url(#filter14_f_2002_17158)">
<ellipse cx="38.4178" cy="32.4" rx="5.9715" ry="15.2974" transform="rotate(37.8923 38.4178 32.4)" fill="#47BFFF" style="fill:#47BFFF;fill:color(display-p3 0.2799 0.7480 1.0000);fill-opacity:1;"/>
</g>
</g>
<defs>
<filter id="filter0_f_2002_17158" x="-19.7697" y="16.1493" width="60.0452" height="41.6535" filterUnits="userSpaceOnUse" color-interpolation-filters="sRGB">
<feFlood flood-opacity="0" result="BackgroundImageFix"/>
<feBlend mode="normal" in="SourceGraphic" in2="BackgroundImageFix" result="shape"/>
<feGaussianBlur stdDeviation="7.65926" result="effect1_foregroundBlur_2002_17158"/>
</filter>
<filter id="filter1_f_2002_17158" x="-54.613" y="-7.53303" width="90.3397" height="51.4368" filterUnits="userSpaceOnUse" color-interpolation-filters="sRGB">
<feFlood flood-opacity="0" result="BackgroundImageFix"/>
<feBlend mode="normal" in="SourceGraphic" in2="BackgroundImageFix" result="shape"/>
<feGaussianBlur stdDeviation="7.65926" result="effect1_foregroundBlur_2002_17158"/>
</filter>
<filter id="filter2_f_2002_17158" x="-49.6403" y="2.03032" width="79.3554" height="29.4" filterUnits="userSpaceOnUse" color-interpolation-filters="sRGB">
<feFlood flood-opacity="0" result="BackgroundImageFix"/>
<feBlend mode="normal" in="SourceGraphic" in2="BackgroundImageFix" result="shape"/>
<feGaussianBlur stdDeviation="4.59556" result="effect1_foregroundBlur_2002_17158"/>
</filter>
<filter id="filter3_f_2002_17158" x="-45.0451" y="20.0292" width="79.579" height="29.4" filterUnits="userSpaceOnUse" color-interpolation-filters="sRGB">
<feFlood flood-opacity="0" result="BackgroundImageFix"/>
<feBlend mode="normal" in="SourceGraphic" in2="BackgroundImageFix" result="shape"/>
<feGaussianBlur stdDeviation="4.59556" result="effect1_foregroundBlur_2002_17158"/>
</filter>
<filter id="filter4_f_2002_17158" x="-43.5129" y="21.1781" width="79.579" height="29.4" filterUnits="userSpaceOnUse" color-interpolation-filters="sRGB">
<feFlood flood-opacity="0" result="BackgroundImageFix"/>
<feBlend mode="normal" in="SourceGraphic" in2="BackgroundImageFix" result="shape"/>
<feGaussianBlur stdDeviation="4.59556" result="effect1_foregroundBlur_2002_17158"/>
</filter>
<filter id="filter5_f_2002_17158" x="15.7557" y="-17.9006" width="74.7493" height="58.852" filterUnits="userSpaceOnUse" color-interpolation-filters="sRGB">
<feFlood flood-opacity="0" result="BackgroundImageFix"/>
<feBlend mode="normal" in="SourceGraphic" in2="BackgroundImageFix" result="shape"/>
<feGaussianBlur stdDeviation="7.65926" result="effect1_foregroundBlur_2002_17158"/>
</filter>
<filter id="filter6_f_2002_17158" x="23.5481" y="2.28368" width="61.3773" height="25.3622" filterUnits="userSpaceOnUse" color-interpolation-filters="sRGB">
<feFlood flood-opacity="0" result="BackgroundImageFix"/>
<feBlend mode="normal" in="SourceGraphic" in2="BackgroundImageFix" result="shape"/>
<feGaussianBlur stdDeviation="4.59556" result="effect1_foregroundBlur_2002_17158"/>
</filter>
<filter id="filter7_f_2002_17158" x="23.5481" y="2.28368" width="61.3773" height="25.3622" filterUnits="userSpaceOnUse" color-interpolation-filters="sRGB">
<feFlood flood-opacity="0" result="BackgroundImageFix"/>
<feBlend mode="normal" in="SourceGraphic" in2="BackgroundImageFix" result="shape"/>
<feGaussianBlur stdDeviation="4.59556" result="effect1_foregroundBlur_2002_17158"/>
</filter>
<filter id="filter8_f_2002_17158" x="-27.6359" y="-22.8531" width="56.0453" height="63.6493" filterUnits="userSpaceOnUse" color-interpolation-filters="sRGB">
<feFlood flood-opacity="0" result="BackgroundImageFix"/>
<feBlend mode="normal" in="SourceGraphic" in2="BackgroundImageFix" result="shape"/>
<feGaussianBlur stdDeviation="4.59556" result="effect1_foregroundBlur_2002_17158"/>
</filter>
<filter id="filter9_f_2002_17158" x="20.1155" y="-38.4147" width="54.8139" height="64.646" filterUnits="userSpaceOnUse" color-interpolation-filters="sRGB">
<feFlood flood-opacity="0" result="BackgroundImageFix"/>
<feBlend mode="normal" in="SourceGraphic" in2="BackgroundImageFix" result="shape"/>
<feGaussianBlur stdDeviation="4.59556" result="effect1_foregroundBlur_2002_17158"/>
</filter>
<filter id="filter10_f_2002_17158" x="24.6414" y="-11.3229" width="33.5414" height="35.3129" filterUnits="userSpaceOnUse" color-interpolation-filters="sRGB">
<feFlood flood-opacity="0" result="BackgroundImageFix"/>
<feBlend mode="normal" in="SourceGraphic" in2="BackgroundImageFix" result="shape"/>
<feGaussianBlur stdDeviation="4.59556" result="effect1_foregroundBlur_2002_17158"/>
</filter>
<filter id="filter11_f_2002_17158" x="-29.2863" y="6.00905" width="54.8139" height="64.646" filterUnits="userSpaceOnUse" color-interpolation-filters="sRGB">
<feFlood flood-opacity="0" result="BackgroundImageFix"/>
<feBlend mode="normal" in="SourceGraphic" in2="BackgroundImageFix" result="shape"/>
<feGaussianBlur stdDeviation="4.59556" result="effect1_foregroundBlur_2002_17158"/>
</filter>
<filter id="filter12_f_2002_17158" x="-29.2863" y="6.00905" width="54.8139" height="64.646" filterUnits="userSpaceOnUse" color-interpolation-filters="sRGB">
<feFlood flood-opacity="0" result="BackgroundImageFix"/>
<feBlend mode="normal" in="SourceGraphic" in2="BackgroundImageFix" result="shape"/>
<feGaussianBlur stdDeviation="4.59556" result="effect1_foregroundBlur_2002_17158"/>
</filter>
<filter id="filter13_f_2002_17158" x="8.24395" y="-2.41615" width="54.8139" height="64.646" filterUnits="userSpaceOnUse" color-interpolation-filters="sRGB">
<feFlood flood-opacity="0" result="BackgroundImageFix"/>
<feBlend mode="normal" in="SourceGraphic" in2="BackgroundImageFix" result="shape"/>
<feGaussianBlur stdDeviation="4.59556" result="effect1_foregroundBlur_2002_17158"/>
</filter>
<filter id="filter14_f_2002_17158" x="18.7132" y="10.5885" width="39.4091" height="43.6229" filterUnits="userSpaceOnUse" color-interpolation-filters="sRGB">
<feFlood flood-opacity="0" result="BackgroundImageFix"/>
<feBlend mode="normal" in="SourceGraphic" in2="BackgroundImageFix" result="shape"/>
<feGaussianBlur stdDeviation="4.59556" result="effect1_foregroundBlur_2002_17158"/>
</filter>
</defs>
</svg>
