<svg width="68" height="68" viewBox="0 0 68 68" fill="none" xmlns="http://www.w3.org/2000/svg">
  <g opacity="1" clip-path="url(#clip0_693_14578)">
    <g style="mix-blend-mode:luminosity" opacity="0.5" filter="url(#filter0_i_693_14578)">
      <path d="M65.7194 10.0473L35.6655 64.587C35.045 65.7131 33.4508 65.7197 32.821 64.5991L2.17117 10.0525C1.48502 8.83141 2.51394 7.35228 3.87747 7.59962L33.9635 13.0572C34.1555 13.092 34.3519 13.0917 34.5439 13.0562L64.0008 7.60744C65.3597 7.35608 66.3935 8.82375 65.7194 10.0473Z" fill="url(#paint0_linear_693_14578)"/>
    </g>
    <g style="mix-blend-mode:luminosity" filter="url(#filter1_bd_693_14578)">
      <path d="M48.295 0.441298L26.0542 4.86401C25.6887 4.9367 25.418 5.25109 25.396 5.62839L24.0278 29.078C23.9957 29.6303 24.4955 30.059 25.0267 29.9346L31.2188 28.4844C31.7982 28.3488 32.3217 28.8666 32.2026 29.4579L30.3629 38.6003C30.2391 39.2156 30.8083 39.7417 31.4004 39.5592L35.225 38.38C35.8179 38.1973 36.3876 38.7249 36.2622 39.3407L33.3386 53.7014C33.1557 54.5997 34.333 55.0895 34.824 54.3193L35.152 53.805L53.275 17.1002C53.5785 16.4856 53.0552 15.7848 52.39 15.9151L46.0163 17.1635C45.4173 17.2807 44.9077 16.7146 45.0767 16.1199L49.2368 1.48437C49.406 0.888652 48.8946 0.322077 48.295 0.441298Z" fill="url(#paint1_linear_693_14578)" fill-opacity="0.6" shape-rendering="crispEdges"/>
    </g>
  </g>
  <defs>
    <filter id="filter0_i_693_14578" x="1.95264" y="7.57227" width="63.9785" height="60.1716" filterUnits="userSpaceOnUse" color-interpolation-filters="sRGB">
      <feFlood flood-opacity="0" result="BackgroundImageFix"/>
      <feBlend mode="normal" in="SourceGraphic" in2="BackgroundImageFix" result="shape"/>
      <feColorMatrix in="SourceAlpha" type="matrix" values="0 0 0 0 0 0 0 0 0 0 0 0 0 0 0 0 0 0 127 0" result="hardAlpha"/>
      <feOffset dy="2.30833"/>
      <feGaussianBlur stdDeviation="5.77083"/>
      <feComposite in2="hardAlpha" operator="arithmetic" k2="-1" k3="1"/>
      <feColorMatrix type="matrix" values="0 0 0 0 1 0 0 0 0 1 0 0 0 0 1 0 0 0 0.75 0"/>
      <feBlend mode="normal" in2="shape" result="effect1_innerShadow_693_14578"/>
    </filter>
    <filter id="filter1_bd_693_14578" x="19.4097" y="-4.19137" width="38.5702" height="63.5097" filterUnits="userSpaceOnUse" color-interpolation-filters="sRGB">
      <feFlood flood-opacity="0" result="BackgroundImageFix"/>
      <feGaussianBlur in="BackgroundImageFix" stdDeviation="2.30833"/>
      <feComposite in2="SourceAlpha" operator="in" result="effect1_backgroundBlur_693_14578"/>
      <feColorMatrix in="SourceAlpha" type="matrix" values="0 0 0 0 0 0 0 0 0 0 0 0 0 0 0 0 0 0 127 0" result="hardAlpha"/>
      <feOffset dy="1.15417"/>
      <feGaussianBlur stdDeviation="1.15417"/>
      <feComposite in2="hardAlpha" operator="out"/>
      <feColorMatrix type="matrix" values="0 0 0 0 0 0 0 0 0 0 0 0 0 0 0 0 0 0 0.25 0"/>
      <feBlend mode="normal" in2="effect1_backgroundBlur_693_14578" result="effect2_dropShadow_693_14578"/>
      <feBlend mode="normal" in="SourceGraphic" in2="effect2_dropShadow_693_14578" result="shape"/>
    </filter>
    <linearGradient id="paint0_linear_693_14578" x1="1.42283" y1="5.65045" x2="39.5455" y2="56.6664" gradientUnits="userSpaceOnUse">
      <stop stop-color="#41D1FF"/>
      <stop offset="1" stop-color="#BD34FE"/>
    </linearGradient>
    <linearGradient id="paint1_linear_693_14578" x1="32.2366" y1="1.64206" x2="39.201" y2="48.718" gradientUnits="userSpaceOnUse">
      <stop stop-color="#FFEA83"/>
      <stop offset="0.0833333" stop-color="#FFDD35"/>
      <stop offset="1" stop-color="#FFA800"/>
    </linearGradient>
    <clipPath id="clip0_693_14578">
      <rect width="66.9687" height="66.9687" fill="white" transform="translate(0.442871 0.180176)"/>
    </clipPath>
  </defs>
</svg>
