<?xml version="1.0" encoding="utf-8"?>
<!-- Generator: Adobe Illustrator 19.2.1, SVG Export Plug-In . SVG Version: 6.00 Build 0)  -->
<svg version="1.1" id="Layer_1" xmlns="http://www.w3.org/2000/svg" xmlns:xlink="http://www.w3.org/1999/xlink" x="0px" y="0px"
	 viewBox="0 0 102 33" style="enable-background:new 0 0 102 33;" xml:space="preserve">
<style type="text/css">
	.st0{opacity:0.7;fill:url(#SVGID_1_);}
	.st1{fill:url(#SVGID_2_);}
	.st2{opacity:0.7;fill:url(#SVGID_3_);}
	.st3{opacity:0.7;fill:url(#SVGID_4_);}
	.st4{fill:url(#SVGID_5_);}
	.st5{fill:url(#SVGID_6_);}
	.st6{fill:url(#SVGID_7_);}
	.st7{fill:url(#SVGID_8_);}
	.st8{opacity:0.7;fill:url(#SVGID_9_);}
	.st9{fill:url(#SVGID_10_);}
	.st10{fill:url(#SVGID_11_);}
</style>
<linearGradient id="SVGID_1_" gradientUnits="userSpaceOnUse" x1="-1" y1="16.3547" x2="101.7512" y2="16.3547">
	<stop  offset="0" style="stop-color:#FF4E00"/>
	<stop  offset="1" style="stop-color:#FF1791"/>
</linearGradient>
<path class="st0" d="M95.8,31.7c1.4,1.4,3.6,1.4,4.9,0c1.4-1.4,1.4-3.6,0-4.9L74.9,1c-1.4-1.4-3.6-1.4-4.9,0s-1.4,3.6,0,4.9
	L95.8,31.7z"/>
<linearGradient id="SVGID_2_" gradientUnits="userSpaceOnUse" x1="0.25" y1="16.6453" x2="101.7512" y2="16.6453">
	<stop  offset="0" style="stop-color:#FF4E00"/>
	<stop  offset="1" style="stop-color:#FF1791"/>
</linearGradient>
<path class="st1" d="M74.9,32c-1.4,1.4-3.6,1.4-4.9,0s-1.4-3.6,0-4.9L95.8,1.3c1.4-1.4,3.6-1.4,4.9,0s1.4,3.6,0,4.9L74.9,32z"/>
<linearGradient id="SVGID_3_" gradientUnits="userSpaceOnUse" x1="212.8615" y1="16.3547" x2="316.906" y2="16.3547" gradientTransform="matrix(-1 0 0 1 317 0)">
	<stop  offset="0" style="stop-color:#FF4E00"/>
	<stop  offset="1" style="stop-color:#FF1791"/>
</linearGradient>
<path class="st2" d="M51,25.8c4.4,0,8-3.6,8-8V3.6c0-2,1.5-3.6,3.5-3.6c2,0,3.5,1.6,3.5,3.6v14.1c0,8.3-6.7,15-15,15
	c-1.9,0-3.5-1.6-3.5-3.5C47.6,27.3,49.1,25.8,51,25.8z"/>
<linearGradient id="SVGID_4_" gradientUnits="userSpaceOnUse" x1="-0.7939" y1="16.6453" x2="103.2506" y2="16.6453">
	<stop  offset="0" style="stop-color:#FF4E00"/>
	<stop  offset="1" style="stop-color:#FF1791"/>
</linearGradient>
<path class="st3" d="M29.5,0.3c-2,0-3.5,1.6-3.5,3.6v25.5c0,2,1.5,3.6,3.5,3.6s3.5-1.6,3.5-3.6V3.9C33,1.9,31.5,0.3,29.5,0.3z"/>
<g>
	<linearGradient id="SVGID_5_" gradientUnits="userSpaceOnUse" x1="-8.333334e-02" y1="3.4797" x2="101.835" y2="3.4797">
		<stop  offset="0" style="stop-color:#FF4E00"/>
		<stop  offset="1" style="stop-color:#FF1791"/>
	</linearGradient>
	<circle class="st4" cx="62.5" cy="3.5" r="3.5"/>
</g>
<linearGradient id="SVGID_6_" gradientUnits="userSpaceOnUse" x1="-2.0845" y1="29.5203" x2="101.96" y2="29.5203">
	<stop  offset="0" style="stop-color:#FF4E00"/>
	<stop  offset="1" style="stop-color:#FF1791"/>
</linearGradient>
<circle class="st5" cx="98.5" cy="29.5" r="3.5"/>
<linearGradient id="SVGID_7_" gradientUnits="userSpaceOnUse" x1="-1.0439" y1="16.6453" x2="103.0006" y2="16.6453">
	<stop  offset="0" style="stop-color:#FF4E00"/>
	<stop  offset="1" style="stop-color:#FF1791"/>
</linearGradient>
<path class="st6" d="M3.5,0.3C1.5,0.3,0,1.9,0,3.9v25.5c0,2,1.5,3.6,3.5,3.6S7,31.4,7,29.4V3.9C7,1.9,5.5,0.3,3.5,0.3z"/>
<linearGradient id="SVGID_8_" gradientUnits="userSpaceOnUse" x1="-0.95" y1="29.5" x2="103.7006" y2="29.5">
	<stop  offset="0" style="stop-color:#FF4E00"/>
	<stop  offset="1" style="stop-color:#FF1791"/>
</linearGradient>
<circle class="st7" cx="29.5" cy="29.5" r="3.5"/>
<linearGradient id="SVGID_9_" gradientUnits="userSpaceOnUse" x1="0.5" y1="10" x2="102.8016" y2="10">
	<stop  offset="0" style="stop-color:#FF4E00"/>
	<stop  offset="1" style="stop-color:#FF1791"/>
</linearGradient>
<path class="st8" d="M13.9,18.9c1.4,1.4,3.6,1.4,4.9,0s1.4-3.6,0-4.9L5.9,1.1C4.6-0.3,2.4-0.3,1,1.1S-0.3,4.7,1,6L13.9,18.9z"/>
<linearGradient id="SVGID_10_" gradientUnits="userSpaceOnUse" x1="0.25" y1="10" x2="100.505" y2="10">
	<stop  offset="0" style="stop-color:#FF4E00"/>
	<stop  offset="1" style="stop-color:#FF1791"/>
</linearGradient>
<path class="st9" d="M19,18.9c-1.4,1.4-3.6,1.4-4.9,0s-1.4-3.6,0-4.9L27,1.1c1.4-1.4,3.6-1.4,4.9,0c1.4,1.4,1.4,3.6,0,4.9L19,18.9z"
	/>
<linearGradient id="SVGID_11_" gradientUnits="userSpaceOnUse" x1="-1.5811" y1="16.3547" x2="102.4634" y2="16.3547">
	<stop  offset="0" style="stop-color:#FF4E00"/>
	<stop  offset="1" style="stop-color:#FF1791"/>
</linearGradient>
<path class="st10" d="M51,25.8c-4.4,0-8-3.6-8-8V3.6c0-2-1.5-3.6-3.5-3.6c-2,0-3.5,1.6-3.5,3.6v14.1c0,8.3,6.7,15,15,15
	c1.9,0,3.5-1.6,3.5-3.5C54.4,27.3,52.9,25.8,51,25.8z"/>
</svg>
