<svg xmlns="http://www.w3.org/2000/svg" xmlns:xlink="http://www.w3.org/1999/xlink" id="Layer_1" x="0" y="0" version="1.1" viewBox="0 0 102 33" xml:space="preserve" style="enable-background:new 0 0 102 33"><style type="text/css">.st0{opacity:.7;fill:url(#SVGID_1_)}.st1{fill:url(#SVGID_2_)}.st2,.st3{opacity:.7;fill:url(#SVGID_3_)}.st3{fill:url(#SVGID_4_)}.st4{fill:url(#SVGID_5_)}.st5{fill:url(#SVGID_6_)}.st6{fill:url(#SVGID_7_)}.st7{fill:url(#SVGID_8_)}.st8{opacity:.7;fill:url(#SVGID_9_)}.st9{fill:url(#SVGID_10_)}.st10{fill:url(#SVGID_11_)}</style><linearGradient id="SVGID_1_" x1="-1" x2="101.751" y1="16.355" y2="16.355" gradientUnits="userSpaceOnUse"><stop offset="0" style="stop-color:#ff4e00"/><stop offset="1" style="stop-color:#ff1791"/></linearGradient><path d="M95.8,31.7c1.4,1.4,3.6,1.4,4.9,0c1.4-1.4,1.4-3.6,0-4.9L74.9,1c-1.4-1.4-3.6-1.4-4.9,0s-1.4,3.6,0,4.9	L95.8,31.7z" class="st0"/><linearGradient id="SVGID_2_" x1=".25" x2="101.751" y1="16.645" y2="16.645" gradientUnits="userSpaceOnUse"><stop offset="0" style="stop-color:#ff4e00"/><stop offset="1" style="stop-color:#ff1791"/></linearGradient><path d="M74.9,32c-1.4,1.4-3.6,1.4-4.9,0s-1.4-3.6,0-4.9L95.8,1.3c1.4-1.4,3.6-1.4,4.9,0s1.4,3.6,0,4.9L74.9,32z" class="st1"/><linearGradient id="SVGID_3_" x1="212.862" x2="316.906" y1="16.355" y2="16.355" gradientTransform="matrix(-1 0 0 1 317 0)" gradientUnits="userSpaceOnUse"><stop offset="0" style="stop-color:#ff4e00"/><stop offset="1" style="stop-color:#ff1791"/></linearGradient><path d="M51,25.8c4.4,0,8-3.6,8-8V3.6c0-2,1.5-3.6,3.5-3.6c2,0,3.5,1.6,3.5,3.6v14.1c0,8.3-6.7,15-15,15	c-1.9,0-3.5-1.6-3.5-3.5C47.6,27.3,49.1,25.8,51,25.8z" class="st2"/><linearGradient id="SVGID_4_" x1="-.794" x2="103.251" y1="16.645" y2="16.645" gradientUnits="userSpaceOnUse"><stop offset="0" style="stop-color:#ff4e00"/><stop offset="1" style="stop-color:#ff1791"/></linearGradient><path d="M29.5,0.3c-2,0-3.5,1.6-3.5,3.6v25.5c0,2,1.5,3.6,3.5,3.6s3.5-1.6,3.5-3.6V3.9C33,1.9,31.5,0.3,29.5,0.3z" class="st3"/><g><linearGradient id="SVGID_5_" x1="-.083" x2="101.835" y1="3.48" y2="3.48" gradientUnits="userSpaceOnUse"><stop offset="0" style="stop-color:#ff4e00"/><stop offset="1" style="stop-color:#ff1791"/></linearGradient><circle cx="62.5" cy="3.5" r="3.5" class="st4"/></g><linearGradient id="SVGID_6_" x1="-2.084" x2="101.96" y1="29.52" y2="29.52" gradientUnits="userSpaceOnUse"><stop offset="0" style="stop-color:#ff4e00"/><stop offset="1" style="stop-color:#ff1791"/></linearGradient><circle cx="98.5" cy="29.5" r="3.5" class="st5"/><linearGradient id="SVGID_7_" x1="-1.044" x2="103.001" y1="16.645" y2="16.645" gradientUnits="userSpaceOnUse"><stop offset="0" style="stop-color:#ff4e00"/><stop offset="1" style="stop-color:#ff1791"/></linearGradient><path d="M3.5,0.3C1.5,0.3,0,1.9,0,3.9v25.5c0,2,1.5,3.6,3.5,3.6S7,31.4,7,29.4V3.9C7,1.9,5.5,0.3,3.5,0.3z" class="st6"/><linearGradient id="SVGID_8_" x1="-.95" x2="103.701" y1="29.5" y2="29.5" gradientUnits="userSpaceOnUse"><stop offset="0" style="stop-color:#ff4e00"/><stop offset="1" style="stop-color:#ff1791"/></linearGradient><circle cx="29.5" cy="29.5" r="3.5" class="st7"/><linearGradient id="SVGID_9_" x1=".5" x2="102.802" y1="10" y2="10" gradientUnits="userSpaceOnUse"><stop offset="0" style="stop-color:#ff4e00"/><stop offset="1" style="stop-color:#ff1791"/></linearGradient><path d="M13.9,18.9c1.4,1.4,3.6,1.4,4.9,0s1.4-3.6,0-4.9L5.9,1.1C4.6-0.3,2.4-0.3,1,1.1S-0.3,4.7,1,6L13.9,18.9z" class="st8"/><linearGradient id="SVGID_10_" x1=".25" x2="100.505" y1="10" y2="10" gradientUnits="userSpaceOnUse"><stop offset="0" style="stop-color:#ff4e00"/><stop offset="1" style="stop-color:#ff1791"/></linearGradient><path d="M19,18.9c-1.4,1.4-3.6,1.4-4.9,0s-1.4-3.6,0-4.9L27,1.1c1.4-1.4,3.6-1.4,4.9,0c1.4,1.4,1.4,3.6,0,4.9L19,18.9z" class="st9"/><linearGradient id="SVGID_11_" x1="-1.581" x2="102.463" y1="16.355" y2="16.355" gradientUnits="userSpaceOnUse"><stop offset="0" style="stop-color:#ff4e00"/><stop offset="1" style="stop-color:#ff1791"/></linearGradient><path d="M51,25.8c-4.4,0-8-3.6-8-8V3.6c0-2-1.5-3.6-3.5-3.6c-2,0-3.5,1.6-3.5,3.6v14.1c0,8.3,6.7,15,15,15	c1.9,0,3.5-1.6,3.5-3.5C54.4,27.3,52.9,25.8,51,25.8z" class="st10"/></svg>