<svg width="800" height="460" viewBox="100 270 800 460" fill="none" xmlns="http://www.w3.org/2000/svg">
<path d="M543.321 553.145L465.329 431.093L465.212 533.642L330.799 307.09H236.24V689.546H329.742L330.047 463.277L463.073 679.407L543.321 553.145Z" fill="#121212"/>
<path d="M465.353 405.404H558.736L558.948 404.321V307.09H465.447L465.329 404.321L465.353 405.404Z" fill="#121212"/>
<path d="M703.065 511.433C680.694 511.009 660.482 524.741 652.613 545.71C665.713 526.097 690.657 518.216 712.629 526.749C722.78 530.889 736.128 537.57 746.702 533.995C736.645 519.865 720.395 511.463 703.065 511.433V511.433Z" fill="#121212"/>
<path d="M809.021 557.45C809.021 545.993 802.794 543.334 789.87 538.629C780.282 535.289 769.402 531.525 761.483 521.173C759.932 519.127 758.499 516.821 756.971 514.374C753.55 508.038 748.91 502.441 743.319 497.906C735.776 492.354 725.883 489.649 713.052 489.649C687.308 489.667 664.114 505.224 654.306 529.054C666.706 511.828 687.314 502.495 708.423 504.544C729.533 506.593 747.966 519.716 756.83 539.006C761.259 546.322 769.993 549.815 778.238 547.569C790.857 544.864 789.987 556.815 809.045 560.861L809.021 557.45Z" fill="#121212"/>
<path d="M850.637 555.003V554.744C850.355 478.897 788.859 414.014 713.052 414.014C666.753 413.982 623.55 437.292 598.12 476.027L597.627 475.18L558.713 414.014L465.353 414.014L554.06 553.097L467.491 689.546H558.172L597.627 628.873L637.786 689.546H728.491L646.246 559.967C644.88 557.442 644.139 554.627 644.084 551.756C644.077 533.454 651.337 515.9 664.263 502.959C677.19 490.017 694.724 482.749 713.005 482.756C751.12 482.756 757.488 505.576 765.713 516.303C781.95 537.476 814.379 528.207 814.379 555.826V555.826C814.475 562.298 818.013 568.227 823.66 571.379C829.306 574.531 836.204 574.428 841.754 571.108C847.304 567.789 850.663 561.757 850.567 555.285V555.285V555.003H850.637Z" fill="#121212"/>
<path d="M850.731 574.529C851.653 580.98 850.741 587.559 848.1 593.514C842.93 605.489 834.306 601.49 834.306 601.49C834.306 601.49 826.88 597.867 831.392 590.927C836.397 583.187 846.29 584.081 850.731 574.529Z" fill="#121212"/>
</svg>
