<svg width="745" height="186" viewBox="0 0 745 186" fill="none" xmlns="http://www.w3.org/2000/svg">
<g clip-path="url(#clip0_1_2)">
<path fill-rule="evenodd" clip-rule="evenodd" d="M151.744 141.947C153.387 163.214 153.387 173.183 153.387 184.065H104.558C104.558 181.694 104.6 179.526 104.642 177.327C104.774 170.492 104.912 163.365 103.813 148.971C102.361 127.899 93.356 123.216 76.798 123.216H62.128H0V84.876H79.122C100.037 84.876 110.494 78.464 110.494 61.489C110.494 46.563 100.037 37.517 79.122 37.517H0V0H87.836C135.186 0 158.716 22.536 158.716 58.535C158.716 85.461 142.158 103.021 119.79 105.948C138.672 109.753 149.71 120.582 151.744 141.947Z" fill="#121212"/>
<path d="M0 184.065V155.483H51.63C60.254 155.483 62.126 161.929 62.126 165.772V184.065H0Z" fill="#121212"/>
<path d="M740.943 55.524H692.548L670.523 86.474L649.079 55.524H597.206L643.862 119.467L593.148 185.745H641.544L667.336 150.416L693.127 185.745H745L693.996 117.423L740.943 55.524Z" fill="#121212"/>
<path d="M436.111 77.105C430.604 61.922 418.723 51.411 395.829 51.411C376.413 51.411 362.503 60.171 355.548 74.477V54.915H308.602V185.135H355.548V121.193C355.548 101.631 361.054 88.784 376.413 88.784C390.613 88.784 394.091 98.127 394.091 115.938V185.135H441.037V121.193C441.037 101.631 446.253 88.784 461.902 88.784C476.102 88.784 479.29 98.127 479.29 115.938V185.135H526.236V103.383C526.236 76.229 515.804 51.411 480.159 51.411C458.425 51.411 443.066 62.506 436.111 77.105Z" fill="#121212"/>
<path d="M259.716 134.599C255.369 144.818 247.255 149.197 234.504 149.197C220.304 149.197 208.712 141.606 207.553 125.547H298.258V112.409C298.258 77.08 275.365 47.298 232.185 47.298C191.904 47.298 161.766 76.788 161.766 117.956C161.766 159.416 191.325 184.526 232.765 184.526C266.961 184.526 290.724 167.884 297.389 138.102L259.716 134.599ZM208.133 102.773C209.871 90.51 216.537 81.167 231.606 81.167C245.516 81.167 253.05 91.094 253.63 102.773H208.133Z" fill="#121212"/>
<path d="M541.592 55.78V186H588.538V55.78H541.592ZM541.302 43.517H588.828V2.056H541.302V43.517Z" fill="#121212"/>
</g>
<defs>
<clipPath id="clip0_1_2">
<rect width="745" height="186" fill="white"/>
</clipPath>
</defs>
</svg>
