<svg xmlns="http://www.w3.org/2000/svg" viewBox="0 0 168 35"><path fill="#1389FD" d="M10.344 20.653H0L18.909.167l-5.09 14.183h10.344L5.253 34.833l5.091-14.18z"/><path d="m40.873 23.036 3.336-1.95c.707 1.838 2.092 3.025 4.554 3.025 2.346 0 3.166-.99 3.166-2.093 0-1.47-1.328-2.035-4.271-2.884-3.025-.877-5.965-2.149-5.965-5.91 0-3.732 3.109-5.882 6.503-5.882 3.252 0 5.74 1.669 7.069 4.439l-3.28 1.895c-.707-1.499-1.781-2.545-3.789-2.545-1.641 0-2.602.849-2.602 1.979 0 1.216.763 1.866 3.762 2.771 3.139.99 6.475 2.036 6.475 6.079 0 3.704-2.969 5.967-7.182 5.967-4.044.001-6.702-1.95-7.776-4.891zM62.678 16.901v5.881c0 1.526 1.103 1.555 3.195 1.441v3.31c-5.118.565-6.845-.934-6.845-4.751v-5.881h-2.459v-3.508h2.459v-2.855l3.649-1.103v3.958h3.195v3.508h-3.194zM82.416 13.393v14.14h-3.647v-1.669c-1.018 1.272-2.545 2.064-4.609 2.064-3.761 0-6.871-3.252-6.871-7.465s3.11-7.466 6.871-7.466c2.064 0 3.592.792 4.609 2.064v-1.669h3.647zm-3.647 7.07c0-2.375-1.668-3.987-3.93-3.987-2.234 0-3.903 1.612-3.903 3.987s1.669 3.986 3.903 3.986c2.262.001 3.93-1.611 3.93-3.986zM84.994 20.463c0-4.213 3.166-7.466 7.464-7.466 2.771 0 5.176 1.471 6.334 3.648l-3.139 1.838c-.565-1.159-1.782-1.895-3.224-1.895-2.178 0-3.789 1.611-3.789 3.874 0 2.233 1.611 3.845 3.789 3.845 1.471 0 2.686-.706 3.252-1.866l3.167 1.81c-1.215 2.206-3.62 3.677-6.391 3.677-4.297 0-7.463-3.252-7.463-7.465zM109.568 27.533l-5.146-6.419v6.419h-3.647V7.739h3.647v11.876l4.864-6.222h4.354l-5.684 6.985 5.854 7.154h-4.242zM130.354 21.792c0 3.393-2.743 5.74-6.164 5.74h-8.398V7.739h7.805c3.336 0 6.022 2.262 6.022 5.57 0 1.696-.707 3.026-1.866 3.959 1.584.905 2.601 2.46 2.601 4.524zm-10.661-10.406v4.355h3.903c1.216 0 2.121-.935 2.121-2.179s-.877-2.177-2.121-2.177h-3.903zm6.787 10.152c0-1.329-.961-2.318-2.29-2.318h-4.497v4.665h4.497c1.33-.001 2.29-.99 2.29-2.347zM132.733 6.89h3.647v20.643h-3.647V6.89zM139.295 9.463c0-1.216 1.018-2.262 2.233-2.262 1.244 0 2.262 1.046 2.262 2.262s-1.018 2.233-2.262 2.233c-1.215.001-2.233-1.017-2.233-2.233zm.424 3.93h3.647v14.14h-3.647v-14.14zM151.597 16.901v5.881c0 1.526 1.103 1.555 3.195 1.441v3.31c-5.118.565-6.843-.934-6.843-4.751v-5.881h-2.46v-3.508h2.46v-2.855l3.647-1.103v3.958h3.195v3.508h-3.194zM168 24.111v3.422h-11.169V25.1l5.966-8.284h-5.683v-3.423h10.603v2.433l-5.994 8.285H168z"/></svg>