<svg xmlns="http://www.w3.org/2000/svg" width="284" height="35" fill="none" viewBox="0 0 284 35"><path fill="#06B6D4" fill-rule="evenodd" d="M28.5 1C21.1667 1 16.5833 4.66667 14.75 12C17.5 8.33333 20.7083 6.95833 24.375 7.875C26.467 8.39801 27.9623 9.9157 29.6174 11.5957C32.3136 14.3325 35.4342 17.5 42.25 17.5C49.5833 17.5 54.1667 13.8333 56 6.5C53.25 10.1667 50.0417 11.5417 46.375 10.625C44.283 10.102 42.7877 8.5843 41.1326 6.90425C38.4364 4.16749 35.3158 1 28.5 1ZM14.75 17.5C7.41667 17.5 2.83333 21.1667 1 28.5C3.75 24.8333 6.95833 23.4583 10.625 24.375C12.717 24.898 14.2123 26.4157 15.8674 28.0957C18.5636 30.8325 21.6842 34 28.5 34C35.8333 34 40.4167 30.3333 42.25 23C39.5 26.6667 36.2917 28.0417 32.625 27.125C30.533 26.602 29.0377 25.0843 27.3826 23.4042C24.6864 20.6675 21.5658 17.5 14.75 17.5Z" clip-rule="evenodd"/><path fill="#000" d="M81.312 15.692V11.74H76.6V5.42L72.496 6.636V11.74H69V15.692H72.496V24.812C72.496 29.752 75.004 31.5 81.312 30.74V27.054C78.196 27.206 76.6 27.244 76.6 24.812V15.692H81.312Z"/><path fill="#000" d="M99.3029 11.74V14.438C97.8589 12.462 95.6169 11.246 92.6529 11.246C87.4849 11.246 83.1909 15.578 83.1909 21.24C83.1909 26.864 87.4849 31.234 92.6529 31.234C95.6169 31.234 97.8589 30.018 99.3029 28.004V30.74H103.407V11.74H99.3029ZM93.2989 27.32C89.8789 27.32 87.2949 24.774 87.2949 21.24C87.2949 17.706 89.8789 15.16 93.2989 15.16C96.7189 15.16 99.3029 17.706 99.3029 21.24C99.3029 24.774 96.7189 27.32 93.2989 27.32Z"/><path fill="#000" d="M110.242 8.89C111.686 8.89 112.864 7.674 112.864 6.268C112.864 4.824 111.686 3.646 110.242 3.646C108.798 3.646 107.62 4.824 107.62 6.268C107.62 7.674 108.798 8.89 110.242 8.89ZM108.19 30.74H112.294V11.74H108.19V30.74Z"/><path fill="#000" d="M117.06 30.74H121.164V3H117.06V30.74Z"/><path fill="#000" d="M147.817 11.74L144.093 24.85L140.141 11.74H136.227L132.237 24.85L128.551 11.74H124.219L130.185 30.74H134.213L138.203 17.934L142.155 30.74H146.183L152.149 11.74H147.817Z"/><path fill="#000" d="M157.223 8.89C158.667 8.89 159.845 7.674 159.845 6.268C159.845 4.824 158.667 3.646 157.223 3.646C155.779 3.646 154.601 4.824 154.601 6.268C154.601 7.674 155.779 8.89 157.223 8.89ZM155.171 30.74H159.275V11.74H155.171V30.74Z"/><path fill="#000" d="M174.034 11.246C171.45 11.246 169.398 12.196 168.144 14.172V11.74H164.04V30.74H168.144V20.556C168.144 16.68 170.272 15.084 172.97 15.084C175.554 15.084 177.226 16.604 177.226 19.492V30.74H181.33V19.074C181.33 14.134 178.29 11.246 174.034 11.246Z"/><path fill="#000" d="M200.797 4.14V14.438C199.353 12.462 197.111 11.246 194.147 11.246C188.979 11.246 184.685 15.578 184.685 21.24C184.685 26.864 188.979 31.234 194.147 31.234C197.111 31.234 199.353 30.018 200.797 28.004V30.74H204.901V4.14H200.797ZM194.793 27.32C191.373 27.32 188.789 24.774 188.789 21.24C188.789 17.706 191.373 15.16 194.793 15.16C198.213 15.16 200.797 17.706 200.797 21.24C200.797 24.774 198.213 27.32 194.793 27.32Z"/><path fill="#06B6D4" d="M214.684 27.046V11.142H210.82V30.742H222.16V27.046H214.684Z"/><path fill="#06B6D4" d="M240.302 30.742H244.502L237.614 11.142H232.826L225.966 30.742H230.138L231.314 27.214H239.126L240.302 30.742ZM232.546 23.602L235.234 15.594L237.922 23.602H232.546Z"/><path fill="#06B6D4" d="M261.049 20.578C262.197 19.654 262.897 18.338 262.897 16.658C262.897 13.382 260.237 11.142 256.933 11.142H249.205V30.742H257.521C260.909 30.742 263.625 28.418 263.625 25.058C263.625 23.014 262.617 21.474 261.049 20.578ZM256.933 14.754C258.165 14.754 259.033 15.678 259.033 16.91C259.033 18.142 258.137 19.066 256.933 19.066H253.069V14.754H256.933ZM257.521 27.13H253.069V22.51H257.521C258.837 22.51 259.789 23.49 259.789 24.806C259.789 26.15 258.837 27.13 257.521 27.13Z"/><path fill="#06B6D4" d="M275.35 31.134C279.522 31.134 282.462 28.894 282.462 25.226C282.462 21.222 279.158 20.186 276.05 19.206C273.082 18.31 272.326 17.666 272.326 16.462C272.326 15.342 273.278 14.502 274.902 14.502C276.89 14.502 277.954 15.538 278.654 17.022L281.902 15.146C280.586 12.402 278.122 10.75 274.902 10.75C271.542 10.75 268.462 12.878 268.462 16.574C268.462 20.298 271.374 21.558 274.37 22.426C277.282 23.266 278.598 23.826 278.598 25.282C278.598 26.374 277.786 27.354 275.462 27.354C273.026 27.354 271.654 26.178 270.954 24.358L267.65 26.29C268.714 29.202 271.346 31.134 275.35 31.134Z"/></svg>