<svg xmlns="http://www.w3.org/2000/svg" width="120" height="34" viewBox="0 0 120 34"><g fill="none"><path fill="#000" d="M14.968 0a3.816 3.816 0 0 1 3.815 3.814 3.797 3.797 0 0 1-1.186 2.763v.443c2.322.166 4.968.54 7.085 1.064 1.252.31 2.33.678 3.099 1.072 1.347.69 1.882 1.57 2.018 2.3.314 1.69.464 5.753.482 9.921l.002.626c0 1.348-.479 2.587-1.373 3.683-.805.986-1.972 1.861-3.414 2.57-2.753 1.352-6.56 2.12-10.355 2.12-3.76 0-7.53-.752-10.271-2.035-1.452-.68-2.63-1.516-3.442-2.447C.488 24.818 0 23.607 0 22.31l.002-.934.004-.64c.029-3.937.177-7.678.477-9.28.134-.72.656-1.588 1.967-2.273.743-.39 1.787-.754 3.002-1.062 2.042-.517 4.603-.894 6.896-1.075v-.47A3.816 3.816 0 0 1 14.968 0"/><path fill="#FFF" d="M14.973 1.836a1.976 1.976 0 0 1 .788 3.79v3.142c4.57.107 11.919 1.34 12.233 3.023.327 1.76.453 6.183.453 10.521 0 3.769-6.685 6.228-13.306 6.228-6.625 0-13.305-2.46-13.305-6.228 0-4.338.122-8.761.452-10.521.306-1.644 7.31-2.857 11.896-3.013V5.625a1.977 1.977 0 0 1-1.181-1.811 1.975 1.975 0 0 1 1.97-1.978m2.823 23.478c-.012.003-1.054.546-2.664.546-1.443 0-2.418-.436-2.611-.529l-.035-.017a.785.785 0 0 0-1.066.314.793.793 0 0 0 .312 1.075c.054.03 1.365.74 3.4.74 2.032 0 3.358-.71 3.416-.74a.792.792 0 0 0-.15-1.452.785.785 0 0 0-.602.063M9.144 15.73c-2.447 0-4.433 1.993-4.433 4.452 0 2.459 1.986 4.452 4.433 4.452a4.444 4.444 0 0 0 4.436-4.452 4.444 4.444 0 0 0-4.436-4.452m11.991 0a4.444 4.444 0 0 0-4.436 4.452 4.443 4.443 0 0 0 4.436 4.452 4.444 4.444 0 0 0 4.437-4.452 4.444 4.444 0 0 0-4.437-4.452M9.144 17.215a2.964 2.964 0 0 1 2.957 2.967 2.966 2.966 0 0 1-2.957 2.968 2.965 2.965 0 0 1-2.954-2.968 2.963 2.963 0 0 1 2.954-2.967m11.99 0c1.63 0 2.956 1.33 2.956 2.967a2.965 2.965 0 0 1-2.957 2.968 2.964 2.964 0 0 1-2.952-2.968 2.963 2.963 0 0 1 2.952-2.967M10.13 20.182a.99.99 0 0 0 0 1.977.99.99 0 0 0 0-1.977m11.99 0a.99.99 0 0 0 0 1.977.99.99 0 0 0 0-1.977"/><path fill="#000" d="M43.864 7.334h-3.593v9.136h-1.797V7.334H34.88V5.651h8.984zm5.24 2.404H46.71c-.404 0-.599.24-.599.721v6.01h-1.797v-6.01c0-1.638.764-2.404 2.397-2.404h2.394zm7.036 2.705-3.593.9c-.539.136-.598.317-.598.722 0 .481.195.722.598.722h2.995c.404 0 .598-.24.598-.721zm1.798-1.983v3.605c0 1.636-.763 2.403-2.395 2.403h-2.995c-1.632 0-2.396-.767-2.396-2.403 0-.722.24-1.217.764-1.518.54-.316.854-.42 1.632-.616l3.594-.901v-.57c0-.48-.196-.722-.598-.722h-2.996c-.404 0-.599.24-.599.722v.6h-1.796v-.6c0-1.64.764-2.405 2.395-2.405h2.996c1.579 0 2.344.717 2.392 2.248zm7.712 0c0-.481-.195-.722-.598-.722h-2.996c-.405 0-.6.24-.6.721v6.01h-1.795v-6.01c0-1.638.763-2.404 2.395-2.404h2.996c1.63 0 2.394.766 2.394 2.404v6.01H65.65zm8.833 6.01h-2.995c-1.632 0-2.395-.767-2.395-2.404v-.601h1.797v.6c0 .481.195.722.598.722h2.995c.405 0 .599-.24.599-.721l-.002-.122c-.008-.267-.073-.417-.597-.6l-2.995-.752c-.78-.195-1.093-.3-1.632-.6-.524-.316-.763-.812-.763-1.533 0-1.638.763-2.404 2.395-2.404h2.995c1.632 0 2.395.766 2.395 2.404v.601h-1.796v-.6c0-.481-.195-.722-.598-.722h-2.996c-.404 0-.598.24-.598.721l.002.121c.008.266.073.416.596.6l2.996.751c.719.182 1.041.284 1.5.548l.118.07c.538.299.777.795.777 1.517 0 1.637-.763 2.404-2.396 2.404m6.14-1.684h1.496v1.682h-1.496c-1.498 0-2.097-.6-2.097-2.103V5.65h1.796v8.714c0 .3.046.42.3.42m8.608-4.327c0-.48-.195-.72-.599-.72h-2.994c-.406 0-.599.24-.599.72v3.605c0 .48.194.722.599.722h2.994c.405 0 .599-.241.599-.721zm1.797 0v3.605c0 1.637-.734 2.404-2.396 2.404h-2.994c-1.663 0-2.396-.767-2.396-2.404V10.46c0-1.638.735-2.404 2.396-2.404h2.994c1.61 0 2.35.719 2.395 2.253zm7.56 1.984-3.592.9c-.54.136-.6.317-.6.722 0 .481.195.722.6.722h2.995c.404 0 .599-.24.599-.721zm1.797-1.983v3.605c0 1.636-.762 2.403-2.394 2.403h-2.994c-1.633 0-2.396-.767-2.396-2.403 0-.722.24-1.217.763-1.518.54-.316.853-.42 1.633-.616l3.593-.901v-.57c0-.48-.195-.722-.599-.722h-2.994c-.406 0-.6.24-.6.722v.6H92.6v-.6c0-1.64.763-2.405 2.396-2.405h2.994c1.58 0 2.344.717 2.392 2.248zm7.637 3.606V9.738h-3.593c-.406 0-.599.24-.599.721v3.605c0 .482.194.722.599.722h2.994c.375 0 .57-.207.596-.622zm1.796-8.415v8.414c0 1.637-.733 2.404-2.395 2.404h-2.994c-1.663 0-2.396-.767-2.396-2.404V10.46c0-1.638.734-2.403 2.396-2.403h3.593V5.65zm7.188 0v2.404h2.696v1.683h-2.695v4.626c0 .3.045.421.299.421H120v1.683h-2.694c-1.497 0-2.096-.6-2.096-2.103V5.65zm-3.594 2.476v8.341h-1.796v-8.34zm-.964-3.144c.634 0 1.148.51 1.148 1.14 0 .63-.514 1.14-1.148 1.14-.634 0-1.148-.51-1.148-1.14 0-.63.514-1.14 1.148-1.14"/><path fill="#707070" d="M36.289 21.326H38.4v5.876h1.04v-5.876h2.103v-.89h-5.254zm7.333 2.87c0-.804.5-1.262 1.181-1.262.663 0 1.072.436 1.072 1.167v3.101h1.003v-3.224c0-1.253-.694-1.916-1.73-1.916-.695 0-1.217.304-1.535.976v-2.602h-.99v6.766h1zm6.785 3.111c1.085 0 1.862-.531 2.102-1.322l-.94-.222c-.177.472-.595.717-1.153.717-.831 0-1.394-.531-1.43-1.512h3.6v-.354c0-1.83-1.108-2.552-2.266-2.552-1.42 0-2.338 1.076-2.338 2.638 0 1.576.926 2.607 2.425 2.607m-1.417-3.084c.054-.73.536-1.335 1.335-1.335.767 0 1.199.536 1.271 1.335zm7.247 2.979h1.036v-2.815h2.87V23.5h-2.87v-2.175h3.174v-.89h-4.21zm5.404 0h1v-5.076h-1zm.504-5.853c.345 0 .631-.263.631-.59 0-.332-.286-.595-.63-.595-.346 0-.632.263-.632.595 0 .327.286.59.631.59m2.838-.913h-.999v6.766h1zm3.533 6.871c1.086 0 1.862-.531 2.103-1.322l-.94-.222c-.177.472-.595.717-1.154.717-.83 0-1.394-.531-1.43-1.512h3.601v-.354c0-1.83-1.108-2.552-2.266-2.552-1.421 0-2.339 1.076-2.339 2.638 0 1.576.927 2.607 2.425 2.607M67.1 24.223c.055-.73.536-1.335 1.336-1.335.767 0 1.198.536 1.271 1.335zm6.73 2.979h1.12l.605-1.784h2.66l.623 1.784h1.122l-2.453-6.766h-1.271zm2.02-2.647.377-1.117c.168-.518.377-1.222.64-2.189.268.958.472 1.648.654 2.189l.39 1.117zm5.09 2.647h1.036v-2.37h1.38c1.572 0 2.353-.95 2.353-2.198 0-1.249-.777-2.198-2.344-2.198h-2.424zm1.036-3.246v-2.634h1.271c1.004 0 1.413.55 1.413 1.312 0 .763-.41 1.322-1.404 1.322zm5.967-3.52h-1.036v6.766h1.036z"/></g></svg>