<svg width="110" height="118" viewBox="0 0 110 118" fill="none" xmlns="http://www.w3.org/2000/svg">
<path d="M96.8285 117.176L75.9674 96.4188L75.67 96.4705V96.2507L31.3094 52.3816L42.2638 41.8282L35.8231 4.91711L5.33977 42.7335C0.166531 47.9585 -0.829317 56.5072 2.92128 62.7798L21.9717 94.4012C24.8817 99.2511 29.46 102.368 35.849 102.135C49.377 101.657 55.3262 101.657 55.3262 101.657L96.8156 117.163L96.8285 117.176Z" fill="#18B6F6"/>
<path d="M107.134 59.0164C110.134 52.8214 111.208 47.4024 108.246 41.9576L104.03 34.1977L101.844 30.2143L100.991 28.6624L100.913 28.7529L89.4413 8.84886C86.5443 3.81789 81.19 0.752745 75.3571 0.804478L65.2952 1.08901L35.2645 1.1666C29.5869 1.21834 24.3749 4.20588 21.4908 9.10753L3.24219 45.3461L35.8983 4.72321L78.7327 51.8256L71.0634 59.5983L75.6417 96.4447L75.7063 96.3671V96.4706H75.6417L75.7322 96.5611L79.3017 100.04L96.5804 116.918C97.3046 117.616 98.4815 116.776 98.003 115.909L87.3203 94.8928" fill="#AC7EF4"/>
<path d="M78.8354 51.7092L35.8846 4.8396L41.989 41.5437L31.0605 52.1489L75.5633 96.3801L71.5541 59.663L78.8354 51.7221V51.7092Z" fill="white"/>
</svg>
