<svg width="21" height="20" viewBox="0 0 21 20" fill="none" xmlns="http://www.w3.org/2000/svg">
<path d="M15.5 13.3333L17.0332 14.6548C17.6777 15.2104 18 15.4881 18 15.8333C18 16.1785 17.6777 16.4562 17.0332 17.0118L15.5 18.3333" stroke="#AA3BFF" stroke-width="1.35" stroke-linecap="round" stroke-linejoin="round"/>
<path d="M12.1665 13.3333L10.6333 14.6548C9.98875 15.2104 9.6665 15.4881 9.6665 15.8333C9.6665 16.1785 9.98875 16.4562 10.6333 17.0118L12.1665 18.3333" stroke="#AA3BFF" stroke-width="1.35" stroke-linecap="round" stroke-linejoin="round"/>
<path d="M17.1667 10.836V6.5166C17.1667 5.10515 17.1667 4.39943 16.9433 3.83578C16.5844 2.92965 15.8252 2.21489 14.8627 1.87692C14.264 1.66669 13.5144 1.66669 12.0152 1.66669C9.3915 1.66669 8.07969 1.66669 7.03197 2.03459C5.34762 2.62604 4.01901 3.87685 3.39078 5.4626C3 6.44898 3 7.684 3 10.154V12.2759C3 14.8344 3 16.1137 3.70642 17.0021C3.90882 17.2567 4.14885 17.4827 4.41923 17.6732C5.17922 18.2089 6.20849 18.3131 8 18.3334" stroke="#AA3BFF" stroke-width="1.35" stroke-linecap="round" stroke-linejoin="round"/>
<path d="M3 10C3 8.46585 4.24365 7.22225 5.77778 7.22225C6.3326 7.22225 6.9867 7.31946 7.52614 7.17492C8.00543 7.04649 8.3798 6.67212 8.50823 6.19282C8.65278 5.65339 8.55556 4.99929 8.55556 4.44446C8.55556 2.91034 9.79925 1.66669 11.3333 1.66669" stroke="#AA3BFF" stroke-width="1.35" stroke-linecap="round" stroke-linejoin="round"/>
</svg>
