<svg width="19" height="19" viewBox="0 0 19 19" fill="none" xmlns="http://www.w3.org/2000/svg">
<path fill-rule="evenodd" clip-rule="evenodd" d="M9.3559 1.84961C5.0504 1.84961 1.56982 5.35584 1.56982 9.69354C1.56982 13.1609 3.79995 16.0959 6.89372 17.1347C7.28052 17.2128 7.42221 16.9659 7.42221 16.7583C7.42221 16.5764 7.40946 15.9531 7.40946 15.3037C5.24356 15.7713 4.79253 14.3686 4.79253 14.3686C4.44446 13.4596 3.92872 13.2259 3.92872 13.2259C3.21983 12.7454 3.98036 12.7454 3.98036 12.7454C4.76671 12.7974 5.17933 13.5506 5.17933 13.5506C5.87532 14.7452 6.99684 14.4077 7.44803 14.1998C7.51241 13.6934 7.7188 13.3427 7.93794 13.148C6.21049 12.9661 4.39298 12.2909 4.39298 9.27789C4.39298 8.42077 4.70217 7.71953 5.19208 7.17415C5.11479 6.97939 4.84401 6.17407 5.26954 5.09622C5.26954 5.09622 5.92696 4.8884 7.4093 5.90138C8.04394 5.72968 8.69844 5.64234 9.3559 5.6416C10.0133 5.6416 10.6835 5.73261 11.3023 5.90138C12.7848 4.8884 13.4423 5.09622 13.4423 5.09622C13.8678 6.17407 13.5968 6.97939 13.5196 7.17415C14.0224 7.71953 14.3188 8.42077 14.3188 9.27789C14.3188 12.2909 12.5013 12.9531 10.7609 13.148C11.0446 13.3947 11.2894 13.8621 11.2894 14.6024C11.2894 15.6543 11.2767 16.4985 11.2767 16.7581C11.2767 16.9659 11.4185 17.2128 11.8052 17.1349C14.8989 16.0958 17.1291 13.1609 17.1291 9.69354C17.1418 5.35584 13.6485 1.84961 9.3559 1.84961Z" fill="#08060D"/>
</svg>
