<svg width="20" height="20" viewBox="0 0 20 20" fill="none" xmlns="http://www.w3.org/2000/svg">
<g id="github / 24 / Outline">
<path id="Vector" d="M10.0003 1.87207C8.02158 1.87215 6.1074 2.57633 4.60032 3.85861C3.09324 5.14089 2.0916 6.91759 1.77463 8.87081C1.45765 10.824 1.84603 12.8263 2.87026 14.5194C3.8945 16.2124 5.48775 17.4858 7.36495 18.1116C7.78161 18.1846 7.93786 17.9346 7.93786 17.7158C7.93786 17.5179 7.92744 16.8616 7.92744 16.1637C5.83368 16.5491 5.29201 15.6533 5.12535 15.1846C4.94041 14.7287 4.64724 14.3247 4.27118 14.0075C3.97951 13.8512 3.56285 13.4658 4.26076 13.4554C4.52725 13.4843 4.78284 13.5771 5.00587 13.7258C5.22891 13.8744 5.41282 14.0747 5.54201 14.3096C5.65599 14.5143 5.80925 14.6946 5.99301 14.84C6.17676 14.9854 6.38741 15.0931 6.61287 15.157C6.83834 15.2209 7.07419 15.2396 7.30691 15.2122C7.53964 15.1847 7.76466 15.1116 7.96908 14.9971C8.00516 14.5734 8.19396 14.1773 8.50035 13.8825C6.64618 13.6742 4.70868 12.9554 4.70868 9.76793C4.69697 8.93972 5.00259 8.13841 5.56285 7.52835C5.30808 6.80853 5.33789 6.01858 5.64618 5.32001C5.64618 5.32001 6.34407 5.10125 7.93785 6.17418C9.30142 5.79916 10.7409 5.79916 12.1045 6.17418C13.6982 5.09085 14.3962 5.32001 14.3962 5.32001C14.7045 6.01857 14.7343 6.80853 14.4795 7.52835C15.0415 8.13737 15.3473 8.93937 15.3337 9.76793C15.3337 12.9658 13.3857 13.6742 11.5316 13.8825C11.7305 14.0841 11.8836 14.3261 11.9807 14.5921C12.0778 14.8581 12.1164 15.1419 12.0941 15.4242C12.0941 16.5388 12.0837 17.4346 12.0837 17.7158C12.0837 17.9346 12.2399 18.195 12.6566 18.1117C14.5305 17.4807 16.1192 16.2044 17.139 14.5104C18.1589 12.8165 18.5436 10.8153 18.2244 8.86393C17.9052 6.91261 16.903 5.13821 15.3966 3.8575C13.8901 2.57678 11.9776 1.8731 10.0003 1.87207Z" fill="white"/>
</g>
</svg>
