<svg viewBox="0 0 101 44" fill="none" xmlns="http://www.w3.org/2000/svg">
  <g clip-path="url(#clip0_797_4385)">
    <path d="M47.649 38.1362C38.4359 38.1362 33.7485 32.7484 33.7485 26.0137C33.7485 18.0398 40.1061 10.8202 49.3192 10.8202C58.5321 10.8202 63.2196 16.208 63.2196 22.9426C63.2196 30.9167 56.8618 38.1362 47.649 38.1362ZM48.0262 29.5695C51.2586 29.5695 53.306 26.6601 53.306 23.4276C53.306 20.8414 51.6358 19.3867 48.942 19.3867C45.7093 19.3867 43.6619 22.2961 43.6619 25.5288C43.6619 28.1149 45.3321 29.5695 48.0262 29.5695ZM73.0332 37.4896H63.3352L71.2553 1.55322H80.9533L73.0332 37.4896Z" fill="white"/>
    <path fill-rule="evenodd" clip-rule="evenodd" d="M19.0558 38.1362C16.0925 38.1362 13.1832 37.0586 11.5129 34.742L10.9238 37.4743L0.0473633 43.2523L1.22153 37.4743L9.14232 1.55322H18.8403L16.0387 14.2145C18.3015 11.7361 20.4028 10.8202 23.0966 10.8202C28.9155 10.8202 32.7946 14.6455 32.7946 21.6496C32.7946 28.8693 28.3226 38.1362 19.0558 38.1362ZM22.7734 23.6969C22.7734 27.0373 20.4028 29.5695 17.3317 29.5695C15.6076 29.5695 14.0452 28.9231 13.0215 27.7916L14.5301 21.1647C15.6615 20.0333 16.9546 19.3867 18.4632 19.3867C20.7799 19.3867 22.7734 21.1108 22.7734 23.6969Z" fill="white"/>
    <path d="M91.0433 38.1358C85.4398 38.1358 81.453 36.0885 81.453 31.5627C81.453 31.1855 81.5069 30.2696 81.6684 29.5153L83.7696 19.8712H79.4595L81.3453 11.4663H85.6555L87.2178 4.35448L98.0748 -0.130371L96.916 4.36545L95.3535 11.4663H100.633L98.7477 19.8712H93.4676L92.0669 26.2287C91.9592 26.7138 91.9053 27.2525 91.9053 27.4679C91.9053 28.7071 92.6594 29.5691 94.3296 29.5691C94.8145 29.5691 95.515 29.4076 95.6765 29.2999V37.0582C94.653 37.7587 92.8212 38.1358 91.0433 38.1358Z" fill="white"/>
  </g>
  <defs>
    <clipPath id="clip0_797_4385">
      <rect width="100.8" height="43.6375" fill="white"/>
    </clipPath>
  </defs>
</svg>
