<svg viewBox="0 0 209 31" fill="none" xmlns="http://www.w3.org/2000/svg">
  <g clip-path="url(#clip0_797_4401)">
    <path d="M45.6997 10.4571C46.5442 8.90302 47.7216 7.68753 49.2316 6.81936C50.7419 5.95118 52.4566 5.51709 54.3677 5.51709C56.7134 5.51709 58.7181 6.15085 60.3904 7.40972C62.0629 8.6686 63.1715 10.3876 63.7347 12.5668H58.4454C58.053 11.7246 57.4898 11.0909 56.773 10.6481C56.0479 10.2053 55.2292 9.98825 54.3075 9.98825C52.8233 9.98825 51.629 10.5091 50.7073 11.5596C49.7862 12.6101 49.3254 14.0167 49.3254 15.7703C49.3254 17.5242 49.7862 18.9305 50.7073 19.981C51.629 21.0315 52.8233 21.5525 54.3075 21.5525C55.2292 21.5525 56.0479 21.3355 56.773 20.8927C57.4981 20.4499 58.053 19.816 58.4454 18.9739H63.7347C63.1715 21.1531 62.054 22.8634 60.3904 24.1137C58.7181 25.3638 56.7134 25.9889 54.3677 25.9889C52.4566 25.9889 50.7419 25.5548 49.2316 24.6867C47.7216 23.8185 46.5442 22.6117 45.6997 21.0663C44.8551 19.5209 44.437 17.7586 44.437 15.7703C44.437 13.7823 44.8551 12.0112 45.6997 10.4571Z" fill="white"/>
    <path d="M69.1261 25.0776C67.8978 24.4091 66.9339 23.454 66.2255 22.2125C65.5259 20.971 65.1675 19.5211 65.1675 17.863C65.1675 16.2047 65.5259 14.7722 66.2344 13.522C66.9505 12.2718 67.9234 11.3169 69.1606 10.6483C70.3972 9.97981 71.788 9.6499 73.3234 9.6499C74.8595 9.6499 76.2497 9.97981 77.4868 10.6483C78.7241 11.3169 79.6963 12.2718 80.4131 13.522C81.1299 14.7722 81.4794 16.2221 81.4794 17.863C81.4794 19.5039 81.121 20.9537 80.3958 22.2038C79.6706 23.454 78.6895 24.4091 77.444 25.0776C76.1985 25.746 74.8083 26.076 73.2639 26.076C71.7195 26.076 70.346 25.746 69.1178 25.0776H69.1261ZM75.627 20.8148C76.2752 20.1288 76.5998 19.1479 76.5998 17.863C76.5998 16.5781 76.2842 15.6056 75.6614 14.9111C75.0298 14.2252 74.2623 13.8779 73.3407 13.8779C72.4191 13.8779 71.626 14.2165 71.0033 14.8937C70.3805 15.5709 70.0733 16.5606 70.0733 17.8542C70.0733 19.1479 70.3805 20.1202 70.986 20.8061C71.5915 21.4919 72.3595 21.8393 73.2812 21.8393C74.2022 21.8393 74.9875 21.4919 75.627 20.8061V20.8148Z" fill="white"/>
    <path d="M83.4415 13.5045C84.047 12.263 84.8835 11.308 85.9326 10.6395C86.9822 9.97103 88.1509 9.64111 89.4476 9.64111C90.48 9.64111 91.4183 9.8581 92.2714 10.3009C93.1246 10.7437 93.7985 11.3341 94.2844 12.072V4.65771H99.0965V25.8414H94.2844V23.5494C93.8325 24.3135 93.1925 24.9212 92.3566 25.3813C91.5207 25.8414 90.5478 26.0671 89.4476 26.0671C88.1509 26.0671 86.9822 25.7285 85.9326 25.0514C84.8835 24.3742 84.0559 23.4105 83.4415 22.1604C82.8361 20.9101 82.5288 19.469 82.5288 17.8194C82.5288 16.1699 82.8361 14.7374 83.4415 13.4958V13.5045ZM93.2866 14.9631C92.6209 14.2599 91.8107 13.9038 90.8551 13.9038C89.8995 13.9038 89.0892 14.2512 88.4236 14.9457C87.7585 15.6403 87.4258 16.6039 87.4258 17.8194C87.4258 19.0348 87.7585 20.0072 88.4236 20.7278C89.0892 21.4397 89.8995 21.8044 90.8551 21.8044C91.8107 21.8044 92.6209 21.4484 93.2866 20.7452C93.9522 20.042 94.2844 19.0783 94.2844 17.8541C94.2844 16.63 93.9522 15.6663 93.2866 14.9631Z" fill="white"/>
    <path d="M116.739 19.0349H105.854C105.93 20.0246 106.246 20.7888 106.792 21.3096C107.346 21.8305 108.029 22.0997 108.831 22.0997C110.034 22.0997 110.869 21.5875 111.339 20.5544H116.458C116.194 21.6048 115.725 22.5511 115.033 23.3846C114.35 24.2267 113.489 24.8865 112.457 25.364C111.425 25.8416 110.272 26.076 108.993 26.076C107.458 26.076 106.084 25.746 104.889 25.0776C103.686 24.4091 102.748 23.454 102.074 22.2125C101.4 20.971 101.059 19.5211 101.059 17.863C101.059 16.2047 101.392 14.7548 102.057 13.5133C102.723 12.2718 103.652 11.3169 104.855 10.6483C106.059 9.97981 107.432 9.6499 108.993 9.6499C110.554 9.6499 111.86 9.97107 113.045 10.6223C114.222 11.2735 115.153 12.1937 115.818 13.4005C116.483 14.5986 116.816 16.005 116.816 17.6112C116.816 18.0714 116.791 18.5488 116.731 19.0437L116.739 19.0349ZM111.902 16.3175C111.902 15.4754 111.621 14.8069 111.058 14.312C110.494 13.8171 109.795 13.5654 108.95 13.5654C108.106 13.5654 107.466 13.7999 106.911 14.2773C106.357 14.7548 106.016 15.432 105.888 16.3089H111.911L111.902 16.3175Z" fill="white"/>
    <path d="M129.143 25.8494L125.04 18.2616H123.888V25.8494H119.076V5.75098H127.148C128.708 5.75098 130.031 6.02879 131.132 6.58441C132.232 7.14009 133.051 7.89538 133.596 8.8591C134.143 9.82276 134.416 10.8993 134.416 12.08C134.416 13.417 134.049 14.6065 133.307 15.657C132.564 16.7075 131.473 17.4541 130.031 17.8882L134.586 25.8494H129.152H129.143ZM123.88 14.7975H126.866C127.744 14.7975 128.41 14.5805 128.845 14.1377C129.289 13.6949 129.51 13.0784 129.51 12.2797C129.51 11.4809 129.289 10.9167 128.845 10.474C128.401 10.0312 127.744 9.81403 126.866 9.81403H123.88V14.7975Z" fill="white"/>
    <path d="M136.813 13.5037C137.42 12.2622 138.255 11.3072 139.304 10.6387C140.354 9.97025 141.531 9.73584 142.82 9.73584H152.468V25.8407H147.657V23.5833C147.187 24.33 146.539 24.9291 145.703 25.3892C144.867 25.8493 143.895 26.0751 142.793 26.0751C141.515 26.0751 140.354 25.7365 139.304 25.0594C138.255 24.3821 137.427 23.4185 136.813 22.1683C136.208 20.9181 135.901 19.4768 135.901 17.8273C135.901 16.1777 136.208 14.7452 136.813 13.5037ZM146.658 14.9623C145.993 14.2591 145.182 13.9031 144.228 13.9031C143.272 13.9031 142.46 14.2504 141.796 14.9449C141.13 15.6395 140.797 16.6032 140.797 17.8186C140.797 19.0341 141.13 20.0064 141.796 20.7271C142.46 21.4389 143.272 21.8036 144.228 21.8036C145.182 21.8036 145.993 21.4477 146.658 20.7444C147.323 20.0412 147.657 19.0775 147.657 17.8534C147.657 16.6292 147.323 15.6655 146.658 14.9623Z" fill="white"/>
    <path d="M162.151 10.3269C162.996 9.86684 163.96 9.64111 165.052 9.64111C166.349 9.64111 167.517 9.97103 168.567 10.6395C169.617 11.308 170.444 12.263 171.059 13.5045C171.664 14.746 171.971 16.1872 171.971 17.8281C171.971 19.469 171.664 20.9189 171.059 22.169C170.453 23.4191 169.617 24.3829 168.567 25.0601C167.517 25.7372 166.349 26.0759 165.052 26.0759C163.943 26.0759 162.979 25.8502 162.151 25.4074C161.324 24.9559 160.675 24.3655 160.206 23.6189V25.8502H155.395V4.65771H160.206V12.1328C160.659 11.3862 161.307 10.7871 162.151 10.3269ZM166.076 14.9543C165.411 14.2599 164.591 13.9126 163.611 13.9126C162.63 13.9126 161.844 14.2686 161.179 14.9718C160.514 15.6749 160.181 16.6387 160.181 17.8628C160.181 19.0869 160.514 20.0506 161.179 20.7539C161.844 21.4571 162.655 21.813 163.611 21.813C164.566 21.813 165.385 21.4571 166.059 20.7365C166.733 20.0246 167.074 19.0523 167.074 17.8281C167.074 16.6039 166.741 15.6489 166.076 14.9543Z" fill="white"/>
    <path d="M180.69 10.3269C181.535 9.86684 182.499 9.64111 183.59 9.64111C184.888 9.64111 186.056 9.97103 187.106 10.6395C188.154 11.308 188.983 12.263 189.596 13.5045C190.202 14.746 190.509 16.1872 190.509 17.8281C190.509 19.469 190.202 20.9189 189.596 22.169C188.99 23.4191 188.154 24.3829 187.106 25.0601C186.056 25.7372 184.888 26.0759 183.59 26.0759C182.481 26.0759 181.517 25.8502 180.69 25.4074C179.862 24.9559 179.214 24.3655 178.745 23.6189V25.8502H173.933V4.65771H178.745V12.1328C179.196 11.3862 179.845 10.7871 180.69 10.3269ZM184.614 14.9543C183.949 14.2599 183.13 13.9126 182.148 13.9126C181.167 13.9126 180.383 14.2686 179.717 14.9718C179.053 15.6749 178.719 16.6387 178.719 17.8628C178.719 19.0869 179.053 20.0506 179.717 20.7539C180.383 21.4571 181.193 21.813 182.148 21.813C183.104 21.813 183.923 21.4571 184.597 20.7365C185.271 20.0246 185.612 19.0523 185.612 17.8281C185.612 16.6039 185.28 15.6489 184.614 14.9543Z" fill="white"/>
    <path d="M192.831 7.45286C192.293 6.94928 192.029 6.32422 192.029 5.57757C192.029 4.83093 192.293 4.17977 192.831 3.67625C193.368 3.17266 194.051 2.9209 194.894 2.9209C195.739 2.9209 196.397 3.17266 196.934 3.67625C197.472 4.17977 197.736 4.81352 197.736 5.57757C197.736 6.34157 197.472 6.94928 196.934 7.45286C196.397 7.9564 195.722 8.20815 194.894 8.20815C194.067 8.20815 193.359 7.9564 192.831 7.45286ZM197.292 9.87503V25.8496H192.48V9.86639H197.292V9.87503Z" fill="white"/>
    <path d="M208.962 21.6912V25.8411H206.513C204.773 25.8411 203.409 25.407 202.436 24.5388C201.463 23.6707 200.977 22.2555 200.977 20.2847V13.9296H199.066V9.8665H200.977V5.97705H205.789V9.8665H208.937V13.9296H205.789V20.3455C205.789 20.823 205.9 21.1703 206.131 21.3786C206.352 21.587 206.728 21.6912 207.256 21.6912H208.971H208.962Z" fill="white"/>
    <path d="M15.1982 0.0478516C23.5913 0.0478924 30.3955 6.85202 30.3955 15.2451C30.3955 23.6382 23.5913 30.4423 15.1982 30.4424C6.8051 30.4424 0.000990806 23.6383 0.000976562 15.2451C0.000976562 6.852 6.80509 0.0478516 15.1982 0.0478516ZM12.4346 4.30371C13.1026 9.1054 15.8607 7.85448 17.4854 11.1641C17.4854 11.1641 14.7436 7.43755 10.2363 8.80957C10.2363 8.80957 11.8794 12.2581 16.7383 12.9629C16.7383 12.9629 17.1274 14.2958 17.2451 14.5322C17.178 14.4974 9.75129 10.6638 7.48926 18.1201C5.79847 17.7374 5.23133 19.5732 7.1748 20.8271C7.1748 20.8271 7.50552 19.514 8.31055 19.124C8.28733 19.1501 6.59696 21.0669 8.61523 23.3594H15.9092C16.0857 23.0668 16.8648 21.5315 14.9365 20.3691C16.298 20.3501 17.4063 22.9174 18.5986 23.377H20.334C20.3927 23.2339 20.5145 22.8067 20.2266 22.4229C19.7823 21.9138 18.8101 21.9825 18.8184 21.041C19.1542 16.6579 25.7271 18.0033 25.5186 12.7285C25.5186 12.7285 23.4009 10.0211 20.7393 9.86621C19.0216 9.76483 18.6058 9.99511 18.5312 10.166C18.4246 9.27987 17.6668 5.17395 12.4346 4.30371Z" fill="white"/>
  </g>
  <defs>
    <clipPath id="clip0_797_4401">
      <rect width="208.972" height="30.4913" fill="white"/>
    </clipPath>
  </defs>
</svg>
