<svg viewBox="0 0 101 16" fill="none" xmlns="http://www.w3.org/2000/svg">
  <path d="M2.26161 13.9736C0.753869 12.6248 2.77105e-07 10.6336 2.77105e-07 8.00001C-0.000533057 5.36694 0.768802 3.37574 2.30801 2.02641C3.84508 0.677611 5.94748 0.00294441 8.61522 0.00241107C9.72189 0.00187774 10.7011 0.083211 11.5528 0.246411C12.402 0.406992 13.2247 0.685416 13.9968 1.07361V5.34481C12.7867 4.74054 11.4134 4.43841 9.87682 4.43841C8.52215 4.43841 7.52242 4.70774 6.87761 5.24641C6.23175 5.78614 5.90908 6.70401 5.90961 8.00001C5.90908 9.25334 6.22695 10.16 6.86322 10.72C7.49788 11.2821 8.50322 11.5629 9.87922 11.5624C11.3352 11.5624 12.7192 11.2064 14.0312 10.4944V14.9624C12.5752 15.6531 10.76 15.9981 8.58562 15.9976C5.87521 15.9976 3.76961 15.3224 2.26161 13.9736ZM15.344 7.99761C15.344 5.38587 16.0515 3.39974 17.4664 2.03921C18.8819 0.679211 21.0152 -0.000522258 23.8665 1.10751e-05C26.7385 1.10751e-05 28.8849 0.680011 30.3129 2.03921C31.7369 3.39868 32.4491 5.38481 32.4497 7.99761C32.4497 13.3288 29.5883 15.9947 23.8657 15.9952C18.1846 15.9973 15.344 13.3315 15.344 7.99761ZM25.9137 10.72C26.3329 10.1573 26.5425 9.25067 26.5425 8.00001C26.5425 6.76961 26.3329 5.86827 25.9137 5.29601C25.4934 4.72374 24.8107 4.43761 23.8657 4.43761C22.943 4.43867 22.2763 4.72481 21.8656 5.29601C21.456 5.86827 21.2512 6.76961 21.2512 8.00001C21.2512 9.25334 21.456 10.16 21.8656 10.72C22.2752 11.2821 22.9419 11.5629 23.8657 11.5624C24.8097 11.5613 25.4923 11.2805 25.9137 10.72ZM33.7961 0.323211H39.2097L39.3641 1.48961C39.9593 1.05761 40.718 0.701344 41.6401 0.420811C42.568 0.140355 43.5323 -0.00144332 44.5017 1.10751e-05C46.3268 1.10751e-05 47.6601 0.475211 48.5017 1.42561C49.3425 2.37601 49.7625 3.84161 49.7625 5.82961V15.6736H43.9801V6.44401C43.9801 5.75281 43.8313 5.25627 43.5337 4.95441C43.2361 4.65041 42.7377 4.50241 42.0401 4.50241C41.6102 4.50241 41.1694 4.60507 40.7177 4.81041C40.291 5.00026 39.9044 5.26959 39.5785 5.60401V15.6736H33.7961V0.323211ZM49.7793 0.324011H55.8081L58.5769 9.32561L61.3465 0.324011H67.3754L61.6217 15.6736H55.5297L49.7793 0.324011ZM69.1954 14.3536C67.4585 12.9824 66.6457 10.6016 66.6457 8.03121C66.6457 5.52721 67.2921 3.46481 68.769 2.03921C70.2458 0.613611 72.4946 1.10751e-05 75.3346 1.10751e-05C77.9468 1.10751e-05 80.0028 0.636811 81.5026 1.91041C83.0012 3.18508 83.7508 4.92294 83.7514 7.12401V9.81361H72.7554C73.029 10.612 73.3754 11.1896 74.2266 11.5464C75.0788 11.9037 76.2655 12.0819 77.7866 12.0808C78.6948 12.0808 79.6202 12.0056 80.5626 11.8552C80.8946 11.8008 81.441 11.716 81.729 11.652V15.384C80.2922 15.7944 78.377 16 76.217 16C73.3114 15.9976 70.933 15.7256 69.1954 14.3536ZM77.6762 6.51041C77.6762 5.75041 76.8442 4.11441 75.173 4.11441C73.6658 4.11441 72.6698 5.72481 72.6698 6.51041H77.6762Z" fill="white" fill-opacity="0.7"/>
  <path d="M88.2919 7.86804L82.8774 0.323242H89.1527L100.227 15.6728H93.8911L91.4295 12.2392L88.9671 15.6728H82.6606L88.2919 7.86804ZM93.7519 0.323242H99.9983L95.2039 7.04324L92.0319 2.73684L93.7519 0.323242Z" fill="white" fill-opacity="0.7"/>
</svg>
