<svg viewBox="0 0 578 160" fill="none" xmlns="http://www.w3.org/2000/svg">
  <g clip-path="url(#clip0_1096_22493)">
    <path d="M113.924 43.4713C114.514 43.5601 114.788 44.2533 114.417 44.7211L109.971 50.3384C104.659 57.0498 101.769 65.3586 101.769 73.9179L101.769 76.7508C101.769 77.3495 101.422 77.894 100.88 78.1472L99.0875 78.9835C91.9945 82.2932 86.2932 87.9946 82.9826 95.0884L82.1462 96.8805C81.8931 97.423 81.3486 97.7697 80.7499 97.7697L77.917 97.7697C69.3577 97.7697 61.0489 100.66 54.3375 105.972L48.7211 110.418C48.2533 110.788 47.5601 110.514 47.4712 109.924L43.8959 86.1888C41.7299 71.8091 36.6413 58.0254 28.9438 45.6877V45.6877C28.257 44.5868 28.4204 43.1578 29.3378 42.2403L46.2403 25.3379C47.1577 24.4204 48.5868 24.2571 49.6877 24.9439V24.9439C62.0254 32.6413 75.8091 37.7299 90.1888 39.8959L113.924 43.4713Z" fill="white"/>
    <path d="M77.9187 106.141C78.2712 106.141 78.5602 106.421 78.5721 106.773L78.7165 111.056C79.0012 119.445 79.2845 127.835 79.5677 136.225C79.6187 137.737 77.6883 138.409 76.7888 137.193C72.9264 131.971 69.0638 126.748 65.2 121.527L59.3843 113.663C59.1221 113.309 59.1884 112.81 59.5342 112.537V112.537C61.8311 110.719 64.383 109.261 67.0889 108.2C67.8166 107.914 68.557 107.656 69.3066 107.429C72.0862 106.582 74.9915 106.141 77.9187 106.141V106.141Z" fill="white"/>
    <path d="M111.43 75.0052L111.43 74.9979L111.178 74.9894C110.6 74.9698 110.142 74.4958 110.142 73.9178V73.9178C110.142 70.9906 110.583 68.0853 111.43 65.3057C111.657 64.5561 111.914 63.8166 112.2 63.0889L112.202 63.0871C113.085 60.8358 114.342 58.565 115.785 56.5432C116.269 55.8666 117.212 55.7436 117.88 56.2381L127.003 62.986C131.6 66.3872 136.197 69.7873 140.794 73.1876C142.01 74.0871 141.338 76.0175 139.826 75.9665C130.36 75.6467 120.895 75.3263 111.43 75.0052Z" fill="white"/>
    <path d="M106.695 84.6736C107.44 84.3256 108.328 84.6247 108.71 85.3531C115.089 97.4903 121.468 109.628 127.847 121.765C128.55 123.104 127.105 124.55 125.766 123.846C121.037 121.361 116.307 118.875 111.578 116.39L89.3531 104.71C88.6247 104.328 88.3256 103.44 88.6736 102.695L90.571 98.6295C91.8051 95.9856 93.4754 93.5994 95.5374 91.5374C97.5994 89.4755 99.9864 87.8043 102.629 86.5711L106.695 84.6736Z" fill="white"/>
  </g>
  <path d="M198.64 142.84C179.74 142.84 168.12 133.6 166.72 118.9H180.86C181.7 126.6 188 131.5 198.92 131.5C210.96 131.5 217.68 125.62 217.68 112.46V100.28C212.64 108.82 205.08 113.58 194.86 113.58C177.92 113.58 164.76 100.84 164.76 78.16C164.76 55.34 177.92 42.6 194.86 42.6C205.08 42.6 212.78 47.5 217.82 56.18V44H231.96V111.62C231.96 131.5 219.64 142.84 198.64 142.84ZM179.46 79.98C179.46 93.98 186.88 101.68 198.64 101.68C210.68 101.68 217.68 93.56 217.68 80.96V75.36C217.68 62.48 210.68 54.22 198.64 54.22C186.88 54.22 179.46 62.06 179.46 76.34V79.98ZM241.394 114V44H255.394V56.04C259.734 46.38 266.594 43.3 275.134 43.3H277.934V57.44H269.114C260.014 57.44 255.674 61.64 255.674 71.72V114H241.394ZM312.971 115.4C292.251 115.4 278.111 101.12 278.111 79C278.111 56.88 292.251 42.6 312.411 42.6C331.731 42.6 344.891 55.62 344.891 79V83.06H292.811C292.951 96.08 301.071 103.78 312.971 103.78C322.491 103.78 327.951 98.74 329.631 92.72H343.771C340.971 106.02 329.771 115.4 312.971 115.4ZM292.811 72.56H330.331C330.331 61.22 322.911 54.22 312.131 54.22C301.491 54.22 293.651 60.94 292.811 72.56ZM350.916 142V44H364.916V56.74C369.956 47.64 377.656 42.6 388.156 42.6C405.096 42.6 417.976 55.48 417.976 79C417.976 102.52 405.096 115.4 388.156 115.4C377.796 115.4 370.236 110.5 365.196 101.82V142H350.916ZM365.196 82.36C365.196 95.24 372.056 103.64 384.096 103.64C395.856 103.64 403.416 95.8 403.416 80.96V77.18C403.416 62.06 395.856 54.08 384.096 54.08C372.056 54.08 365.196 62.62 365.196 75.78V82.36ZM443.706 114C430.826 114 426.206 108.54 426.206 97.06V56.32H416.826V44H426.206V26.5L440.486 24.4V44H454.346V56.32H440.486V95.66C440.486 100.56 441.886 101.68 446.506 101.68H454.346V114H443.706ZM459.892 114V44H474.172V114H459.892ZM459.332 31.68H474.592V16.56H459.332V31.68ZM483.687 114V13.9H497.967V101.96H504.547V114H483.687ZM541.729 115.4C521.009 115.4 506.869 101.12 506.869 79C506.869 56.88 521.009 42.6 541.169 42.6C560.489 42.6 573.649 55.62 573.649 79V83.06H521.569C521.709 96.08 529.829 103.78 541.729 103.78C551.249 103.78 556.709 98.74 558.389 92.72H572.529C569.729 106.02 558.529 115.4 541.729 115.4ZM521.569 72.56H559.089C559.089 61.22 551.669 54.22 540.889 54.22C530.249 54.22 522.409 60.94 521.569 72.56Z" fill="white"/>
  <defs>
    <clipPath id="clip0_1096_22493">
      <rect width="160" height="160" fill="white"/>
    </clipPath>
  </defs>
</svg>
