<svg viewBox="0 0 132 20" fill="none" xmlns="http://www.w3.org/2000/svg">
  <g clip-path="url(#clip0_797_4472)">
    <path d="M0 0.695312H3.76943V5.69089H8.06925V0.695312H11.8199V13.7778H8.06925V8.61845H3.76943V13.7778H0V0.695312Z" fill="white" fill-opacity="0.7"/>
    <path d="M13.4087 11.1244C13.4087 8.87436 15.3119 7.99556 18.4953 7.99556H19.4105V7.77612C19.4105 6.862 19.191 6.25722 18.1479 6.25722C17.2514 6.25722 16.9218 6.78814 16.849 7.39185H13.7748C13.9214 5.0862 15.7325 3.95264 18.3491 3.95264C20.9839 3.95264 22.6672 5.03161 22.6672 7.57489V13.7779H19.4838V12.6615C19.0262 13.3572 18.1843 13.9973 16.6477 13.9973C14.9276 13.9973 13.4087 13.156 13.4087 11.1244ZM19.4105 10.4297V9.84415H18.5504C17.2332 9.84415 16.6477 10.1 16.6477 10.8867C16.6477 11.4358 17.0133 11.7837 17.7818 11.7837C18.7152 11.7837 19.4105 11.2528 19.4105 10.4297Z" fill="white" fill-opacity="0.7"/>
    <path d="M24.5312 4.20846H27.8067V5.74557C28.3189 4.75758 29.3615 3.95264 30.9537 3.95264C32.8017 3.95264 34.0825 5.10546 34.0825 7.55669V13.7779H30.807V8.21606C30.807 7.13602 30.3864 6.6051 29.4348 6.6051C28.465 6.6051 27.8067 7.19061 27.8067 8.4173V13.7779H24.5312V4.20846Z" fill="white" fill-opacity="0.7"/>
    <path d="M35.4702 9.09416V8.94752C35.4702 5.69134 37.2631 3.95301 39.5324 3.95301C41.0326 3.95301 41.929 4.59311 42.4782 5.5629V0H45.7531V13.7783H42.4782V12.223C42.0024 13.2109 40.9411 13.9977 39.4955 13.9977C37.2819 13.9977 35.4702 12.406 35.4702 9.09416ZM42.5697 9.03957V8.89293C42.5697 7.28304 41.8926 6.42243 40.6847 6.42243C39.4591 6.42243 38.8002 7.24664 38.8002 8.91112V9.05777C38.8002 10.6677 39.5137 11.4908 40.6483 11.4908C41.8375 11.4908 42.5697 10.6677 42.5697 9.03957Z" fill="white" fill-opacity="0.7"/>
    <path d="M47.0498 10.7401H50.0689C50.1786 11.4358 50.4901 11.8201 51.4229 11.8201C52.2279 11.8201 52.594 11.5086 52.594 11.0334C52.594 10.5763 52.1369 10.3558 50.8192 10.1738C48.2578 9.84415 47.1783 9.0938 47.1783 7.09963C47.1783 4.97701 49.0627 3.95264 51.2768 3.95264C53.6371 3.95264 55.2839 4.75758 55.5033 7.04504H52.5394C52.4109 6.40386 52.0636 6.09345 51.3132 6.09345C50.5998 6.09345 50.2337 6.40386 50.2337 6.84273C50.2337 7.30086 50.6726 7.4839 51.8436 7.62948C54.4972 7.95917 55.7779 8.65493 55.7779 10.7037C55.7779 12.9729 54.0947 13.9973 51.4411 13.9973C48.7148 13.9973 47.1231 12.8627 47.0498 10.7401Z" fill="white" fill-opacity="0.7"/>
    <path d="M56.6909 9.11199V8.96534C56.6909 5.89221 58.9778 3.95264 61.9418 3.95264C64.8881 3.95264 67.1568 5.83655 67.1568 8.87436V9.021C67.1568 12.1316 64.8693 13.9973 61.9236 13.9973C58.9778 13.9973 56.6909 12.2044 56.6909 9.11199ZM63.8268 9.0574V8.91075C63.8268 7.30086 63.1861 6.40387 61.9418 6.40387C60.7162 6.40387 60.0391 7.26447 60.0391 8.87436V9.02101C60.0391 10.6673 60.6798 11.5643 61.9418 11.5643C63.1679 11.5643 63.8268 10.6491 63.8268 9.0574Z" fill="white" fill-opacity="0.7"/>
    <path d="M68.582 4.20846H71.8575V5.74557C72.3697 4.75758 73.4122 3.95264 75.0045 3.95264C76.8525 3.95264 78.1333 5.10546 78.1333 7.55669V13.7779H74.8578V8.21606C74.8578 7.13602 74.4371 6.6051 73.4856 6.6051C72.5158 6.6051 71.8575 7.19061 71.8575 8.4173V13.7779H68.582V4.20846Z" fill="white" fill-opacity="0.7"/>
    <path d="M80.4355 10.7037V6.44031H79.2832V4.20852H80.4355V2.21436H83.7109V4.20852H85.5954V6.44031H83.7109V10.3933C83.7109 11.088 84.0588 11.3995 84.6807 11.3995C84.9995 11.4049 85.3164 11.3489 85.6141 11.2347V13.7234C85.0251 13.8948 84.4158 13.9869 83.8025 13.9974C81.6434 13.9974 80.4355 12.9548 80.4355 10.7037Z" fill="white" fill-opacity="0.7"/>
    <path d="M86.5635 11.1244C86.5635 8.87436 88.4667 7.99556 91.65 7.99556H92.5652V7.77612C92.5652 6.862 92.3458 6.25722 91.3027 6.25722C90.4062 6.25722 90.0765 6.78814 90.0038 7.39185H86.9296C87.0762 5.0862 88.8873 3.95264 91.5039 3.95264C94.1387 3.95264 95.822 5.03161 95.822 7.57489V13.7779H92.6386V12.6615C92.181 13.3572 91.3391 13.9973 89.8025 13.9973C88.0824 13.9973 86.5635 13.156 86.5635 11.1244ZM92.5652 10.4297V9.84415H91.7052C90.388 9.84415 89.8025 10.1 89.8025 10.8867C89.8025 11.4358 90.1681 11.7837 90.9366 11.7837C91.87 11.7837 92.5652 11.2528 92.5652 10.4297Z" fill="white" fill-opacity="0.7"/>
    <path d="M100.961 12.2957V13.7783H97.686V0H100.961V5.63568C101.263 5.11485 101.699 4.68422 102.223 4.38837C102.748 4.09251 103.342 3.94221 103.944 3.953C106.176 3.953 107.988 5.63568 107.988 8.91112V9.05777C107.988 12.3514 106.176 13.9977 103.925 13.9977C102.498 13.9977 101.437 13.3212 100.961 12.2957ZM104.657 9.05777V8.91112C104.657 7.22738 103.925 6.42243 102.773 6.42243C101.583 6.42243 100.87 7.28304 100.87 8.89293V9.03957C100.87 10.6677 101.583 11.4908 102.773 11.4908C103.999 11.4908 104.657 10.6313 104.657 9.05777Z" fill="white" fill-opacity="0.7"/>
    <path d="M109.541 0H112.797V13.7783H109.541V0Z" fill="white" fill-opacity="0.7"/>
    <path d="M114.315 9.11199V8.96534C114.315 5.89221 116.602 3.95264 119.493 3.95264C122.11 3.95264 124.36 5.45228 124.36 8.89256V9.75209H117.627C117.718 11.0152 118.45 11.7473 119.621 11.7473C120.7 11.7473 121.158 11.2528 121.286 10.6127H124.36C124.067 12.7717 122.402 13.9973 119.511 13.9973C116.51 13.9973 114.315 12.2408 114.315 9.11199ZM121.176 7.90457C121.121 6.75175 120.554 6.11164 119.493 6.11164C118.505 6.11164 117.828 6.75175 117.663 7.90457H121.176Z" fill="white" fill-opacity="0.7"/>
    <path d="M125.814 14.4131H131.337V19.9361H125.814V14.4131Z" fill="white" fill-opacity="0.7"/>
  </g>
  <defs>
    <clipPath id="clip0_797_4472">
      <rect width="131.337" height="19.9365" fill="white"/>
    </clipPath>
  </defs>
</svg>
