<svg viewBox="0 0 110 24" fill="none" xmlns="http://www.w3.org/2000/svg">
  <g clip-path="url(#clip0_797_4442)">
    <path d="M31.9237 14.9817C31.9237 15.294 31.8576 15.5697 31.7254 15.8122C31.5986 16.0506 31.4042 16.2463 31.1666 16.3748C30.9241 16.5069 30.652 16.5734 30.3397 16.5734H28.792V18.8265H30.6668C31.3726 18.8265 32.0045 18.6685 32.5671 18.3522C33.1296 18.0358 33.5707 17.5988 33.8904 17.0436C34.21 16.4888 34.3721 15.8639 34.3721 15.1655V7.75859H31.9237V14.9817ZM38.5148 14.3088H43.6424V12.2394H38.5148V9.89067H44.1828V7.75859H36.1291V18.8228H44.3408V16.6907H38.5148V14.3124V14.3088ZM45.1093 9.95305H48.3879V18.8195H50.8363V9.95305H54.1001V7.75859H45.1056V9.95675L45.1093 9.95305ZM62.4664 13.2759C62.2703 13.173 62.0631 13.0929 61.8488 13.0371C62.0109 12.9916 62.1684 12.9313 62.3195 12.857C62.724 12.6473 63.0437 12.3535 63.2715 11.9748C63.4996 11.596 63.617 11.1627 63.617 10.6699C63.617 10.1073 63.4627 9.60386 63.1578 9.15906C62.8525 8.71795 62.4225 8.37245 61.871 8.12255C61.3195 7.87634 60.6876 7.75121 59.9818 7.75121H55.0669V18.8154H60.0774C60.8197 18.8154 61.4816 18.687 62.0659 18.426C62.6465 18.165 63.0987 17.8048 63.4224 17.3378C63.7421 16.8746 63.9038 16.3452 63.9038 15.7498C63.9038 15.202 63.779 14.7133 63.525 14.2796C63.2766 13.8501 62.9106 13.5006 62.4701 13.2722L62.4664 13.2759ZM57.4451 9.61493H59.6178C59.919 9.61493 60.1837 9.6703 60.4155 9.77661C60.6371 9.87478 60.825 10.0359 60.9559 10.2399C61.0844 10.4381 61.1505 10.6736 61.1505 10.9419C61.1505 11.2103 61.0844 11.4639 60.9559 11.6732C60.8271 11.8829 60.647 12.0408 60.4155 12.1549C60.1837 12.269 59.919 12.324 59.6178 12.324H57.4451V9.61087V9.61493ZM61.1874 16.3087C61.0478 16.518 60.8492 16.68 60.5957 16.7937C60.3384 16.9078 60.0479 16.9628 59.7134 16.9628H57.4451V14.1253H59.7134C60.0405 14.1253 60.331 14.1877 60.5883 14.3088C60.8419 14.4302 61.0441 14.5993 61.1837 14.82C61.3232 15.0407 61.397 15.2903 61.397 15.5734C61.397 15.8565 61.3269 16.099 61.1874 16.3087ZM72.1121 14.3494C72.7259 14.0552 73.1999 13.6399 73.5384 13.1069C73.8765 12.5739 74.0456 11.9563 74.0456 11.2505C74.0456 10.5448 73.8802 9.94936 73.5494 9.42003C73.2183 8.8907 72.7481 8.48245 72.1416 8.19232C71.5347 7.90181 70.8327 7.75859 70.0313 7.75859H65.1869V18.8228H67.6386V14.7942H69.234L71.4797 18.8228H74.277L71.7481 14.4966C71.8732 14.4523 71.998 14.4044 72.1158 14.3494H72.1121ZM71.3181 12.0888C71.1819 12.3217 70.9781 12.5076 70.7337 12.6218C70.4798 12.7466 70.1823 12.809 69.8405 12.809H67.6349V9.74708H69.8405C70.1823 9.74708 70.4798 9.80983 70.7337 9.93091C70.9771 10.0449 71.1807 10.2293 71.3181 10.4602C71.4539 10.6884 71.524 10.9604 71.524 11.2686C71.524 11.5776 71.4539 11.8496 71.3181 12.0814V12.0888ZM78.9199 7.75859L74.968 18.8228H77.4567L78.2396 16.3821H82.3421L83.18 18.8228H85.6207L81.5735 7.75859H78.9199ZM78.7948 14.5295L80.0664 10.6256L80.2174 9.91614L80.368 10.6256L81.7282 14.5295H78.7948ZM86.4331 18.8228H88.962V7.75859H86.4331V18.8228ZM97.8834 15.2423L93.1232 7.75859H90.7375V18.8228H92.9726V11.3388L97.707 18.8228H100.119V7.75859H97.8834V15.2423ZM109.521 14.0039C109.282 13.5443 108.944 13.1586 108.514 12.8459C108.084 12.5336 107.588 12.3277 107.029 12.221L105.147 11.8352C104.853 11.7651 104.618 11.644 104.445 11.4676C104.272 11.2911 104.184 11.0704 104.184 10.8094C104.184 10.5706 104.246 10.3646 104.375 10.1882C104.5 10.0117 104.68 9.87591 104.908 9.77661C105.136 9.67732 105.401 9.6297 105.702 9.6297C106.004 9.6297 106.276 9.68101 106.507 9.78399C106.738 9.88698 106.919 10.0302 107.047 10.2177C107.176 10.4052 107.242 10.6145 107.242 10.8537H109.694C109.679 10.2103 109.499 9.6404 109.161 9.14799C108.823 8.65188 108.349 8.26577 107.746 7.98634C107.143 7.70691 106.452 7.56738 105.68 7.56738C104.908 7.56738 104.224 7.7106 103.625 8.00111C103.026 8.29161 102.555 8.69211 102.221 9.20668C101.887 9.72161 101.718 10.3059 101.718 10.9637C101.718 11.4967 101.824 11.9785 102.041 12.4048C102.254 12.8307 102.568 13.1979 102.956 13.4745C103.353 13.7577 103.809 13.9559 104.331 14.0662L106.323 14.4778C106.65 14.5553 106.908 14.6986 107.099 14.9045C107.29 15.1101 107.382 15.3637 107.382 15.6723C107.385 15.9108 107.311 16.144 107.173 16.3379C107.033 16.5328 106.838 16.6834 106.588 16.79C106.338 16.8967 106.044 16.948 105.706 16.948C105.368 16.948 105.048 16.8893 104.772 16.7716C104.496 16.6542 104.283 16.4851 104.132 16.2644C103.978 16.0477 103.905 15.7938 103.905 15.511H101.453C101.464 16.202 101.647 16.8085 102.011 17.3378C102.372 17.8635 102.868 18.2754 103.5 18.5692C104.132 18.8634 104.857 19.0103 105.673 19.0103C106.489 19.0103 107.224 18.8597 107.856 18.5582C108.492 18.2569 108.985 17.8413 109.341 17.312C109.698 16.7827 109.874 16.1836 109.874 15.5143C109.874 14.9669 109.753 14.4634 109.514 14.0002L109.521 14.0039Z" fill="white" fill-opacity="0.7"/>
    <path d="M21.7783 0C22.7971 0 23.624 0.826911 23.624 1.8457V12.8525C23.624 14.078 23.1371 15.2525 22.2734 16.1162L16.1162 22.2734C15.2488 23.1371 14.078 23.624 12.8525 23.624H1.8457C0.826911 23.624 0 22.7971 0 21.7783V10.7715C-6.59844e-05 9.54774 0.485521 8.37338 1.35059 7.50781L7.50781 1.35059C8.37525 0.486883 9.54602 0 10.7715 0H21.7783ZM2.95312 20.6709H17.7178V5.90625H2.95312V20.6709Z" fill="white" fill-opacity="0.7"/>
    <path d="M11.074 17.3491H4.79883V18.8256H11.074V17.3491Z" fill="white" fill-opacity="0.7"/>
  </g>
  <defs>
    <clipPath id="clip0_797_4442">
      <rect width="110" height="23.6242" fill="white"/>
    </clipPath>
  </defs>
</svg>
