<svg viewBox="0 0 90 30" fill="none" xmlns="http://www.w3.org/2000/svg">
  <g clip-path="url(#clip0_797_4506)">
    <mask id="mask0_797_4506" style="mask-type:luminance" maskUnits="userSpaceOnUse" x="40" y="9" width="50" height="11">
      <path d="M90 9.97461H40.8247V19.253H90V9.97461Z" fill="white"/>
    </mask>
    <g mask="url(#mask0_797_4506)">
      <path d="M49.68 9.97461L45.2528 14.3904L40.8256 9.97461H40.8247V19.253H42.3949V13.7544L45.2537 16.6059L46.3638 15.4986L46.3629 15.4977L48.1119 13.7531V19.253H49.6823L49.68 9.97461Z" fill="white" fill-opacity="0.7"/>
      <path d="M89.7889 9.97461L85.3617 14.3904L80.9345 9.97461H80.9336V19.253H82.504V13.7544L85.3626 16.6059L86.4728 15.4986L86.4718 15.4977L88.2213 13.7531V19.253H89.7912L89.7889 9.97461Z" fill="white" fill-opacity="0.7"/>
      <path fill-rule="evenodd" clip-rule="evenodd" d="M60.5568 14.6138C60.5568 17.1759 58.4738 19.253 55.9046 19.253C53.335 19.253 51.2524 17.1759 51.2524 14.6138C51.2524 12.0516 53.335 9.97461 55.9046 9.97461C58.4738 9.97461 60.5568 12.0516 60.5568 14.6138ZM58.9864 14.6138C58.9864 16.3112 57.6067 17.6872 55.9046 17.6872C54.202 17.6872 52.8223 16.3112 52.8223 14.6138C52.8223 12.9164 54.202 11.5404 55.9046 11.5404C57.6067 11.5404 58.9864 12.9164 58.9864 14.6138Z" fill="white" fill-opacity="0.7"/>
      <path d="M75.0246 9.97461L79.3636 19.2529H77.6309L75.0246 13.6792L72.4183 19.2529H70.6855L75.0246 9.97461Z" fill="white" fill-opacity="0.7"/>
      <path d="M63.2549 11.5404V9.97461H69.1156V17.2104C68.2791 18.4428 66.8646 19.253 65.2599 19.253C64.0547 19.253 62.9561 18.7958 62.1299 18.0458L63.2419 16.9367C63.7828 17.4042 64.4884 17.6872 65.2599 17.6872C66.1664 17.6872 66.9815 17.297 67.5457 16.676V11.5404H63.2549Z" fill="white" fill-opacity="0.7"/>
    </g>
    <path d="M29.6904 0V29.6904H0V0H29.6904ZM9.27832 20.6904H11.2881V13.6523L14.9482 17.3027L16.3691 15.8848L16.3672 15.8838L18.6064 13.6514V20.6904H20.6162L20.6133 8.81445L14.9463 14.4668L9.28027 8.81445H9.27832V20.6904Z" fill="white" fill-opacity="0.7"/>
  </g>
  <defs>
    <clipPath id="clip0_797_4506">
      <rect width="90" height="29.6907" fill="white"/>
    </clipPath>
  </defs>
</svg>
