<svg viewBox="0 0 63 20" fill="none" xmlns="http://www.w3.org/2000/svg">
  <g clip-path="url(#clip0_797_4449)">
    <path d="M38.777 3.64595C38.1092 3.64595 37.568 3.10467 37.568 2.43695C37.568 1.76924 38.1092 1.22795 38.777 1.22795C39.4447 1.22795 39.986 1.76924 39.986 2.43695C39.986 3.10467 39.4447 3.64595 38.777 3.64595ZM38.777 0C37.4311 0 36.3401 1.09106 36.3401 2.43695V9.74988C36.3401 12.4387 34.1526 14.6262 31.4638 14.6262C28.7751 14.6262 26.5877 12.4387 26.5877 9.74988V2.43695C26.5877 1.09106 25.4966 0 24.1507 0C22.8049 0 21.7139 1.09106 21.7139 2.43695V9.74988C21.7139 15.1262 26.0877 19.5 31.4638 19.5C36.84 19.5 41.2139 15.1262 41.2139 9.74988V2.43695C41.2139 1.09106 40.1228 0 38.777 0Z" fill="white" fill-opacity="0.7"/>
    <path d="M59.963 18.2719C59.2952 18.2719 58.754 17.7306 58.754 17.0629C58.754 16.3952 59.2952 15.8539 59.963 15.8539C60.6307 15.8539 61.172 16.3952 61.172 17.0629C61.172 17.7306 60.6307 18.2719 59.963 18.2719ZM49.2035 9.75006L43.6137 15.3399C42.662 16.2916 42.662 17.8346 43.6137 18.7862C44.5653 19.7379 46.1084 19.7379 47.0601 18.7862L52.6499 13.1964L58.2397 18.7862C59.1914 19.7378 60.7344 19.7379 61.6861 18.7862C62.6378 17.8346 62.6378 16.2916 61.6861 15.3399L56.0963 9.75006L56.0963 9.7499L61.6861 4.16007C62.6378 3.20839 62.6378 1.66544 61.6861 0.713759C60.7345 -0.23792 59.1914 -0.23792 58.2398 0.713759L52.6499 6.30355L47.0601 0.713759C46.1084 -0.23788 44.5654 -0.23792 43.6137 0.713759C42.662 1.66544 42.662 3.20839 43.6137 4.16007L49.2035 9.7499V9.75006Z" fill="white" fill-opacity="0.7"/>
    <path d="M17.0625 18.2723C16.3948 18.2723 15.8535 17.731 15.8535 17.0633C15.8535 16.3956 16.3948 15.8543 17.0625 15.8543C17.7302 15.8543 18.2715 16.3956 18.2715 17.0633C18.2715 17.731 17.7302 18.2723 17.0625 18.2723ZM17.9952 0.185593C17.0846 -0.191615 16.0364 0.0168402 15.3394 0.713809L9.74951 6.30364L4.15964 0.713809C3.46267 0.0168402 2.41451 -0.191615 1.5039 0.185593C0.593287 0.562762 -0.000488281 1.45134 -0.000488281 2.43702V17.063C-0.000488281 18.4089 1.09061 19.5 2.4365 19.5C3.78239 19.5 4.87346 18.4089 4.87346 17.063V8.32029L8.02634 11.4732C8.97809 12.4249 10.521 12.4249 11.4727 11.4732L14.6256 8.32029V17.063C14.6256 18.4089 15.7167 19.5 17.0626 19.5C18.4084 19.5 19.4995 18.4089 19.4995 17.063V2.43702C19.4995 1.45134 18.9058 0.562762 17.9952 0.185593Z" fill="white" fill-opacity="0.7"/>
  </g>
  <defs>
    <clipPath id="clip0_797_4449">
      <rect width="62.4" height="19.5" fill="white"/>
    </clipPath>
  </defs>
</svg>
