<svg viewBox="0 0 132 33" fill="none" xmlns="http://www.w3.org/2000/svg">
  <g clip-path="url(#clip0_797_4390)">
    <path d="M27.5611 32.85H45.8225C46.4012 32.8494 46.9697 32.6975 47.4716 32.4094C47.9735 32.1213 48.3913 31.707 48.6837 31.2075C48.9734 30.7085 49.1258 30.1418 49.1255 29.5648C49.1252 28.9878 48.9722 28.4212 48.682 27.9225L36.4175 6.80489C36.1272 6.30367 35.7098 5.88789 35.2074 5.59951C34.705 5.31113 34.1355 5.16036 33.5563 5.16239C32.9775 5.16284 32.409 5.31467 31.907 5.6028C31.4051 5.89093 30.9873 6.30535 30.695 6.80489L27.5595 12.2087L21.428 1.64252C21.1376 1.1414 20.7201 0.725718 20.2178 0.437356C19.7155 0.148993 19.146 -0.00185454 18.5668 1.72088e-05C17.9881 0.000628192 17.4196 0.152525 16.9177 0.440641C16.4158 0.728758 15.9979 1.14308 15.7056 1.64252L0.443465 27.9225C0.225791 28.2958 0.0843074 28.7086 0.0272004 29.137C-0.0299067 29.5653 -0.00150348 30.0008 0.110767 30.4181C0.223037 30.8354 0.416945 31.2263 0.681272 31.5682C0.945599 31.91 1.2751 32.1961 1.6507 32.4098C2.15331 32.6973 2.72325 32.8484 3.30306 32.8484H14.7677C19.3092 32.8484 22.6583 30.8659 24.9627 26.9961L30.5587 17.3629L33.5563 12.2071L42.5506 27.6942H30.5587L27.5595 32.8484L27.5611 32.85ZM14.5805 27.6876H6.58149L18.5717 7.04142L24.5554 17.3629L20.5493 24.263C19.0185 26.7728 17.2807 27.6876 14.5805 27.6876ZM72.7726 32.5609V27.8897H61.4459V7.39619H56.0684V32.5609H72.7726ZM82.8132 32.85C84.914 32.85 86.8012 31.9861 87.6914 30.6556V32.5609H92.6781V14.4442H87.6914V16.2411C86.6944 14.9829 84.914 14.1551 82.7409 14.1551C77.5063 14.1551 74.3363 17.8589 74.3363 23.5009C74.3363 29.1462 77.5079 32.85 82.8132 32.85ZM83.5967 28.5352C80.9605 28.5352 79.2161 26.5215 79.2161 23.5026C79.2161 20.4475 80.9605 18.4338 83.5967 18.4338C86.2674 18.4338 88.0117 20.4459 88.0117 23.5026C88.0117 26.5215 86.2674 28.5352 83.5967 28.5352ZM106.761 32.85C112.066 32.85 115.345 29.1462 115.345 23.5026C115.345 17.8589 112.068 14.1567 106.831 14.1567C104.588 14.1567 102.843 15.0174 101.846 16.3478V6.57002H96.896V32.5609H101.846V30.585C102.843 31.9861 104.695 32.85 106.761 32.85ZM105.977 28.5352C103.307 28.5352 101.561 26.5215 101.561 23.5026C101.561 20.4475 103.307 18.4338 105.977 18.4338C108.577 18.4338 110.358 20.4459 110.358 23.5026C110.358 26.5215 108.577 28.5352 105.977 28.5352ZM124.414 32.85C128.616 32.85 131.395 30.5834 131.395 27.1341C131.395 18.938 121.565 23.1428 121.565 19.4406C121.565 18.2909 122.526 17.6782 123.915 17.6782C125.269 17.6782 126.658 18.5061 126.872 20.0517H131.182C131.003 16.4924 128.082 14.1551 123.774 14.1551C120.105 14.1551 117.363 16.4217 117.363 19.6197C117.363 27.2409 127.015 23.611 127.015 27.3131C127.015 28.32 125.947 29.0739 124.414 29.0739C122.562 29.0739 121.315 28.0671 121.138 26.4508H116.864C117.041 30.3682 120.034 32.85 124.414 32.85Z" fill="white"/>
  </g>
  <defs>
    <clipPath id="clip0_797_4390">
      <rect width="131.4" height="32.85" fill="white"/>
    </clipPath>
  </defs>
</svg>
