<svg viewBox="0 0 53 31" fill="none" xmlns="http://www.w3.org/2000/svg">
  <path d="M29.2015 18.65L24.0642 10.6105L24.0565 17.3654L15.2027 2.44238H8.97412V27.6347H15.1331L15.1532 12.7304L23.9156 26.9669L29.2015 18.65Z" fill="white" fill-opacity="0.7"/>
  <path d="M24.066 8.91832H30.2172L30.2311 8.84698V2.44238H24.0722L24.0645 8.84698L24.066 8.91832Z" fill="white" fill-opacity="0.7"/>
  <path d="M39.7237 15.903C38.2501 15.875 36.9187 16.7796 36.4004 18.1608C37.2633 16.8689 38.9063 16.3498 40.3536 16.9118C41.0223 17.1845 41.9015 17.6246 42.598 17.3891C41.9356 16.4584 40.8652 15.9049 39.7237 15.903Z" fill="white" fill-opacity="0.7"/>
  <path d="M46.7033 18.9343C46.7033 18.1796 46.2931 18.0045 45.4418 17.6946C44.8102 17.4746 44.0936 17.2266 43.5719 16.5447C43.4698 16.41 43.3754 16.2581 43.2747 16.0969C43.0494 15.6795 42.7438 15.3109 42.3755 15.0122C41.8786 14.6464 41.227 14.4683 40.3818 14.4683C38.686 14.4694 37.1583 15.4942 36.5122 17.0639C37.329 15.9292 38.6864 15.3144 40.0769 15.4494C41.4674 15.5844 42.6816 16.4488 43.2655 17.7194C43.5572 18.2013 44.1325 18.4314 44.6756 18.2834C45.5068 18.1053 45.4495 18.8925 46.7049 19.159L46.7033 18.9343Z" fill="white" fill-opacity="0.7"/>
  <path d="M49.4445 18.7728V18.7557C49.426 13.7597 45.3752 9.48584 40.3818 9.48584C37.3321 9.48373 34.4863 11.0192 32.8113 13.5706L32.7788 13.5148L30.2155 9.48584H24.0659L29.909 18.6472L24.2067 27.6351H30.1799L32.7788 23.6386L35.4241 27.6351H41.3988L35.9813 19.0998C35.8913 18.9334 35.8425 18.748 35.8389 18.5589C35.8385 17.3533 36.3167 16.1971 37.1681 15.3446C38.0196 14.4922 39.1746 14.0134 40.3787 14.0139C42.8894 14.0139 43.3088 15.517 43.8506 16.2236C44.9201 17.6183 47.0562 17.0077 47.0562 18.827C47.0626 19.2533 47.2956 19.6438 47.6676 19.8515C48.0395 20.0591 48.4938 20.0523 48.8594 19.8336C49.225 19.615 49.4463 19.2177 49.4399 18.7914V18.7728H49.4445Z" fill="white" fill-opacity="0.7"/>
  <path d="M49.4507 20.0591C49.5115 20.484 49.4514 20.9174 49.2774 21.3096C48.9369 22.0984 48.3688 21.835 48.3688 21.835C48.3688 21.835 47.8797 21.5964 48.1769 21.1392C48.5065 20.6294 49.1582 20.6883 49.4507 20.0591Z" fill="white" fill-opacity="0.7"/>
</svg>
