<svg width="99" height="35" viewBox="0 0 99 35" fill="none" xmlns="http://www.w3.org/2000/svg">
  <g clip-path="url(#clip0_797_4487)">
    <path d="M22.5879 2.18164H27.5963C30.4525 2.18164 32.4639 3.93151 32.4639 6.42569C32.4639 8.91984 30.4525 10.6698 27.5963 10.6698H24.9211V16.2614H22.5879V2.18164ZM27.5963 8.49748C29.1049 8.49748 30.1709 7.63251 30.1709 6.42569C30.1709 5.2188 29.1049 4.35394 27.5963 4.35394H24.9211V8.49748H27.5963Z" fill="white" fill-opacity="0.7"/>
    <path d="M33.0464 11.1928C33.0464 8.0751 35.1584 5.92285 37.9744 5.92285C39.2616 5.92285 40.2875 6.5263 41.0518 7.39122L41.2529 6.10393H43.2643V16.2615H41.0518V15.0547C40.3075 15.8793 39.3019 16.4828 37.9945 16.4828C35.1785 16.4828 33.0464 14.2903 33.0464 11.1928ZM38.1956 14.4311C39.9254 14.4311 41.1523 13.0834 41.1523 11.1928C41.1523 9.2819 39.9054 7.97457 38.1755 7.97457C36.4457 7.97457 35.2589 9.2819 35.2589 11.1928C35.2589 13.0834 36.4658 14.4311 38.1956 14.4311Z" fill="white" fill-opacity="0.7"/>
    <path d="M48.9159 7.81387C47.9907 7.87414 47.508 8.39718 47.508 8.83964C47.508 9.54364 48.1516 9.88556 49.9216 10.1873C51.8124 10.5091 53.341 11.3338 53.341 13.3653C53.341 15.1957 51.6715 16.483 49.1573 16.483C46.9648 16.483 45.4362 15.4974 44.7725 14.19L46.5022 13.1843C47.0454 13.9084 47.8499 14.3911 48.8556 14.4515C50.0625 14.5319 51.1285 14.2704 51.1285 13.305C51.1285 12.6412 50.3843 12.2389 48.735 11.9573C47.1057 11.6758 45.2552 10.7907 45.2552 8.79945C45.2552 7.10986 46.6833 5.94324 48.9159 5.8829C50.3843 5.84269 51.8124 6.28519 52.637 7.00931L51.6715 8.49779C50.8066 7.93449 49.9819 7.75352 48.9159 7.81387Z" fill="white" fill-opacity="0.7"/>
    <path d="M58.792 7.81387C57.8667 7.87414 57.384 8.39718 57.384 8.83964C57.384 9.54364 58.0276 9.88556 59.7976 10.1873C61.6884 10.5091 63.217 11.3338 63.217 13.3653C63.217 15.1957 61.5475 16.483 59.0333 16.483C56.8409 16.483 55.3122 15.4974 54.6484 14.19L56.3782 13.1843C56.9213 13.9084 57.7259 14.3911 58.7316 14.4515C59.9384 14.5319 61.0045 14.2704 61.0045 13.305C61.0045 12.6412 60.2603 12.2389 58.6109 11.9573C56.9817 11.6758 55.1312 10.7907 55.1312 8.79945C55.1312 7.10986 56.5593 5.94324 58.792 5.8829C60.2603 5.84269 61.6884 6.28519 62.513 7.00931L61.5475 8.49779C60.6826 7.93449 59.8579 7.75352 58.792 7.81387Z" fill="white" fill-opacity="0.7"/>
    <path d="M64.5239 11.1928C64.5239 8.0751 66.6359 5.92285 69.4519 5.92285C70.7392 5.92285 71.765 6.5263 72.5293 7.39122L72.7305 6.10393H74.7418V16.2615H72.5293V15.0547C71.7851 15.8793 70.7794 16.4828 69.472 16.4828C66.656 16.4828 64.5239 14.2903 64.5239 11.1928ZM69.6731 14.4311C71.4029 14.4311 72.6299 13.0834 72.6299 11.1928C72.6299 9.2819 71.3828 7.97457 69.653 7.97457C67.9231 7.97457 66.7365 9.2819 66.7365 11.1928C66.7365 13.0834 67.9433 14.4311 69.6731 14.4311Z" fill="white" fill-opacity="0.7"/>
    <path d="M76.4512 11.253C76.4512 8.13533 78.5837 5.94287 81.3994 5.94287C82.7072 5.94287 83.7125 6.46584 84.4567 7.2503V6.12388H86.6892V16.2815C86.6892 19.1377 84.4168 21.0686 81.3994 21.0686C79.3474 21.0686 77.3564 19.9422 76.5114 18.3733L78.2217 17.3475C78.9253 18.3532 80.1924 19.017 81.3994 19.017C83.1293 19.017 84.4567 17.9308 84.4567 16.4827V15.2154C83.7328 15.9597 82.7268 16.4827 81.4197 16.4827C78.6032 16.4827 76.4512 14.3506 76.4512 11.253ZM81.6003 14.4913C83.3302 14.4913 84.5575 13.1437 84.5575 11.253C84.5575 9.34221 83.3302 7.99447 81.6003 7.99447C79.8711 7.99447 78.6642 9.34221 78.6642 11.253C78.6642 13.1437 79.8711 14.4913 81.6003 14.4913Z" fill="white" fill-opacity="0.7"/>
    <path d="M93.3669 16.4835C90.33 16.4633 88.1982 14.2508 88.1982 11.1935C88.1982 8.0758 90.2291 5.84314 93.2262 5.88335C96.0427 5.92355 98.3754 7.83441 98.0337 12.0181H90.4105C90.7326 13.4864 91.8989 14.4117 93.3669 14.4317C94.5942 14.4519 95.5799 14.0296 96.203 13.1848L97.893 14.1301C96.9675 15.6587 95.4189 16.5035 93.3669 16.4835ZM96.0224 10.1073C95.6401 8.75972 94.5137 7.89476 93.2262 7.89476C91.8387 7.89476 90.8131 8.75972 90.4707 10.1073H96.0224Z" fill="white" fill-opacity="0.7"/>
    <path opacity="0.8" d="M2.84748 5.39482L4.90176 6.58085C6.49031 7.498 7.03498 9.52939 6.11783 11.1179C6.03716 11.2577 5.94788 11.389 5.85106 11.5121L0.949478 8.68226C0.652832 8.511 0.420191 8.27149 0.258984 7.99548C-0.0726081 7.42641 -0.098282 6.70053 0.254671 6.0892C0.778653 5.18164 1.9395 4.87059 2.84748 5.39482Z" fill="white" fill-opacity="0.7"/>
    <path opacity="0.5" d="M2.84748 13.5485L4.90176 12.3625C6.49031 11.4453 7.03498 9.41395 6.11783 7.82542C6.03716 7.68568 5.94788 7.5543 5.85106 7.43115L0.949478 10.2611C0.652832 10.4323 0.420191 10.6718 0.258984 10.9479C-0.0726081 11.5169 -0.098282 12.2428 0.254671 12.8542C0.778653 13.7617 1.9395 14.0728 2.84748 13.5485Z" fill="white" fill-opacity="0.7"/>
    <path opacity="0.5" d="M16.0087 5.39482L13.9544 6.58085C12.3659 7.498 11.8213 9.52939 12.7384 11.1179C12.819 11.2577 12.9084 11.389 13.0051 11.5121L17.9067 8.68226C18.2034 8.511 18.436 8.27149 18.5972 7.99548C18.9288 7.42641 18.9545 6.70053 18.6015 6.0892C18.0776 5.18164 16.9167 4.87059 16.0087 5.39482Z" fill="white" fill-opacity="0.7"/>
    <path opacity="0.8" d="M16.0087 13.5485L13.9544 12.3625C12.3659 11.4453 11.8213 9.41395 12.7384 7.82542C12.819 7.68568 12.9084 7.5543 13.0051 7.43115L17.9067 10.2611C18.2034 10.4323 18.436 10.6718 18.5972 10.9479C18.9288 11.5169 18.9545 12.2428 18.6015 12.8542C18.0776 13.7617 16.9167 14.0728 16.0087 13.5485Z" fill="white" fill-opacity="0.7"/>
    <path d="M9.42815 11.3267C10.4764 11.3267 11.3261 10.4769 11.3261 9.42871C11.3261 8.38052 10.4764 7.53076 9.42815 7.53076C8.37996 7.53076 7.53027 8.38052 7.53027 9.42871C7.53027 10.4769 8.37996 11.3267 9.42815 11.3267Z" fill="white" fill-opacity="0.7"/>
    <path opacity="0.8" d="M5.35087 16.0088L6.53692 13.9545C7.45406 12.3659 9.48544 11.8212 11.074 12.7384C11.2137 12.8191 11.3451 12.9084 11.4683 13.0052L8.63831 17.9067C8.46705 18.2034 8.22754 18.436 7.95153 18.5973C7.38247 18.9288 6.6566 18.9545 6.04526 18.6016C5.1377 18.0776 4.82665 16.9167 5.35087 16.0088Z" fill="white" fill-opacity="0.7"/>
    <path opacity="0.5" d="M13.5046 16.0087L12.3185 13.9545C11.4014 12.3659 9.37 11.8212 7.78147 12.7384C7.64174 12.8191 7.51033 12.9083 7.38721 13.0052L10.2171 17.9067C10.3884 18.2034 10.6279 18.436 10.9039 18.5973C11.473 18.9288 12.1988 18.9545 12.8102 18.6016C13.7178 18.0775 14.0288 16.9167 13.5046 16.0087Z" fill="white" fill-opacity="0.7"/>
    <path opacity="0.5" d="M5.35087 2.84748L6.53692 4.90176C7.45406 6.49031 9.48544 7.03498 11.074 6.11783C11.2137 6.03716 11.3451 5.94788 11.4683 5.85106L8.63831 0.949478C8.46705 0.652832 8.22754 0.42019 7.95153 0.258983C7.38247 -0.0726083 6.6566 -0.098282 6.04526 0.254672C5.1377 0.778653 4.82665 1.9395 5.35087 2.84748Z" fill="white" fill-opacity="0.7"/>
    <path opacity="0.8" d="M13.5046 2.84748L12.3185 4.90176C11.4014 6.49031 9.37 7.03498 7.78147 6.11783C7.64174 6.03716 7.51033 5.94788 7.38721 5.85106L10.2171 0.949478C10.3884 0.652832 10.6279 0.42019 10.9039 0.258983C11.473 -0.0726083 12.1988 -0.098282 12.8102 0.254672C13.7178 0.778653 14.0288 1.9395 13.5046 2.84748Z" fill="white" fill-opacity="0.7"/>
    <path d="M26.336 26.2012H25.6821V31.8296H26.3277V31.0847C26.6092 31.631 27.1058 31.929 27.7266 31.929C28.8274 31.929 29.5641 30.9936 29.5641 29.8183C29.5641 28.6512 28.8274 27.7159 27.7266 27.7159C27.1058 27.7159 26.6092 28.0221 26.336 28.6098V26.2012ZM27.619 31.3661C26.8658 31.3661 26.3443 30.7702 26.3443 29.8183C26.3443 28.8747 26.8658 28.2787 27.619 28.2787C28.3556 28.2787 28.8771 28.8747 28.8771 29.8183C28.8771 30.7702 28.3639 31.3661 27.619 31.3661ZM31.5888 33.4851L33.7905 27.8152H33.1532L31.9116 31.0185L30.6783 27.8152H29.9747L31.6053 31.8214L30.9597 33.4851H31.5888ZM36.8422 31.8296H38.0258V26.375H37.1153C36.9415 26.6978 36.5691 26.8385 36.0476 26.8385V27.7904H36.8422V31.8296ZM39.132 31.8296H40.3239V30.0666H41.2344C42.4842 30.0666 43.2043 29.3051 43.2043 28.2291C43.2043 27.1944 42.4842 26.4495 41.2344 26.4495H39.132V31.8296ZM41.2344 27.4676C41.6565 27.4676 42.0041 27.6993 42.0041 28.2539C42.0041 28.8002 41.6565 29.0402 41.2344 29.0402H40.3239V27.4676H41.2344ZM47.2665 31.8296V29.4127C47.2665 28.287 46.6209 27.6331 45.4704 27.6331C44.593 27.6331 43.9225 28.1132 43.6659 28.8995L44.7254 29.1561C44.8579 28.7836 45.0896 28.5602 45.4704 28.5602C45.8511 28.5602 46.116 28.8085 46.116 29.2554V29.3217C46.116 29.4458 46.0746 29.4955 45.9256 29.4955H44.891C44.0301 29.4955 43.5087 29.9342 43.5087 30.6543C43.5087 31.4323 44.1046 31.929 44.9406 31.929C45.4455 31.929 45.9339 31.722 46.207 31.2502V31.8296H47.2665ZM45.2138 31.0681C44.8661 31.0681 44.6509 30.9026 44.6509 30.6294C44.6509 30.3811 44.7999 30.2073 45.1558 30.2073H46.116V30.2901C46.116 30.7702 45.7104 31.0681 45.2138 31.0681ZM49.6423 31.093C49.2119 31.093 48.8974 30.9109 48.765 30.5549L47.7883 30.8033C47.9704 31.5648 48.6905 31.929 49.5927 31.929C50.7184 31.929 51.3557 31.3496 51.3557 30.5798C51.3557 29.0733 48.9553 29.5865 48.9553 28.8416C48.9553 28.585 49.1705 28.436 49.543 28.436C49.932 28.436 50.1886 28.6595 50.2962 29.0071L51.3143 28.825C51.1405 28.1215 50.5777 27.6331 49.543 27.6331C48.4587 27.6331 47.871 28.2042 47.871 28.9326C47.871 30.4887 50.2714 30.0335 50.2714 30.6791C50.2714 30.9274 50.0562 31.093 49.6423 31.093ZM53.5427 31.093C53.1123 31.093 52.7977 30.9109 52.6653 30.5549L51.6886 30.8033C51.8707 31.5648 52.5908 31.929 53.493 31.929C54.6187 31.929 55.2561 31.3496 55.2561 30.5798C55.2561 29.0733 52.8557 29.5865 52.8557 28.8416C52.8557 28.585 53.0709 28.436 53.4434 28.436C53.8324 28.436 54.089 28.6595 54.1966 29.0071L55.2147 28.825C55.0409 28.1215 54.478 27.6331 53.4434 27.6331C52.3591 27.6331 51.7714 28.2042 51.7714 28.9326C51.7714 30.4887 54.1718 30.0335 54.1718 30.6791C54.1718 30.9274 53.9565 31.093 53.5427 31.093ZM57.8982 31.8296L58.5686 28.9823L59.2391 31.8296H60.7041L61.7057 27.7324H60.6214L59.9675 30.9191L59.1398 27.7324H57.9975L57.236 30.9109L56.5739 27.7324H55.4813L56.4828 31.8296H57.8982ZM64.0498 31.929C65.2913 31.929 66.1439 30.9688 66.1439 29.7769C66.1439 28.5933 65.2913 27.6331 64.0498 27.6331C62.8082 27.6331 61.9557 28.5933 61.9557 29.7769C61.9557 30.9688 62.8082 31.929 64.0498 31.929ZM64.0498 30.944C63.5366 30.944 63.1393 30.5053 63.1393 29.7769C63.1393 29.0485 63.5366 28.6181 64.0498 28.6181C64.563 28.6181 64.9603 29.0485 64.9603 29.7769C64.9603 30.5053 64.563 30.944 64.0498 30.944ZM67.8508 27.7324H66.7913V31.8296H67.9501V29.661C67.9501 28.9492 68.2977 28.7919 68.844 28.7919C68.9765 28.7919 69.1255 28.8085 69.2662 28.8333L69.4565 27.7159C69.3489 27.6662 69.2165 27.6331 69.0427 27.6331C68.4881 27.6331 68.066 27.9476 67.8508 28.585V27.7324ZM73.8634 26.2012H72.7378V28.3036C72.4729 27.8235 72.0508 27.6331 71.5045 27.6331C70.4367 27.6331 69.7 28.5519 69.7 29.7769C69.7 31.0102 70.4367 31.929 71.5045 31.929C72.0839 31.929 72.5226 31.6972 72.7626 31.093V31.8296H73.8634V26.2012ZM71.7859 30.9688C71.1982 30.9688 70.8754 30.4722 70.8754 29.7769C70.8754 29.0899 71.1982 28.5933 71.7859 28.5933C72.3818 28.5933 72.7046 29.0899 72.7046 29.7769C72.7046 30.4722 72.3818 30.9688 71.7859 30.9688Z" fill="white" fill-opacity="0.7"/>
  </g>
  <defs>
    <clipPath id="clip0_797_4487">
      <rect width="98.1217" height="34.6135" fill="white"/>
    </clipPath>
  </defs>
</svg>
