<svg viewBox="0 0 98 26" fill="none" xmlns="http://www.w3.org/2000/svg">
  <g clip-path="url(#clip0_797_4434)">
    <path fill-rule="evenodd" clip-rule="evenodd" d="M23.3491 18.1043V7.2627H29.577C32.4306 7.2627 33.4821 8.23047 33.4821 10.7945C33.4821 13.3586 32.4306 14.3071 29.577 14.3071H25.4334V18.1058L23.3491 18.1043ZM25.4334 12.4411H29.3824C30.8801 12.4411 31.3892 12.0351 31.3892 10.7916C31.3892 9.54806 30.8801 9.12418 29.3824 9.12418H25.4334V12.4411ZM34.9667 18.1043V7.2627H41.0717C43.8082 7.2627 44.816 8.21716 44.816 10.71C44.816 12.8161 44.0993 13.8032 42.2345 14.0581L45.3411 18.1043H42.7961L39.7831 14.1218H37.0042V18.1043H34.9667ZM37.0042 12.2781H40.9035C42.3032 12.2781 42.7815 11.872 42.7815 10.7204C42.7815 9.53474 42.2842 9.11824 40.9035 9.11824H37.0042V12.2781ZM46.3372 18.1043V7.2627H55.6058V9.12568H48.3921V11.6823H54.5234V13.5275H48.3921V16.2472H55.7359V18.1043H46.3372ZM57.4531 18.1043V7.2627H66.8428V9.12568H59.5562V11.6823H65.7463V13.5275H59.5579V18.1043H57.4531ZM68.0822 18.1043V7.2627H77.3576V9.12568H70.1425V11.6823H76.2859V13.5275H70.1425V16.2472H77.4879V18.1043H68.0822ZM88.6086 7.2627H97.9953V9.15531H94.0902V18.1013H92.0161V9.15237H84.2833C80.5536 9.15237 80.5466 9.11974 80.5466 12.6827C80.5466 16.2457 80.5466 16.2487 84.2833 16.2487H87.6476V18.1058H84.2833C78.4696 18.1058 78.4696 17.753 78.4696 12.6827C78.4696 7.61244 78.3849 7.2627 84.2833 7.2627H88.6086Z" fill="white" fill-opacity="0.7"/>
    <path fill-rule="evenodd" clip-rule="evenodd" d="M15.5653 11.8205L7.77832 7.86621V15.9022L15.5653 11.8205Z" fill="white" fill-opacity="0.7"/>
    <path fill-rule="evenodd" clip-rule="evenodd" d="M8.76997 15.3811L7.77832 9.4082V15.9013L8.76997 15.3811Z" fill="white" fill-opacity="0.7"/>
    <path fill-rule="evenodd" clip-rule="evenodd" d="M14.5663 11.3092L7.77832 7.86621V8.74366L14.5663 11.3092Z" fill="white" fill-opacity="0.7"/>
    <path opacity="0.5" fill-rule="evenodd" clip-rule="evenodd" d="M0.468039 25.2824L7.62757 21.7639C7.72557 21.7031 7.78114 21.6883 7.78408 21.5135C7.78408 21.4971 7.78408 7.86621 7.78408 7.86621C4.75644 9.3987 0.501679 11.5507 0.133098 11.7479C0.0160888 11.8146 0 11.8694 0 11.9553V24.9297C0 25.2232 0.0160888 25.5136 0.468039 25.2824Z" fill="white" fill-opacity="0.7"/>
    <path fill-rule="evenodd" clip-rule="evenodd" d="M15.5653 4.0877V11.8168C15.5653 11.8168 1.03706 4.44636 0.53392 4.18848C0.19898 4.01063 0.19898 3.84315 0.53392 3.65196C0.842533 3.47707 6.73835 0.499524 7.64225 0.0400718C7.68024 0.0155015 7.724 0.00171401 7.76902 0.000149731C7.81404 -0.00141454 7.85866 0.00930176 7.8982 0.0311792L15.419 3.85352C15.4663 3.87086 15.5065 3.90383 15.533 3.94712C15.5596 3.99041 15.5709 4.0415 15.5653 4.09214V4.0877Z" fill="white" fill-opacity="0.7"/>
  </g>
  <defs>
    <clipPath id="clip0_797_4434">
      <rect width="98" height="25.3647" fill="white"/>
    </clipPath>
  </defs>
</svg>
