<svg viewBox="0 0 180 39" fill="none" xmlns="http://www.w3.org/2000/svg">
  <g clip-path="url(#clip0_797_4396)">
    <path d="M50.4758 25.9307C49.1541 25.9307 47.8701 25.7371 46.5862 25.3111C45.3812 24.9107 44.2739 24.2504 43.3384 23.3746L45.0377 20.4312C45.9819 21.0896 46.8882 21.5931 47.7947 21.9804C48.6632 22.3676 49.5318 22.5225 50.3626 22.5225C50.9668 22.5225 51.4577 22.4064 51.7976 22.1741C52.1374 21.9804 52.2885 21.6317 52.2885 21.2057C52.2885 20.8185 52.0997 20.4312 51.6465 20.1989C50.9367 19.85 50.1887 19.59 49.4184 19.4243L46.775 18.5335C46.0574 18.2236 45.4911 17.9139 45.0377 17.5653C44.5846 17.2555 44.2448 16.8295 44.056 16.4035C43.8505 15.9145 43.7475 15.3867 43.7538 14.8543C43.7317 13.3299 44.3845 11.8772 45.5288 10.904C46.0574 10.4393 46.7373 10.0907 47.4925 9.81961C48.2478 9.5485 49.0786 9.43232 49.9472 9.43232C51.1179 9.43232 52.213 9.58723 53.2327 9.89705C54.2524 10.2456 55.2341 10.8265 56.1783 11.6786L54.3278 14.5832C53.5968 14.0469 52.8119 13.5924 51.9865 13.2277C51.2689 12.9179 50.6269 12.8017 49.9472 12.8017C49.4563 12.8017 49.003 12.8792 48.6632 13.1115C48.2855 13.3052 48.1344 13.6537 48.1344 14.1185C48.1344 14.5832 48.3233 14.893 48.7009 15.1254C49.0786 15.3578 49.8338 15.5902 50.8535 15.8613C51.8001 16.1058 52.733 16.4031 53.6481 16.752C54.4033 17.0618 55.0075 17.4104 55.4986 17.759C56.4269 18.4601 56.9401 19.6004 56.858 20.7797C56.858 22.3676 56.2915 23.6071 55.1209 24.5365C53.9879 25.4659 52.4773 25.9307 50.4758 25.9307ZM69.1691 24.8075C68.5271 25.0786 67.7718 25.3497 66.941 25.5822C66.1102 25.8145 65.2793 25.9694 64.4108 25.9694C63.8066 25.9694 63.2779 25.8919 62.7492 25.7371C62.2352 25.5834 61.7589 25.3193 61.352 24.9625C60.9743 24.6526 60.6721 24.1878 60.4456 23.6844C60.219 23.1423 60.0679 22.4838 60.0679 21.7093V13.3826H58.1042V9.74214H60.1058V4.66869H64.7885V9.70342H67.9606V13.3826H64.7885V20.044C64.7885 20.5474 64.9018 20.9346 65.1661 21.2057C65.4305 21.3994 65.7704 21.5156 66.1481 21.5156C66.5256 21.5156 66.9032 21.477 67.2432 21.3221C67.6209 21.2057 67.9606 21.0896 68.2251 20.9346L69.1314 24.8075H69.1691ZM78.0059 25.9307C76.8043 25.9522 75.6105 25.7284 74.494 25.2723C72.5287 24.4751 70.9895 22.8543 70.2642 20.8185C69.5223 18.7964 69.5223 16.5666 70.2642 14.5445C70.9895 12.5087 72.5287 10.888 74.494 10.0907C75.5134 9.66468 76.6842 9.43232 78.0059 9.43232C80.3048 9.32134 82.5373 10.24 84.1238 11.9497C84.8412 12.6855 85.37 13.5763 85.7475 14.5445C86.5206 16.5741 86.5206 18.8277 85.7475 20.8573C85.0177 22.8679 83.4963 24.4706 81.5557 25.2723C80.4276 25.7335 79.2203 25.9574 78.0059 25.9307ZM74.6072 17.7202C74.6072 18.9595 74.9094 19.9665 75.5513 20.7023C76.2311 21.477 77.0619 21.8642 78.0438 21.8642C78.9923 21.883 79.8969 21.4547 80.4983 20.7023C80.8005 20.3151 81.0271 19.9277 81.2159 19.3855C81.4048 18.8821 81.4803 18.3012 81.4803 17.7202C81.4803 16.4422 81.1403 15.4352 80.4983 14.6994C79.8563 13.9248 79.0255 13.5375 78.0438 13.5375C77.0986 13.5354 76.2006 13.9604 75.5891 14.6994C75.2869 15.0867 75.0226 15.474 74.8337 16.0162C74.6635 16.5667 74.5868 17.1431 74.6072 17.7202ZM98.512 13.8861C97.3789 13.8861 96.3216 14.0798 95.3775 14.467C94.5464 14.7544 93.8387 15.3295 93.376 16.0936V25.6596H88.6554V9.74214H92.9983V12.9179C93.5271 11.8335 94.2068 10.9815 95.0753 10.4005C95.9061 9.78087 96.7747 9.47104 97.7189 9.43232H98.2098L98.512 9.47104V13.8474V13.8861ZM100.589 28.022C101.246 28.2562 101.933 28.3868 102.628 28.4094C103.195 28.4094 103.648 28.2157 103.988 27.8284C104.29 27.4412 104.554 26.6665 104.819 25.6596L98.9274 9.74214H103.799L107.386 21.477L110.521 9.74214H114.939L109.01 28.2157C108.08 31.3534 104.962 33.2383 101.835 32.5534C101.458 32.4758 101.004 32.3597 100.589 32.1659V28.022ZM126.118 25.931C124.947 25.931 123.889 25.6984 123.021 25.1562C122.138 24.659 121.407 23.922 120.906 23.0261V25.6596H116.79V3.50684H121.548V12.337C122.581 10.4832 124.528 9.36591 126.608 9.43232C127.59 9.43232 128.497 9.62595 129.327 10.0907C130.158 10.478 130.838 11.0977 131.48 11.8335C133.339 14.4791 133.845 17.8797 132.84 20.9734C132.462 21.9804 131.933 22.8712 131.291 23.6071C129.965 25.0978 128.085 25.9423 126.118 25.931ZM124.796 21.8642C126.329 21.8675 127.694 20.8715 128.195 19.3855C128.748 17.8254 128.477 16.0826 127.477 14.7769C126.887 13.9795 125.961 13.5191 124.985 13.5375C124.267 13.5375 123.587 13.8087 122.945 14.3121C122.341 14.8543 121.85 15.5127 121.51 16.326V19.6566C122.12 20.9743 123.412 21.8173 124.834 21.8254L124.796 21.8642ZM135.672 3.50684H140.392V19.9665C140.392 21.2057 140.883 21.7867 141.903 21.7867C142.442 21.7884 142.973 21.6554 143.451 21.3994L144.093 25.0013C142.771 25.5952 141.345 25.9114 139.901 25.9307C138.542 25.9307 137.484 25.5434 136.767 24.8463C136.012 24.0717 135.634 23.0647 135.634 21.6705V3.50684H135.672ZM153.006 25.9307C151.804 25.9522 150.61 25.7284 149.494 25.2723C147.517 24.4799 145.964 22.8594 145.226 20.8185C144.134 17.7747 144.742 14.3626 146.812 11.9109C147.568 11.1364 148.398 10.5554 149.456 10.0907C150.475 9.66468 151.646 9.43232 152.968 9.43232C155.267 9.32134 157.499 10.24 159.086 11.9497C159.841 12.6855 160.332 13.5763 160.71 14.5445C161.845 17.5844 161.233 21.0198 159.123 23.4521C158.406 24.2266 157.537 24.8463 156.48 25.2723C155.363 25.7284 154.169 25.9522 152.968 25.9307H153.006ZM149.569 17.7202C149.569 18.9595 149.871 19.9665 150.513 20.7023C151.193 21.477 152.024 21.8642 153.006 21.8642C153.953 21.8773 154.855 21.4502 155.46 20.7023C155.762 20.3151 155.989 19.9277 156.178 19.3855C156.367 18.8821 156.442 18.3012 156.442 17.7202C156.442 16.4422 156.102 15.4352 155.46 14.6994C154.818 13.9248 153.987 13.5375 153.006 13.5375C152.06 13.5354 151.162 13.9604 150.551 14.6994C150.249 15.0867 149.984 15.474 149.796 16.0162C149.607 16.5584 149.569 17.1006 149.569 17.7202ZM174.078 25.6596L170.037 19.2306L168.376 21.0122V25.6596H163.655V3.50684H168.376V16.326L173.625 9.74214H178.648L173.058 16.5971L179.1 25.6596H174.078Z" fill="white"/>
    <path fill-rule="evenodd" clip-rule="evenodd" d="M0 2.97447C0 1.33144 1.33193 -0.000488281 2.97496 -0.000488281H29.7495C31.3926 -0.000488281 32.7245 1.33144 32.7245 2.97447V29.7491C32.7245 31.3921 31.3926 32.724 29.7495 32.724H12.4004L7.95719 36.3928C7.3804 36.8691 6.50961 36.4587 6.50961 35.7108V32.724H2.97496C1.33193 32.724 0 31.3921 0 29.7491V2.97447ZM6.50729 5.40635H20.8095C23.8982 5.40635 26.4023 7.91034 26.4023 10.9992C26.4023 13.4744 24.7944 15.574 22.5661 16.3106C25.1715 16.787 27.1462 19.0688 27.1462 21.812C27.1462 24.9008 24.6422 27.4048 21.5534 27.4048H6.50754V16.592L6.50729 5.40635ZM18.4021 10.4392H11.7129V13.7949H18.4021C19.3287 13.7949 20.0799 13.0437 20.0799 12.1171C20.0799 11.1904 19.3287 10.4392 18.4021 10.4392ZM11.7129 17.8965H18.9594C19.9889 17.8965 20.8238 18.7311 20.8238 19.7608C20.8238 20.7904 19.9889 21.6251 18.9594 21.6251H11.7129V17.8965Z" fill="white"/>
  </g>
  <defs>
    <clipPath id="clip0_797_4396">
      <rect width="179.1" height="38.2544" fill="white"/>
    </clipPath>
  </defs>
</svg>
