<svg viewBox="0 0 136 17" fill="none" xmlns="http://www.w3.org/2000/svg">
  <path fill-rule="evenodd" clip-rule="evenodd" d="M13.648 0.479004C10.1363 0.479004 7.94143 2.23487 7.06351 5.74661C8.38041 3.99074 9.91678 3.33229 11.6727 3.77126C12.6745 4.02171 13.3905 4.74849 14.1831 5.553C15.4742 6.86358 16.9686 8.38041 20.2325 8.38041C23.7442 8.38041 25.9391 6.62453 26.817 3.11281C25.5001 4.86869 23.9638 5.52714 22.2079 5.08816C21.2061 4.83771 20.49 4.11092 19.6974 3.30639C18.4063 1.99583 16.9119 0.479004 13.648 0.479004ZM7.06351 8.38041C3.55178 8.38041 1.35694 10.1363 0.479004 13.648C1.79591 11.8921 3.33229 11.2337 5.08816 11.6727C6.08996 11.9231 6.80602 12.6499 7.5986 13.4544C8.88974 14.765 10.3841 16.2818 13.648 16.2818C17.1597 16.2818 19.3546 14.5259 20.2325 11.0142C18.9156 12.7701 17.3793 13.4286 15.6234 12.9896C14.6216 12.7391 13.9055 12.0123 13.1129 11.2078C11.8218 9.89724 10.3274 8.38041 7.06351 8.38041Z" fill="white" fill-opacity="0.7"/>
  <path d="M38.9384 7.51469V5.62218H36.6819V2.5957L34.7166 3.17801V5.62218H33.0425V7.51469H34.7166V11.882C34.7166 14.2476 35.9176 15.0847 38.9384 14.7208V12.9556C37.4462 13.0284 36.6819 13.0466 36.6819 11.882V7.51469H38.9384Z" fill="white" fill-opacity="0.7"/>
  <path d="M47.5535 5.62231V6.91431C46.862 5.96805 45.7884 5.38574 44.369 5.38574C41.8942 5.38574 39.8379 7.46022 39.8379 10.1716C39.8379 12.8648 41.8942 14.9575 44.369 14.9575C45.7884 14.9575 46.862 14.3752 47.5535 13.4107V14.7209H49.5188V5.62231H47.5535ZM44.6783 13.0832C43.0406 13.0832 41.8032 11.8639 41.8032 10.1716C41.8032 8.47926 43.0406 7.26005 44.6783 7.26005C46.3161 7.26005 47.5535 8.47926 47.5535 10.1716C47.5535 11.8639 46.3161 13.0832 44.6783 13.0832Z" fill="white" fill-opacity="0.7"/>
  <path d="M52.7922 4.25731C53.4837 4.25731 54.0478 3.675 54.0478 3.0017C54.0478 2.31021 53.4837 1.74609 52.7922 1.74609C52.1007 1.74609 51.5366 2.31021 51.5366 3.0017C51.5366 3.675 52.1007 4.25731 52.7922 4.25731ZM51.8096 14.7207H53.7749V5.62209H51.8096V14.7207Z" fill="white" fill-opacity="0.7"/>
  <path d="M56.0571 14.7205H58.0224V1.43652H56.0571V14.7205Z" fill="white" fill-opacity="0.7"/>
  <path d="M70.7858 5.62207L69.0025 11.9001L67.11 5.62207H65.2357L63.325 11.9001L61.5598 5.62207H59.4854L62.3423 14.7207H64.2712L66.1819 8.58821L68.0744 14.7207H70.0033L72.8603 5.62207H70.7858Z" fill="white" fill-opacity="0.7"/>
  <path d="M75.2898 4.25731C75.9813 4.25731 76.5454 3.675 76.5454 3.0017C76.5454 2.31021 75.9813 1.74609 75.2898 1.74609C74.5983 1.74609 74.0342 2.31021 74.0342 3.0017C74.0342 3.675 74.5983 4.25731 75.2898 4.25731ZM74.3071 14.7207H76.2724V5.62209H74.3071V14.7207Z" fill="white" fill-opacity="0.7"/>
  <path d="M83.3401 5.38574C82.1027 5.38574 81.12 5.84067 80.5195 6.78693V5.62231H78.5542V14.7209H80.5195V9.84405C80.5195 7.98794 81.5385 7.22366 82.8305 7.22366C84.0679 7.22366 84.8686 7.95155 84.8686 9.33453V14.7209H86.8339V9.13436C86.8339 6.76873 85.3781 5.38574 83.3401 5.38574Z" fill="white" fill-opacity="0.7"/>
  <path d="M96.1565 1.98291V6.91435C95.465 5.96809 94.3914 5.38578 92.972 5.38578C90.4972 5.38578 88.4409 7.46026 88.4409 10.1716C88.4409 12.8648 90.4972 14.9575 92.972 14.9575C94.3914 14.9575 95.465 14.3752 96.1565 13.4107V14.7209H98.1218V1.98291H96.1565ZM93.2814 13.0832C91.6436 13.0832 90.4062 11.864 90.4062 10.1716C90.4062 8.4793 91.6436 7.26009 93.2814 7.26009C94.9191 7.26009 96.1565 8.4793 96.1565 10.1716C96.1565 11.864 94.9191 13.0832 93.2814 13.0832Z" fill="white" fill-opacity="0.7"/>
  <path opacity="0.3" d="M102.806 12.9519V5.33594H100.956V14.7219H106.386V12.9519H102.806Z" fill="white" fill-opacity="0.7"/>
  <path opacity="0.3" d="M115.074 14.7219H117.085L113.787 5.33594H111.494L108.209 14.7219H110.207L110.77 13.0324H114.511L115.074 14.7219ZM111.36 11.3027L112.647 7.46788L113.934 11.3027H111.36Z" fill="white" fill-opacity="0.7"/>
  <path opacity="0.3" d="M125.01 9.85459C125.559 9.41211 125.895 8.78191 125.895 7.9774C125.895 6.40861 124.621 5.33594 123.039 5.33594H119.338V14.7219H123.32C124.943 14.7219 126.243 13.609 126.243 11.9999C126.243 11.0211 125.761 10.2837 125.01 9.85459ZM123.039 7.06563C123.629 7.06563 124.044 7.50811 124.044 8.09808C124.044 8.68805 123.615 9.13053 123.039 9.13053H121.188V7.06563H123.039ZM123.32 12.9922H121.188V10.7798H123.32C123.95 10.7798 124.406 11.2491 124.406 11.8793C124.406 12.5229 123.95 12.9922 123.32 12.9922Z" fill="white" fill-opacity="0.7"/>
  <path opacity="0.3" d="M131.858 14.9093C133.856 14.9093 135.263 13.8366 135.263 12.0801C135.263 10.1627 133.681 9.6666 132.193 9.1973C130.772 8.76823 130.41 8.45984 130.41 7.88327C130.41 7.34694 130.866 6.94468 131.643 6.94468C132.595 6.94468 133.105 7.44079 133.44 8.15144L134.995 7.25308C134.365 5.93905 133.185 5.14795 131.643 5.14795C130.034 5.14795 128.559 6.16699 128.559 7.93691C128.559 9.72023 129.954 10.3236 131.388 10.7393C132.783 11.1415 133.413 11.4097 133.413 12.1069C133.413 12.6299 133.024 13.0992 131.911 13.0992C130.745 13.0992 130.088 12.536 129.753 11.6645L128.17 12.5896C128.68 13.9841 129.94 14.9093 131.858 14.9093Z" fill="white" fill-opacity="0.7"/>
</svg>
