<svg viewBox="0 0 120 28" fill="none" xmlns="http://www.w3.org/2000/svg">
  <g clip-path="url(#clip0_797_4463)">
    <path d="M26.5247 10.1673C26.8558 11.9642 26.9829 16.4821 26.9829 20.9127C26.9829 24.7621 20.2044 27.2727 13.4914 27.2727C6.77454 27.2727 0 24.7613 0 20.9127C0 16.4821 0.123896 11.9642 0.458182 10.1673C0.768312 8.48883 7.87169 7.24909 12.5213 7.08935V3.86961C12.1638 3.7105 11.8602 3.45097 11.6475 3.12257C11.4347 2.79417 11.322 2.41103 11.3229 2.01974C11.3221 0.905455 12.2182 0 13.3208 0C14.4273 0 15.3218 0.905455 15.3218 2.01974C15.3228 2.41147 15.2098 2.79501 14.9964 3.12352C14.783 3.45203 14.4786 3.71129 14.1203 3.86961V7.08C18.7543 7.18909 26.2052 8.44753 26.5247 10.1673ZM16.9457 25.3971C17.333 25.1875 17.4756 24.6958 17.2675 24.3047C17.2185 24.2114 17.1513 24.1289 17.07 24.0619C16.9886 23.9949 16.8948 23.9448 16.7939 23.9145C16.693 23.8842 16.5871 23.8743 16.4823 23.8853C16.3775 23.8964 16.276 23.9282 16.1836 23.979C16.1712 23.9821 15.1145 24.5361 13.4821 24.5361C11.8644 24.5361 10.8273 23.9914 10.7992 23.979C10.7074 23.9285 10.6065 23.8967 10.5023 23.8854C10.3981 23.8742 10.2927 23.8837 10.1922 23.9134C10.0917 23.9431 9.99813 23.9924 9.91681 24.0585C9.83549 24.1246 9.76807 24.2061 9.71844 24.2984C9.61599 24.4863 9.59166 24.7069 9.65073 24.9126C9.7098 25.1182 9.84751 25.2923 10.034 25.3971C10.0901 25.4283 11.4187 26.1514 13.4821 26.1514C15.5423 26.1514 16.8873 25.4283 16.9457 25.3971ZM2.91429 18.7371C2.91429 21.2486 4.92857 23.2839 7.40961 23.2839C9.89377 23.2839 11.9081 21.2486 11.9081 18.7371C11.9081 16.2265 9.89377 14.1904 7.40961 14.1904C4.92857 14.1904 2.91429 16.2265 2.91429 18.7371ZM19.5686 23.2839C22.0535 23.2839 24.067 21.2486 24.067 18.7371C24.067 16.2265 22.0535 14.1904 19.5686 14.1904C17.0836 14.1904 15.0701 16.2265 15.0701 18.7371C15.0701 21.2486 17.0836 23.2839 19.5686 23.2839Z" fill="white" fill-opacity="0.7"/>
    <path d="M8.41088 20.7565C8.14469 20.7548 7.88998 20.6478 7.70248 20.4589C7.51498 20.2699 7.40995 20.0144 7.41036 19.7482C7.41036 19.1902 7.85997 18.7367 8.41088 18.7367C8.96257 18.7367 9.4114 19.1902 9.4114 19.7482C9.4114 20.3022 8.96257 20.7565 8.41088 20.7565ZM7.41036 15.7056C5.75842 15.7056 4.41504 17.0645 4.41504 18.7367C4.41504 20.4089 5.7592 21.7679 7.41036 21.7679C9.06387 21.7679 10.4088 20.4089 10.4088 18.7367C10.4088 17.0645 9.06387 15.7056 7.41036 15.7056ZM20.5675 20.7565C20.3014 20.7546 20.0469 20.6475 19.8596 20.4586C19.6723 20.2696 19.5673 20.0142 19.5678 19.7482C19.5678 19.1902 20.0166 18.7367 20.5675 18.7367C21.1192 18.7367 21.568 19.1902 21.568 19.7482C21.568 20.3022 21.1192 20.7565 20.5675 20.7565ZM19.5678 15.7056C17.9174 15.7056 16.5732 17.0645 16.5732 18.7367C16.5732 20.4089 17.9174 21.7679 19.5678 21.7679C21.2213 21.7679 22.5654 20.4089 22.5654 18.7367C22.5654 17.0645 21.2213 15.7056 19.5678 15.7056Z" fill="white" fill-opacity="0.7"/>
    <path d="M42.6154 11.752H38.9726V21.0824H37.15V11.752H33.5063V10.033H42.6154V11.752ZM47.9297 14.2065H45.5001C45.0902 14.2065 44.8923 14.452 44.8923 14.9437V21.0824H43.0713V14.9437C43.0713 13.2699 43.845 12.4876 45.5001 12.4876H47.9297V14.2065ZM55.0643 16.9689L51.4206 17.8907C50.8736 18.0278 50.8128 18.2133 50.8128 18.627C50.8128 19.1179 51.0108 19.3634 51.4206 19.3634H54.4573C54.8671 19.3634 55.0635 19.1187 55.0635 18.627L55.0643 16.9689ZM56.8876 14.9429V18.6255C56.8876 20.2969 56.1131 21.08 54.458 21.08H51.4206C49.7663 21.08 48.9918 20.2969 48.9918 18.6255C48.9918 17.8883 49.2349 17.3826 49.7663 17.0748C50.3126 16.753 50.6321 16.6463 51.4206 16.4468L55.065 15.5265V14.9444C55.065 14.4535 54.8671 14.2073 54.4588 14.2073H51.4206C51.0115 14.2073 50.8136 14.4527 50.8136 14.9444V15.5577H48.9918V14.9444C48.9918 13.2707 49.7663 12.4883 51.4206 12.4883H54.458C56.1123 12.4883 56.8861 13.2699 56.8861 14.9429H56.8876ZM64.7063 14.9437C64.7063 14.4527 64.5084 14.2065 64.0993 14.2065H61.0619C60.6513 14.2065 60.4541 14.452 60.4541 14.9437V21.0824H58.6331V14.9437C58.6331 13.2699 59.4076 12.4876 61.0619 12.4876H64.0993C65.7536 12.4876 66.5274 13.2699 66.5274 14.9437V21.0824H64.7063V14.9437ZM73.6635 21.0824H70.6261C68.971 21.0824 68.1973 20.2985 68.1973 18.6263V18.013H70.0199V18.6263C70.0199 19.1172 70.217 19.3626 70.6261 19.3626H73.6635C74.0734 19.3626 74.2697 19.1179 74.2697 18.6263C74.2697 18.274 74.2697 18.1042 73.6635 17.8899L70.6261 17.1224C69.836 16.9221 69.518 16.8161 68.971 16.5083C68.4396 16.1857 68.1973 15.68 68.1973 14.9437C68.1973 13.2699 68.971 12.4876 70.6261 12.4876H73.6635C75.3178 12.4876 76.0915 13.2699 76.0915 14.9437V15.5569H74.2705V14.9437C74.2705 14.4527 74.0726 14.2065 73.6643 14.2065H70.6261C70.2162 14.2065 70.0206 14.452 70.0206 14.9437C70.0206 15.2943 70.0206 15.465 70.6261 15.68L73.6643 16.4468C74.4536 16.6478 74.7708 16.7538 75.3037 17.0764C75.8508 17.3826 76.0931 17.8899 76.0931 18.627C76.0923 20.2985 75.3186 21.0824 73.6635 21.0824ZM79.8879 19.3626H81.4058V21.08H79.8879C78.3684 21.08 77.7622 20.4668 77.7622 18.9317V10.0322H79.584V18.9325C79.584 19.2395 79.63 19.3626 79.8879 19.3626ZM88.6175 14.9437C88.6175 14.4527 88.4196 14.2065 88.0097 14.2065H84.9739C84.5625 14.2065 84.3661 14.452 84.3661 14.9437V18.6255C84.3661 19.1164 84.564 19.3626 84.9739 19.3626H88.0105C88.4204 19.3626 88.6167 19.1156 88.6167 18.6255L88.6175 14.9437ZM90.4401 14.9437V18.6255C90.4401 20.2969 89.6944 21.08 88.0105 21.08H84.9739C83.2884 21.08 82.545 20.2969 82.545 18.6255V14.9437C82.545 13.2699 83.2892 12.4876 84.9739 12.4876H88.0105C89.696 12.4876 90.4401 13.2699 90.4401 14.9437ZM98.1069 16.9689L94.4632 17.8899C93.9154 18.027 93.8554 18.2125 93.8554 18.6263C93.8554 19.1172 94.0526 19.3626 94.4632 19.3626H97.4999C97.9097 19.3626 98.1069 19.1179 98.1069 18.6263V16.9689ZM99.9279 14.9429V18.6255C99.9279 20.2969 99.1549 21.08 97.4999 21.08H94.4632C92.8089 21.08 92.0336 20.2969 92.0336 18.6255C92.0336 17.8883 92.2767 17.3826 92.8089 17.0748C93.3544 16.753 93.6731 16.6463 94.4632 16.4468L98.1069 15.5265V14.9444C98.1069 14.4535 97.9089 14.2073 97.4999 14.2073H94.4632C94.0526 14.2073 93.8554 14.4527 93.8554 14.9444V15.5577H92.0336V14.9444C92.0336 13.2707 92.8089 12.4883 94.4632 12.4883H97.4999C99.1541 12.4883 99.9279 13.2699 99.9279 14.9429ZM107.671 18.6263V14.2073H104.027C103.617 14.2073 103.42 14.452 103.42 14.9437V18.6255C103.42 19.1164 103.618 19.3626 104.028 19.3626H107.064C107.474 19.3626 107.671 19.1179 107.671 18.6263ZM109.493 10.033V18.6263C109.493 20.2985 108.749 21.0824 107.064 21.0824H104.027C102.341 21.0824 101.599 20.2985 101.599 18.6263V14.9452C101.599 13.2714 102.342 12.4899 104.027 12.4899H107.671V10.033H109.493ZM113.136 12.5624V21.08H111.315V12.5624H113.136Z" fill="white" fill-opacity="0.7"/>
    <path d="M112.159 11.6789C112.802 11.6789 113.323 11.1577 113.323 10.5147C113.323 9.8718 112.802 9.35059 112.159 9.35059C111.516 9.35059 110.995 9.8718 110.995 10.5147C110.995 11.1577 111.516 11.6789 112.159 11.6789Z" fill="white" fill-opacity="0.7"/>
    <path d="M119.817 19.3626V21.08H117.085C115.567 21.08 114.96 20.4668 114.96 18.9317V10.0322H116.781V12.4876H119.514V14.2065H116.781V18.9309C116.781 19.2387 116.828 19.3618 117.085 19.3618H119.817" fill="white" fill-opacity="0.7"/>
  </g>
  <defs>
    <clipPath id="clip0_797_4463">
      <rect width="120" height="27.2727" fill="white"/>
    </clipPath>
  </defs>
</svg>
