<svg xmlns="http://www.w3.org/2000/svg" width="150" height="40" fill="none" viewBox="0 0 300 79"><path fill="#17191E" d="M20.287 66.846c-3.555-3.242-4.592-10.051-3.111-14.985 2.567 3.11 6.125 4.096 9.81 4.652 5.689.859 11.276.538 16.56-2.056.605-.297 1.164-.692 1.825-1.092.495 1.435.625 2.884.451 4.358-.42 3.592-2.212 6.366-5.062 8.468-1.14.842-2.345 1.593-3.522 2.386-3.615 2.438-4.594 5.296-3.235 9.454.032.101.061.202.134.45-1.846-.825-3.194-2.024-4.222-3.602-1.085-1.665-1.601-3.507-1.628-5.5-.014-.97-.014-1.948-.145-2.904-.319-2.331-1.416-3.375-3.482-3.435-2.122-.062-3.8 1.246-4.244 3.306-.034.158-.084.314-.133.498l.004.002ZM0 51.04s10.525-5.115 21.08-5.115l7.957-24.566c.298-1.188 1.168-1.996 2.15-1.996s1.852.808 2.15 1.996l7.957 24.566c12.5 0 21.08 5.114 21.08 5.114L44.46 2.361C43.948.925 43.081 0 41.914 0H20.46c-1.167 0-1.999.925-2.547 2.361C17.876 2.457 0 51.04 0 51.04ZM110.967 43.965c0 4.305-5.368 6.876-12.8 6.876-4.837 0-6.548-1.196-6.548-3.707 0-2.63 2.124-3.886 6.96-3.886 4.366 0 8.082.06 12.388.598v.12Zm.059-5.321c-2.654-.598-6.665-.957-11.444-.957-13.92 0-20.469 3.289-20.469 10.942 0 7.952 4.483 11.001 14.865 11.001 8.79 0 14.748-2.212 16.93-7.653h.354c-.059 1.315-.118 2.63-.118 3.647 0 2.81.472 3.05 2.773 3.05h10.854c-.59-1.675-.944-6.398-.944-10.464 0-4.364.177-7.653.177-12.077 0-9.029-5.427-14.768-22.416-14.768-7.315 0-15.455 1.255-21.649 3.109.59 2.451 1.416 7.414 1.829 10.642 5.368-2.51 12.977-3.587 18.876-3.587 8.141 0 10.382 1.853 10.382 5.62v1.495ZM140.808 46.476c-1.475.18-3.48.18-5.545.18-2.183 0-4.188-.06-5.545-.24 0 .479-.059 1.017-.059 1.495 0 7.474 4.896 11.839 22.121 11.839 16.222 0 21.472-4.305 21.472-11.898 0-7.175-3.48-10.703-18.877-11.48-11.974-.538-13.036-1.854-13.036-3.348 0-1.734 1.534-2.631 9.556-2.631 8.318 0 10.559 1.136 10.559 3.527v.539c1.18-.06 3.304-.12 5.486-.12 2.065 0 4.306.06 5.604.18 0-.539.059-1.017.059-1.435 0-8.79-7.315-11.66-21.472-11.66-15.927 0-21.295 3.887-21.295 11.48 0 6.816 4.306 11.061 19.584 11.719 11.267.359 12.506 1.614 12.506 3.348 0 1.854-1.829 2.69-9.733 2.69-9.084 0-11.385-1.255-11.385-3.826v-.359ZM192.722 14.967c-4.306 4.006-12.034 8.012-16.34 9.088.059 2.212.059 6.278.059 8.49l3.952.06c-.059 4.245-.118 9.387-.118 12.795 0 7.952 4.188 13.931 17.225 13.931 5.486 0 9.143-.598 13.685-1.555-.472-2.93-1.002-7.413-1.179-10.821-2.714.897-6.135 1.375-9.911 1.375-5.25 0-7.373-1.435-7.373-5.56 0-3.588 0-6.936.059-10.045 6.725.06 13.449.18 17.402.299-.059-3.11.059-7.594.236-10.583-5.722.12-12.152.18-17.461.18.059-2.631.118-5.143.177-7.654h-.413ZM227.954 30.752c.059-3.11.118-5.74.177-8.311h-11.857c.177 5.142.177 10.403.177 18.116 0 7.713-.059 13.034-.177 18.116h13.567c-.236-3.587-.295-9.626-.295-14.768 0-8.131 3.304-10.463 10.795-10.463 3.481 0 5.958.419 8.141 1.196.059-3.05.649-8.968 1.003-11.6-2.242-.657-4.72-1.075-7.728-1.075-6.43-.06-11.149 2.57-13.332 8.848l-.471-.06ZM287.018 40.318c0 6.517-4.719 9.566-12.152 9.566-7.374 0-12.093-2.87-12.093-9.566 0-6.696 4.778-9.208 12.093-9.208 7.374 0 12.152 2.691 12.152 9.208Zm12.328-.299c0-12.974-10.146-18.774-24.48-18.774-14.393 0-24.186 5.8-24.186 18.774 0 12.915 9.144 19.85 24.127 19.85 15.101 0 24.539-6.935 24.539-19.85Z"/></svg>