<svg xmlns="http://www.w3.org/2000/svg" width="120" height="30" fill="none" viewBox="0 0 80 20"><path fill="#141414" d="M16.78 20h11.118a2.021 2.021 0 0 0 1.742-1 1.99 1.99 0 0 0-.001-2L22.172 4.143a2.005 2.005 0 0 0-1.742-1 2.02 2.02 0 0 0-1.742 1l-1.909 3.29L13.046 1a2.006 2.006 0 0 0-1.742-1 2.021 2.021 0 0 0-1.742 1L.27 17a1.99 1.99 0 0 0 .735 2.732c.306.175.653.267 1.006.267h6.98c2.765 0 4.804-1.207 6.207-3.563l3.407-5.865 1.825-3.139 5.476 9.429h-7.301l-1.826 3.138Zm-7.903-3.143h-4.87l7.3-12.57 3.643 6.284-2.439 4.201c-.932 1.528-1.99 2.085-3.634 2.085ZM44.306 19.824V16.98H37.41V4.503h-3.274v15.321h10.17ZM50.419 20c1.279 0 2.428-.526 2.97-1.336v1.16h3.036V8.794h-3.036v1.094c-.607-.766-1.691-1.27-3.014-1.27-3.187 0-5.117 2.255-5.117 5.69 0 3.437 1.93 5.692 5.16 5.692Zm.477-2.627c-1.605 0-2.667-1.226-2.667-3.064 0-1.86 1.062-3.086 2.667-3.086 1.626 0 2.688 1.225 2.688 3.086 0 1.838-1.062 3.064-2.688 3.064ZM64.999 20c3.23 0 5.226-2.255 5.226-5.691s-1.995-5.69-5.183-5.69c-1.366 0-2.428.524-3.035 1.334V4h-3.014v15.824h3.014v-1.203c.607.853 1.734 1.379 2.992 1.379Zm-.477-2.627c-1.626 0-2.689-1.226-2.689-3.064 0-1.86 1.063-3.086 2.689-3.086 1.583 0 2.667 1.225 2.667 3.086 0 1.838-1.084 3.064-2.667 3.064ZM75.747 20c2.558 0 4.25-1.38 4.25-3.48 0-4.99-5.985-2.43-5.985-4.684 0-.7.585-1.073 1.431-1.073.824 0 1.67.504 1.8 1.445h2.624c-.109-2.167-1.887-3.59-4.51-3.59-2.234 0-3.903 1.38-3.903 3.327 0 4.64 5.876 2.43 5.876 4.684 0 .613-.65 1.072-1.583 1.072-1.128 0-1.887-.613-1.995-1.597H71.15C71.258 18.489 73.08 20 75.747 20Z"/></svg>