<svg width="160" height="160" fill="none" xmlns="http://www.w3.org/2000/svg"><path fill-rule="evenodd" clip-rule="evenodd" d="M0 80.0001C0 144.521 15.4786 160 79.9999 160 144.521 160 160 144.521 160 80.0001 160 15.4786 144.521 0 79.9999 0 15.4786 0 0 15.4786 0 80.0001zm32.2607 16.6191l25.0918-57.0266c4.2361-9.613 12.3825-14.8268 22.6474-14.8268 10.265 0 18.4113 5.2138 22.6481 14.8268l25.091 57.0266c1.141 2.77 2.118 6.3538 2.118 9.4498 0 14.175-9.939 24.114-24.114 24.114-4.828 0-8.6629-1.232-12.5444-2.479-3.9771-1.278-8.0036-2.572-13.1987-2.572-5.1349 0-9.2597 1.306-13.3154 2.589-3.9233 1.241-7.7814 2.462-12.4279 2.462-14.1752 0-24.1141-9.939-24.1141-24.114 0-3.096.9776-6.6798 2.1182-9.4498zm47.7392-47.0871L55.2344 105.581c7.332-3.422 15.8043-5.051 24.7655-5.051 8.6358 0 17.434 1.629 24.4401 5.051L79.9999 49.5321z" fill="#fff"/></svg>