<svg width="56" height="40" viewBox="0 0 56 40" fill="none" xmlns="http://www.w3.org/2000/svg">
<g clip-path="url(#clip0_724_8546)">
<mask id="mask0_724_8546" style="mask-type:luminance" maskUnits="userSpaceOnUse" x="10" y="-1" width="46" height="41">
<path d="M10.4961 -0.000732422H55.4788V39.2393H10.4961V-0.000732422Z" fill="white"/>
</mask>
<g mask="url(#mask0_724_8546)">
<path d="M32.9876 0L55.4788 39.2392H10.4961L32.9876 0Z" fill="#C30F2E"/>
</g>
<mask id="mask1_724_8546" style="mask-type:luminance" maskUnits="userSpaceOnUse" x="-1" y="5" width="40" height="35">
<path d="M-0.00565527 5.84473H38.2772V39.3421H-0.00585938L-0.00565527 5.84473Z" fill="white"/>
</mask>
<g mask="url(#mask1_724_8546)">
<path d="M19.1351 5.84473L38.276 39.3421H-0.00585938L19.1349 5.84473" fill="#DD0330"/>
</g>
<path d="M51.6649 29.323H3.93164V28.7988H51.6649V29.323Z" fill="white"/>
<mask id="mask2_724_8546" style="mask-type:luminance" maskUnits="userSpaceOnUse" x="5" y="19" width="44" height="19">
<path d="M5.94531 19.1233H48.8302V37.0686H5.94531V19.1233Z" fill="white"/>
</mask>
<g mask="url(#mask2_724_8546)">
<path d="M44.2906 36.9899C44.104 36.9899 43.9285 36.9123 43.7817 36.7657C42.905 35.8851 42.8668 32.304 42.9091 26.941C42.933 24.0105 42.9649 19.9963 42.4974 19.6795C42.0412 19.8686 41.9957 23.1847 41.966 25.38C41.9309 27.9343 41.8952 30.5772 41.4802 31.923C41.3567 32.3216 41.1972 32.6869 40.8764 32.6575C40.4242 32.6177 40.278 31.9036 39.9407 29.0862C39.8004 27.9161 39.6552 26.7065 39.4853 26.2383C39.4628 26.1793 39.4438 26.1321 39.4271 26.0955C39.2459 26.5048 39.037 27.6296 38.8918 28.4105C38.6907 29.4889 38.5009 30.5078 38.2632 30.9519C38.0797 31.2934 37.7885 31.7386 37.3817 31.6524C36.8272 31.536 36.6614 30.4183 36.6118 29.7626C36.6118 24.2456 35.8899 23.6035 35.7455 23.5308L35.7224 23.5484L35.6873 23.5404C35.1721 23.7654 35.1441 25.5548 35.1177 27.2849C35.0971 28.5541 35.0749 29.9923 34.8896 31.3381C34.6495 33.0827 34.3591 33.4192 33.9978 33.3986C33.1659 33.3418 33.1418 30.4765 33.1418 30.1502C33.1418 30.0481 33.1442 29.9276 33.1475 29.7944C33.1634 29.1277 33.192 27.8871 32.782 27.4962C32.7278 27.4444 32.6513 27.3845 32.5914 27.4015C32.2994 27.4748 31.9963 28.4232 31.8959 28.735C31.864 28.834 31.8385 28.9155 31.8168 28.9713C31.8001 29.0176 31.7787 29.083 31.7531 29.162C31.5322 29.8328 31.2808 30.502 30.8517 30.667C30.6929 30.7285 30.527 30.715 30.3714 30.6272C30.1648 30.51 29.9965 30.2707 29.8392 29.8727C29.7533 29.6525 29.68 29.4291 29.6048 29.2049C29.5139 28.9312 29.4206 28.6482 29.3048 28.3794C29.2139 28.1703 28.9875 28.0762 28.6987 28.1272C28.0987 28.2343 27.9983 28.8404 27.9137 29.753C27.8986 29.9117 27.8841 30.0675 27.8643 30.2141C27.8618 30.257 27.7556 31.5966 27.6878 32.0224C27.5004 33.1905 27.2539 33.6506 26.8446 33.6171C25.8348 33.5309 25.3715 29.1013 25.3962 27.2299C25.4152 25.8013 25.1568 25.2795 25.002 25.1966C24.9861 25.1892 24.9612 25.1757 24.9024 25.2172C24.7196 25.341 24.5568 25.7261 24.6071 26.1306C25.1632 30.5347 24.7531 35.5786 23.7488 36.7146C23.4322 37.072 23.0014 37.0673 22.7014 36.7657C21.8239 35.8849 21.7873 32.304 21.8288 26.941C21.8526 24.0105 21.8839 19.9963 21.4171 19.6795C20.9608 19.8686 20.9161 23.1847 20.8859 25.38C20.8508 27.9343 20.8148 30.5772 20.3993 31.923C20.2755 32.3216 20.116 32.6869 19.7962 32.6575C19.3431 32.6175 19.1979 31.9036 18.8597 29.0862C18.7192 27.9161 18.574 26.7065 18.4043 26.2383C18.3827 26.1793 18.3635 26.1321 18.3459 26.0955C18.1656 26.5048 17.9567 27.6296 17.8115 28.4105C17.6105 29.4889 17.4206 30.5078 17.1821 30.9519C16.9987 31.2934 16.7075 31.7386 16.3015 31.6524C15.7471 31.536 15.581 30.4183 15.5316 29.7626C15.5308 24.2456 14.8097 23.6035 14.6654 23.5308L14.6423 23.5484L14.6063 23.5404C14.0917 23.7654 14.0637 25.5546 14.0366 27.2849C14.0168 28.5541 13.9945 29.9923 13.8093 31.3381C13.5693 33.0827 13.2812 33.4225 12.9183 33.3986C12.0847 33.3418 12.0606 30.4765 12.0606 30.1502C12.0606 30.0481 12.0641 29.9276 12.0671 29.7944C12.0831 29.1277 12.1119 27.8871 11.7018 27.4962C11.6475 27.4444 11.5711 27.3845 11.5111 27.4013C11.219 27.4748 10.9152 28.4232 10.8163 28.7352C10.7845 28.8332 10.7573 28.9155 10.7373 28.9713C10.7142 29.034 10.6927 29.0974 10.6728 29.1612C10.4518 29.832 10.2004 30.502 9.77219 30.6673C9.6127 30.7285 9.44586 30.715 9.29107 30.6272C9.08461 30.51 8.91531 30.2707 8.75909 29.8727C8.67291 29.6525 8.59878 29.4291 8.52445 29.2049C8.43357 28.9312 8.33943 28.6482 8.22385 28.3794C8.13359 28.1703 7.9063 28.0762 7.61754 28.1272C6.92668 28.2502 6.76311 29.1069 6.6316 30.1296L6.60852 30.3113L6.08594 30.2419L6.11065 30.0634C6.2248 29.1667 6.39859 27.8113 7.52585 27.612C8.05619 27.5179 8.51975 27.738 8.70641 28.172C8.83159 28.4624 8.92981 28.756 9.02396 29.0407C9.09421 29.2551 9.16589 29.4697 9.2488 29.6819C9.39481 30.0522 9.50815 30.1479 9.55042 30.171C9.81447 30.0889 10.084 29.268 10.1733 28.9976C10.2012 28.9106 10.2253 28.8389 10.2443 28.7879C10.2627 28.7374 10.2866 28.6641 10.3154 28.5755C10.5531 27.8322 10.8515 27.0271 11.3812 26.8932C11.5431 26.8517 11.7937 26.8572 12.0655 27.1174C12.643 27.6688 12.6128 28.9553 12.5928 29.8073C12.5897 29.9349 12.5867 30.0513 12.5867 30.1504C12.5867 31.5096 12.7882 32.4596 12.9422 32.786C13.0218 32.6191 13.1585 32.2156 13.2885 31.267C13.4687 29.9525 13.4919 28.531 13.5111 27.2769C13.5461 25.0577 13.5708 23.4487 14.3741 23.0705C14.4938 22.9972 14.6925 22.9574 14.9022 23.0634C15.6793 23.4542 16.0565 25.6393 16.0565 29.7426C16.1053 30.3769 16.276 31.0444 16.4163 31.1402C16.4171 31.1259 16.5313 31.0557 16.7185 30.7046C16.9189 30.3321 17.1184 29.26 17.2938 28.3147C17.6822 26.2311 17.8586 25.4996 18.3181 25.4612C18.6681 25.4269 18.8301 25.8721 18.8981 26.0596C19.0894 26.5844 19.2314 27.7691 19.3815 29.0239C19.4987 29.997 19.6653 31.3867 19.8352 31.9491C19.8536 31.8997 19.8744 31.8407 19.8967 31.768C20.29 30.4941 20.326 27.8912 20.3603 25.3728C20.408 21.8746 20.4695 19.7075 21.1077 19.2552C21.2496 19.1547 21.4228 19.1298 21.5917 19.1866C22.3391 19.4347 22.3967 21.6259 22.3544 26.9459C22.3242 30.8035 22.2866 35.6049 23.0747 36.3963C23.1433 36.4657 23.1921 36.4657 23.2094 36.4657C23.2462 36.4657 23.2989 36.4306 23.3548 36.3677C24.1525 35.4655 24.6573 30.7277 24.0855 26.1968C24.0145 25.6328 24.2321 25.0401 24.604 24.7849C24.809 24.6436 25.0451 24.6254 25.2493 24.7346C25.7143 24.9817 25.9402 25.8235 25.9218 27.2371C25.8891 29.7052 26.4818 32.5936 26.8687 33.0547C26.93 32.9526 27.0513 32.6726 27.1677 31.9397C27.2331 31.5343 27.3409 30.1726 27.3425 30.159C27.3617 30.005 27.376 29.8559 27.3895 29.7044C27.4693 28.854 27.5674 27.7962 28.606 27.612C29.1357 27.5179 29.5993 27.7372 29.7868 28.172C29.9119 28.4624 30.0093 28.756 30.1033 29.0407C30.1752 29.2551 30.247 29.4697 30.33 29.6819C30.475 30.0522 30.5893 30.1479 30.6306 30.171C30.8946 30.0889 31.1652 29.268 31.2536 28.9984C31.2822 28.9114 31.3063 28.8387 31.3247 28.7877C31.3439 28.7383 31.367 28.6641 31.3949 28.5755C31.6335 27.8322 31.9318 27.0271 32.4622 26.8932C32.6225 26.8517 32.8738 26.8572 33.1459 27.1174C33.7234 27.6686 33.6932 28.9553 33.674 29.8073C33.6699 29.9216 33.6675 30.036 33.6668 30.1504C33.6668 31.5096 33.8686 32.4596 34.0225 32.786C34.1016 32.6191 34.238 32.2156 34.3695 31.267C34.5498 29.9525 34.5713 28.531 34.5921 27.2769C34.6264 25.0577 34.6511 23.4487 35.4545 23.0705C35.574 22.9972 35.7727 22.9574 35.9834 23.0634C36.7594 23.4542 37.1376 25.6391 37.1376 29.7426C37.1862 30.3769 37.3569 31.0444 37.4966 31.1402C37.4983 31.1259 37.6106 31.0557 37.7997 30.7046C37.9998 30.3321 38.1985 29.26 38.3748 28.3147C38.7617 26.2311 38.9388 25.4996 39.3983 25.4612C39.7493 25.4269 39.9113 25.8721 39.979 26.0596C40.1696 26.5844 40.3117 27.7691 40.463 29.0239C40.5788 29.997 40.7457 31.3867 40.9164 31.9491C40.934 31.8997 40.9546 31.8407 40.977 31.768C41.3702 30.4941 41.4053 27.8912 41.4404 25.3728C41.4874 21.8746 41.5497 19.7075 42.1878 19.2552C42.2571 19.2057 42.3373 19.1737 42.4215 19.1617C42.5058 19.1498 42.5917 19.1583 42.672 19.1866C43.4203 19.4347 43.4778 21.6259 43.4347 26.9459C43.4043 30.8035 43.367 35.6049 44.1542 36.3963C44.2244 36.4657 44.2722 36.4657 44.2906 36.4657C44.3266 36.4657 44.3792 36.4306 44.4342 36.3677C45.2335 35.4655 45.7377 30.7277 45.1657 26.1968C45.0915 25.6066 45.259 25.0114 45.5645 24.7824C45.7185 24.666 45.9059 24.6421 46.0783 24.7146C46.5235 24.9045 46.8249 25.7181 47.0005 27.2036C47.0738 27.8256 47.1394 28.4983 47.2023 29.162C47.3412 30.6105 47.5292 32.5626 47.7839 32.9916C47.8619 32.892 48.0216 32.6224 48.2585 31.8997L48.7586 32.0631C48.391 33.1807 48.1029 33.602 47.7279 33.5589C47.1449 33.4942 46.9764 32.3161 46.6789 29.2122C46.616 28.5516 46.5513 27.8832 46.4779 27.264C46.2545 25.3695 45.8749 25.198 45.8708 25.1964C45.7967 25.2339 45.6243 25.6281 45.6882 26.1306C46.2427 30.5347 45.8343 35.5796 44.8291 36.7146C44.6672 36.8972 44.4852 36.9897 44.2906 36.9897" fill="white"/>
</g>
</g>
<defs>
<clipPath id="clip0_724_8546">
<rect width="55.4846" height="39.3421" fill="white"/>
</clipPath>
</defs>
</svg>
