<svg xmlns="http://www.w3.org/2000/svg" width="41" height="50" viewBox="0 0 41 50" fill="none">
  <g clip-path="url(#clip0_724_8504)">
    <path d="M12.6534 41.7267C10.2003 39.5139 9.48427 34.8645 10.5063 31.4961C12.2784 33.6198 14.7338 34.2925 17.2771 34.6723C21.2034 35.2583 25.0593 35.0391 28.7067 33.2682C29.1239 33.0655 29.5095 32.7958 29.9655 32.5228C30.3077 33.5026 30.3967 34.4918 30.2772 35.4986C29.9865 37.9505 28.7501 39.8444 26.7834 41.2802C25.997 41.8544 25.1648 42.3678 24.3526 42.9093C21.8574 44.5736 21.1822 46.525 22.1199 49.3637C22.1422 49.4328 22.1621 49.502 22.2125 49.6707C20.9385 49.1082 20.0079 48.2889 19.2988 47.2118C18.5499 46.075 18.1936 44.8174 18.1748 43.4567C18.1655 42.7944 18.1655 42.1264 18.0752 41.4736C17.8549 39.882 17.0977 39.1694 15.6714 39.1283C14.2076 39.0862 13.0496 39.9793 12.7425 41.3856C12.7191 41.4935 12.6851 41.6001 12.6511 41.7255L12.6534 41.7267Z" fill="white"/>
    <path d="M0.316406 32.5273C0.316406 32.5273 7.02394 29.2679 13.7502 29.2679L18.8216 13.612C19.0114 12.8548 19.5658 12.3403 20.1917 12.3403C20.8175 12.3403 21.3719 12.8548 21.5618 13.612L26.6331 29.2679C34.5994 29.2679 40.0669 32.5273 40.0669 32.5273C40.0669 32.5273 28.6736 1.567 28.6513 1.50489C28.3244 0.58953 27.7724 0 27.0281 0H13.3564C12.6122 0 12.0824 0.58953 11.7331 1.50489C11.7085 1.56583 0.316406 32.5273 0.316406 32.5273Z" fill="white"/>
  </g>
  <defs>
    <clipPath id="clip0_724_8504">
      <rect width="40.5063" height="50" fill="white"/>
    </clipPath>
  </defs>
</svg>
