<svg width="128" height="128" viewBox="0 0 128 128" xmlns="http://www.w3.org/2000/svg">
  <g fill="none" fill-rule="evenodd">
    <path d="M64 0c35.346 0 64 28.654 64 64 0 35.346-28.654 64-64 64-35.346 0-64-28.654-64-64C0 28.654 28.654 0 64 0z" fill="#E04E39" fill-rule="nonzero"/>
    <path d="M65.265 24.128c8.246-.163 14.073 2.073 19.087 9.19 10.934 27.109-28.147 41.1-29.714 41.65l-.049.016s-1.18 7.363 10.028 7.08c13.793 0 28.294-10.691 33.81-15.21a3.293 3.293 0 0 1 4.468.265l4.13 4.29a3.291 3.291 0 0 1 .085 4.491c-3.59 3.997-12.014 12.203-24.696 17.504 0 0-21.16 9.798-35.42.52-8.503-5.53-10.842-12.151-11.793-19.038.005 0-10.324-.524-16.957-3.114-6.635-2.592.049-10.411.049-10.411s2.04-3.233 5.92 0c3.883 3.228 11.13 1.772 11.13 1.772.646-5.099 1.72-11.828 4.884-18.93 6.632-14.885 16.789-19.915 25.038-20.075zm4.853 14.915c-4.369-4.21-16.984 4.202-17.471 23.45 0 0 3.724 1.134 11.97-4.53 8.25-5.661 9.87-14.718 5.501-18.92z" fill="#FFFFFF"/>
  </g>
</svg>
