<svg width="60" height="50" viewBox="0 0 60 50" fill="none" xmlns="http://www.w3.org/2000/svg">
  <g clip-path="url(#clip0_724_8599)">
    <path d="M29.9375 8.17749H38.372C35.2646 13.2709 31.83 18.8784 28.3954 24.4625H19.9608C23.3954 18.8784 26.83 13.2709 29.9375 8.17749Z" fill="#8DC220"/>
    <path d="M9.98445 8.17749H18.419C16.7601 10.8878 15.0779 13.6214 13.419 16.3317L8.44239 24.4625C10.1013 27.1728 11.7601 29.9065 13.419 32.6167C15.0779 35.327 16.7368 38.0373 18.419 40.7476H9.98445C8.32557 38.0373 6.64333 35.327 4.98445 32.6167C3.32557 29.9298 1.66669 27.1962 0.0078125 24.4859L4.98445 16.3551C6.64333 13.6214 8.32557 10.9111 9.98445 8.17749Z" fill="#44BFEF"/>
    <path d="M9.98413 8.17749C13.4187 13.785 16.8533 19.3924 19.9608 24.4625H28.3953C25.2879 19.3924 21.8533 13.785 18.4187 8.17749H9.98413Z" fill="#00AC71"/>
    <path d="M38.372 8.17749H29.9374C31.5963 10.8878 33.2552 13.6214 34.9374 16.3317C36.5963 19.042 38.2552 21.7523 39.9374 24.4625C38.2786 27.1728 36.5963 29.9065 34.9374 32.6167C33.2786 35.327 31.6197 38.0373 29.9374 40.7476H38.372C40.0309 38.0373 41.6898 35.327 43.372 32.6167C45.0309 29.9065 46.6898 27.1962 48.372 24.4625C46.6898 21.7523 45.0309 19.042 43.372 16.3317C41.7131 13.6214 40.0309 10.9111 38.372 8.17749Z" fill="#F9BC00"/>
    <path d="M34.8907 13.9253H26.4561C25.3813 15.6776 24.3066 17.4533 23.2318 19.2057C22.157 20.958 21.0823 22.7337 19.9841 24.486H28.4187C29.4935 22.7337 30.5916 20.958 31.6664 19.2057C32.7178 17.43 33.7925 15.6776 34.8907 13.9253Z" fill="url(#paint0_linear_724_8599)"/>
    <path d="M23.4883 18.7382H31.9229C32.9976 16.9859 34.0724 15.2102 35.1472 13.4579C36.2219 11.7055 37.2967 9.92983 38.3715 8.17749H29.9369C28.8621 9.92983 27.7873 11.7055 26.7126 13.4579C25.6378 15.2336 24.563 16.9859 23.4883 18.7382Z" fill="url(#paint1_linear_724_8599)"/>
    <path d="M44.844 18.7382H36.4094C35.3346 16.9859 34.2365 15.2102 33.1617 13.4579C32.087 11.7055 31.0122 9.92983 29.9374 8.17749H38.372C39.4468 9.92983 40.5215 11.7055 41.5963 13.4579C42.6944 15.2336 43.7692 16.9859 44.844 18.7382Z" fill="url(#paint2_linear_724_8599)"/>
    <path d="M49.8212 8.17749H41.3866C43.0455 10.9111 44.7044 13.6214 46.3633 16.3317C48.0222 19.042 49.7044 21.7523 51.3633 24.4625C49.7044 27.1728 48.0222 29.9065 46.3633 32.6167C44.7044 35.327 43.0455 38.0373 41.3633 40.7476H49.7979C51.4567 38.0373 53.1156 35.327 54.7979 32.6167C56.4567 29.9065 58.1156 27.1962 59.7979 24.4625C58.139 21.7523 56.4801 19.042 54.7979 16.3317C53.1623 13.6214 51.4801 10.9111 49.8212 8.17749Z" fill="#DF1B1C"/>
    <path d="M56.2933 18.7382H47.8587C46.7606 16.9859 45.6858 15.2102 44.611 13.4579C43.5362 11.7055 42.4615 9.92983 41.3867 8.17749H49.8213C50.8961 9.92983 51.9708 11.7055 53.0456 13.4579C54.1204 15.2336 55.2185 16.9859 56.2933 18.7382Z" fill="url(#paint3_linear_724_8599)"/>
    <path d="M44.9141 35.0467H53.3486C54.4234 33.2944 55.4982 31.542 56.5729 29.7663C57.6477 28.014 58.7225 26.2383 59.8206 24.486H51.3627C50.2879 26.2383 49.2131 28.014 48.1384 29.7663C47.0636 31.5187 45.9888 33.271 44.9141 35.0467Z" fill="url(#paint4_linear_724_8599)"/>
    <path d="M33.4648 35.0468H41.8994C42.9742 33.2945 44.049 31.5188 45.1237 29.7665C46.1985 28.0141 47.2733 26.2384 48.3714 24.4861H39.9368C38.862 26.2384 37.7873 28.0141 36.7125 29.7665C35.6144 31.5188 34.5396 33.2711 33.4648 35.0468Z" fill="url(#paint5_linear_724_8599)"/>
    <path d="M14.9144 13.9253H6.47978C5.40501 15.6776 4.33024 17.4533 3.25548 19.2057C2.15735 20.958 1.08258 22.7337 0.0078125 24.486H8.44239C9.51716 22.7337 10.5919 20.9814 11.6667 19.2057C12.7415 17.4533 13.8162 15.6776 14.9144 13.9253Z" fill="url(#paint6_linear_724_8599)"/>
    <path d="M3.51172 18.7382H11.9463C13.0211 16.9859 14.0958 15.2102 15.1706 13.4579C16.2687 11.7055 17.3435 9.92983 18.4183 8.17749H9.98368C8.90892 9.92983 7.83415 11.6822 6.75938 13.4579C5.68462 15.2102 4.60985 16.9859 3.51172 18.7382Z" fill="url(#paint7_linear_724_8599)"/>
    <path d="M3.51172 30.2102H11.9463C13.0211 31.9625 14.0958 33.7382 15.1706 35.4906C16.2454 37.2429 17.3201 39.0186 18.3949 40.771H9.96032C8.88555 39.0186 7.78742 37.2663 6.71265 35.4906C5.66125 33.7382 4.58649 31.9859 3.51172 30.2102Z" fill="url(#paint8_linear_724_8599)"/>
    <path d="M24.8907 18.7382H16.4561C15.3813 16.9859 14.3066 15.2102 13.2318 13.4579C12.1337 11.7055 11.0589 9.92983 9.98413 8.17749H18.4187C19.4935 9.92983 20.5682 11.6822 21.643 13.4579C22.7411 15.2102 23.8159 16.9859 24.8907 18.7382Z" fill="url(#paint9_linear_724_8599)"/>
  </g>
  <defs>
    <linearGradient id="paint0_linear_724_8599" x1="763.985" y1="1069.03" x2="763.985" y2="12.9748" gradientUnits="userSpaceOnUse">
      <stop stop-color="#8AC23E"/>
      <stop offset="1" stop-color="#8AC23E" stop-opacity="0"/>
    </linearGradient>
    <linearGradient id="paint1_linear_724_8599" x1="767.409" y1="8.85338" x2="767.409" y2="1064.91" gradientUnits="userSpaceOnUse">
      <stop stop-color="#698932"/>
      <stop offset="1" stop-color="#698932" stop-opacity="0"/>
    </linearGradient>
    <linearGradient id="paint2_linear_724_8599" x1="776.159" y1="8.85338" x2="776.159" y2="1064.91" gradientUnits="userSpaceOnUse">
      <stop stop-color="#FFED01"/>
      <stop offset="1" stop-color="#FFED01" stop-opacity="0"/>
    </linearGradient>
    <linearGradient id="paint3_linear_724_8599" x1="786.967" y1="8.85338" x2="786.967" y2="1065.23" gradientUnits="userSpaceOnUse">
      <stop stop-color="#E02A89"/>
      <stop offset="1" stop-color="#E02A89" stop-opacity="0"/>
    </linearGradient>
    <linearGradient id="paint4_linear_724_8599" x1="789.69" y1="23.5144" x2="789.69" y2="1079.58" gradientUnits="userSpaceOnUse">
      <stop stop-color="#7F1E4F"/>
      <stop offset="1" stop-color="#7F1E4F" stop-opacity="0"/>
    </linearGradient>
    <linearGradient id="paint5_linear_724_8599" x1="778.27" y1="23.5145" x2="778.27" y2="1079.58" gradientUnits="userSpaceOnUse">
      <stop stop-color="#E95506"/>
      <stop offset="1" stop-color="#E95506" stop-opacity="0"/>
    </linearGradient>
    <linearGradient id="paint6_linear_724_8599" x1="744.992" y1="1069.03" x2="744.992" y2="13.6401" gradientUnits="userSpaceOnUse">
      <stop stop-color="#88D0F1"/>
      <stop offset="1" stop-color="#88D0F1" stop-opacity="0"/>
    </linearGradient>
    <linearGradient id="paint7_linear_724_8599" x1="749.152" y1="8.85338" x2="749.152" y2="1064.24" gradientUnits="userSpaceOnUse">
      <stop stop-color="#00828B"/>
      <stop offset="0.8325" stop-color="#00828B" stop-opacity="0"/>
    </linearGradient>
    <linearGradient id="paint8_linear_724_8599" x1="748.831" y1="1086.02" x2="748.831" y2="30.9601" gradientUnits="userSpaceOnUse">
      <stop stop-color="#2073BA"/>
      <stop offset="1" stop-color="#2073BA" stop-opacity="0"/>
    </linearGradient>
    <linearGradient id="paint9_linear_724_8599" x1="755.58" y1="8.85338" x2="755.58" y2="1064.24" gradientUnits="userSpaceOnUse">
      <stop stop-color="#8ED0E1"/>
      <stop offset="1" stop-color="#88D0F1" stop-opacity="0"/>
    </linearGradient>
    <clipPath id="clip0_724_8599">
      <rect width="59.8281" height="50" fill="white"/>
    </clipPath>
  </defs>
</svg>
