<svg width="50" height="50" viewBox="0 0 50 50" fill="none" xmlns="http://www.w3.org/2000/svg">
  <g clip-path="url(#clip0_724_8513)">
    <path d="M28.0504 41.6666H46.6376C47.2279 41.6666 47.8079 41.5126 48.3192 41.2201C48.8304 40.9275 49.2549 40.5066 49.55 39.9999C49.8451 39.493 50.0003 38.9182 50 38.3331C49.9997 37.748 49.8441 37.1733 49.5485 36.6667L37.0659 15.2382C36.7709 14.7315 36.3465 14.3108 35.8353 14.0182C35.3242 13.7257 34.7443 13.5716 34.1541 13.5716C33.5638 13.5716 32.9839 13.7257 32.4728 14.0182C31.9617 14.3108 31.5372 14.7315 31.2422 15.2382L28.0504 20.721L21.8101 9.99953C21.5148 9.49292 21.0902 9.0722 20.5789 8.7797C20.0676 8.48725 19.4876 8.33325 18.8973 8.33325C18.3069 8.33325 17.727 8.48725 17.2157 8.7797C16.7044 9.0722 16.2798 9.49292 15.9845 9.99953L0.451472 36.6667C0.155968 37.1733 0.000257186 37.748 3.18321e-07 38.3331C-0.000256549 38.9182 0.154949 39.493 0.450008 39.9999C0.745067 40.5066 1.16957 40.9275 1.68083 41.2201C2.19209 41.5126 2.77207 41.6666 3.36244 41.6666H15.0299C19.6527 41.6666 23.0618 39.6541 25.4076 35.7278L31.1027 25.9524L34.1532 20.721L43.3082 36.4351H31.1027L28.0504 41.6666ZM14.8397 36.4298L6.69728 36.4279L18.9027 15.4769L24.9928 25.9524L20.9152 32.9541C19.3574 35.5016 17.5876 36.4298 14.8397 36.4298Z" fill="#00DC82"/>
  </g>
  <defs>
    <clipPath id="clip0_724_8513">
      <rect width="50" height="50" fill="white"/>
    </clipPath>
  </defs>
</svg>
