<svg width="54" height="40" viewBox="0 0 54 40" fill="none" xmlns="http://www.w3.org/2000/svg">
  <g clip-path="url(#clip0_724_8573)">
    <path d="M18.2499 22.5728C16.2594 23.1377 14.9534 24.1282 14.0931 25.1178C14.9172 24.3969 16.0209 23.7349 17.5096 23.3129C19.0325 22.8813 20.3316 22.8844 21.4052 23.0917V22.2523C20.4893 22.1685 19.4395 22.2352 18.2499 22.5728ZM14.0021 15.5164L6.60966 17.4639C6.60966 17.4639 6.74422 17.6543 6.99376 17.9082L13.2618 16.2564C13.2618 16.2564 13.1729 17.401 12.4016 18.4248C13.8607 17.321 14.0021 15.5164 14.0021 15.5164ZM20.1904 32.8904C9.78681 35.6924 4.28277 23.6358 2.6164 17.3781C1.84654 14.4895 1.51035 12.3019 1.42078 10.8901C1.41226 10.7624 1.414 10.6342 1.42599 10.5068C0.886497 10.5391 0.628 10.8197 0.680491 11.6306C0.770059 13.0414 1.10625 15.2289 1.87611 18.1184C3.54186 24.3752 9.04652 36.4319 19.4501 33.6298C21.7145 33.0197 23.4157 31.9087 24.6929 30.4902C23.5156 31.5533 22.0426 32.3905 20.1904 32.8904ZM22.1451 8.13745V8.87795H26.2256C26.1421 8.6157 26.0577 8.37949 25.974 8.13745H22.1451Z" fill="#2D4552"/>
    <path d="M27.1391 14.2353C28.9742 14.7566 29.9449 16.0433 30.4579 17.1818L32.5042 17.763C32.5042 17.763 32.2251 13.7778 28.6205 12.7541C25.2484 11.7959 23.1733 14.6277 22.9209 14.9941C23.902 14.2952 25.3342 13.723 27.1391 14.2353ZM43.4273 17.2001C40.052 16.2378 37.9778 19.0754 37.7291 19.4366C38.7108 18.7386 40.1424 18.1662 41.9465 18.6807C43.7789 19.2027 44.7485 20.4879 45.2632 21.6273L47.3122 22.2105C47.3122 22.2105 47.0287 18.2248 43.4273 17.2001ZM41.3943 27.7073L24.3727 22.9487C24.3727 22.9487 24.5571 23.8829 25.264 25.0927L39.5955 29.0991C40.7752 28.4165 41.3943 27.7073 41.3943 27.7073ZM29.5933 37.95C16.1154 34.3365 17.7447 17.1641 19.9256 9.02679C20.8235 5.67321 21.7467 3.18074 22.5124 1.50978C22.0556 1.41584 21.6771 1.65642 21.3035 2.4167C20.4903 4.06516 19.4509 6.74948 18.4452 10.5072C16.265 18.6445 14.6355 35.8165 28.1127 39.43C34.4651 41.1318 39.414 38.5454 43.103 34.4831C39.6015 37.6547 35.1306 39.4329 29.5933 37.95Z" fill="#2D4552"/>
    <path d="M22.1463 28.8661V25.4007L12.5182 28.1311C12.5182 28.1311 13.2295 23.9972 18.2509 22.5729C19.7738 22.1413 21.0731 22.1442 22.1463 22.3515V8.1375H26.9673C26.4424 6.51549 25.9346 5.26675 25.508 4.39899C24.8025 2.96278 24.0793 3.9149 22.4375 5.2882C21.281 6.25428 18.3584 8.31538 13.9602 9.50038C9.56224 10.6864 6.00641 10.3719 4.52292 10.1149C2.41975 9.752 1.31973 9.29 1.42263 10.8899C1.5122 12.3009 1.84818 14.4887 2.61826 17.378C4.2838 23.635 9.78866 35.6914 20.1922 32.8894C22.9097 32.1572 24.8277 30.7098 26.1572 28.8651H22.1463V28.8659V28.8661ZM6.60985 17.464L14.0031 15.5164C14.0031 15.5164 13.7878 18.3605 11.0162 19.0912C8.24373 19.8211 6.60985 17.464 6.60985 17.464Z" fill="#E2574C"/>
    <path d="M49.9713 8.30195C48.0495 8.63876 43.4389 9.05848 37.7409 7.53125C32.0413 6.00485 28.2599 3.33532 26.7616 2.08054C24.6376 0.301688 23.7034 -0.934761 22.784 0.935327C21.9712 2.58462 20.9316 5.26894 19.9255 9.02682C17.7455 17.1641 16.116 34.3359 29.5932 37.9495C43.0673 41.5599 50.2408 25.8728 52.4211 17.7349C53.4271 13.9778 53.8683 11.1329 53.9895 9.29844C54.1281 7.22047 52.7006 7.8237 49.9713 8.30195ZM22.8935 15.0343C22.8935 15.0343 25.0173 11.7309 28.6196 12.7549C32.2242 13.7787 32.5033 17.7636 32.5033 17.7636L22.8935 15.0343ZM31.6868 29.8573C25.3506 28.0014 24.3735 22.9487 24.3735 22.9487L41.3943 27.7075C41.3943 27.7067 37.9586 31.6901 31.6868 29.8571V29.8573ZM37.7045 19.4737C37.7045 19.4737 39.8256 16.1729 43.4272 17.1996C47.0287 18.225 47.3122 22.2099 47.3122 22.2099L37.7047 19.4737H37.7045Z" fill="#2EAD33"/>
    <path d="M18.7802 26.3551L12.5167 28.1302C12.5167 28.1302 13.197 24.254 17.8112 22.718L14.2648 9.40747L13.9584 9.50058C9.56017 10.6866 6.00454 10.3721 4.52105 10.1151C2.41788 9.75241 1.31766 9.2902 1.42056 10.8903C1.51012 12.3013 1.84632 14.4889 2.61618 17.3782C4.28193 23.6352 9.7868 35.6916 20.1902 32.8896L20.4966 32.7934L18.7804 26.3549L18.7802 26.3551ZM6.6084 17.464L14.0017 15.5162C14.0017 15.5162 13.7863 18.3603 11.0147 19.091C8.24227 19.8208 6.6084 17.464 6.6084 17.464Z" fill="#D65348"/>
    <path d="M31.9726 29.927L31.686 29.8572C25.3498 28.0013 24.3727 22.9488 24.3727 22.9488L33.1497 25.4021L37.7963 7.5461L37.7401 7.53152C32.0407 6.00491 28.2593 3.33538 26.7608 2.08039C24.637 0.301539 23.7026 -0.934702 22.7832 0.935386C21.9712 2.58468 20.9316 5.269 19.9255 9.02688C17.7455 17.1642 16.116 34.336 29.5932 37.9493L29.8694 38.0118L31.9726 29.927ZM22.8935 15.0342C22.8935 15.0342 25.0173 11.7308 28.6196 12.7548C32.2242 13.7785 32.5033 17.7635 32.5033 17.7635L22.8935 15.0342Z" fill="#1D8D22"/>
    <path d="M19.1005 26.264L17.4207 26.7408C17.8178 28.9779 18.5172 31.1248 19.6149 33.0213C19.8062 32.9793 19.9957 32.943 20.1903 32.8897C20.7004 32.7522 21.1734 32.5816 21.6288 32.3958C20.4019 30.5753 19.5904 28.479 19.1005 26.264ZM18.4447 10.5076C17.5816 13.7293 16.8092 18.3666 17.0219 23.0179C17.4022 22.8527 17.8042 22.6988 18.2508 22.5721L18.5616 22.5026C18.1825 17.5343 19.0019 12.4716 19.9251 9.02702C20.144 8.21004 20.3782 7.39726 20.6277 6.58911C20.2212 6.84909 19.8062 7.0955 19.3833 7.32794C19.043 8.37952 18.73 9.43976 18.4447 10.5076Z" fill="#C04B41"/>
  </g>
  <defs>
    <clipPath id="clip0_724_8573">
      <rect width="53.3281" height="39.993" fill="white" transform="translate(0.671875 0.00341797)"/>
    </clipPath>
  </defs>
</svg>
