<svg width="49" height="50" viewBox="0 0 49 50" fill="none" xmlns="http://www.w3.org/2000/svg">
  <g clip-path="url(#clip0_724_8695)">
    <path fill-rule="evenodd" clip-rule="evenodd" d="M24.7037 44.1171L42.3042 49.5404L33.7455 41.5849L12.9611 22.265L17.8208 17.4058L15.5835 1.97827L1.21855 19.237C0.136763 21.1107 0.136785 23.4193 1.21861 25.293L10.3387 41.0891C11.4206 42.9629 13.4198 44.1171 15.5834 44.1171H24.7037Z" fill="#18B6F6"/>
    <path d="M33.8232 0.411987L15.5828 0.411989C13.4192 0.411989 11.42 1.56627 10.3382 3.44003L1.2179 19.2371L15.5828 1.97833L36.4456 22.2651L32.5583 26.1526L33.7449 41.5849L42.3035 49.5405C42.7971 49.6925 43.23 49.1754 42.9938 48.7163L39.0679 41.0892L48.188 25.2931C49.2699 23.4194 49.2699 21.1108 48.1881 19.2371L39.0678 3.44002C37.9861 1.56627 35.9869 0.411987 33.8232 0.411987Z" fill="#AC7EF4"/>
    <path d="M36.4452 22.265L15.5824 1.97827L17.8198 17.4058L12.9601 22.265L33.7445 41.5849L32.558 26.1525L36.4452 22.265Z" fill="white"/>
  </g>
  <defs>
    <clipPath id="clip0_724_8695">
      <rect width="48.5929" height="49.176" fill="white" transform="translate(0.406372 0.412109)"/>
    </clipPath>
  </defs>
</svg>
