<svg width="50" height="46" viewBox="0 0 50 46" fill="none" xmlns="http://www.w3.org/2000/svg">
  <g clip-path="url(#clip0_724_8679)">
    <path d="M41.1348 15.1752C40.6041 14.9932 40.069 14.8245 39.5299 14.6694C39.6205 14.2994 39.7038 13.9338 39.7779 13.5747C40.9928 7.67706 40.1985 2.92584 37.4857 1.36151C34.8846 -0.138163 30.6308 1.42558 26.3348 5.16443C25.9114 5.53357 25.4974 5.91335 25.0932 6.3034C24.8226 6.04403 24.5472 5.78969 24.2672 5.54052C19.7647 1.54283 15.2516 -0.142058 12.5417 1.42675C9.94301 2.9311 9.1735 7.39758 10.2673 12.9869C10.3761 13.5404 10.499 14.0911 10.6358 14.6384C9.99696 14.82 9.38053 15.0132 8.7906 15.2188C3.51176 17.0593 0.140625 19.9436 0.140625 22.9353C0.140625 26.0252 3.7597 29.1245 9.25783 31.0037C9.70358 31.1555 10.153 31.2961 10.6058 31.4254C10.4587 32.0149 10.3282 32.6084 10.2143 33.2051C9.17155 38.6974 9.98586 43.0583 12.5776 44.5532C15.2544 46.0968 19.7471 44.5103 24.1217 40.6861C24.4764 40.3752 24.8233 40.0555 25.1621 39.7273C25.5999 40.1497 26.0493 40.5598 26.5099 40.9571C30.7475 44.6034 34.9326 46.0758 37.5217 44.5769C40.196 43.0287 41.0652 38.3439 39.9368 32.6442C39.8479 32.1977 39.7482 31.7534 39.6378 31.3117C39.9533 31.2182 40.263 31.122 40.5649 31.0219C46.2808 29.1282 49.9998 26.0665 49.9998 22.9353C49.9998 19.9327 46.5197 17.029 41.1348 15.1752ZM39.8951 29.0002C39.6224 29.0904 39.3428 29.1775 39.0576 29.2622C38.4266 27.2645 37.5751 25.1404 36.5329 22.9456C37.5274 20.8033 38.3462 18.7063 38.9595 16.7216C39.4695 16.8693 39.9644 17.0249 40.4416 17.1891C45.0555 18.7775 47.8698 21.1258 47.8698 22.9353C47.8698 24.8627 44.8304 27.3648 39.8951 29.0002ZM37.8474 33.0579C38.3464 35.5781 38.4174 37.8568 38.0869 39.6383C37.7901 41.2391 37.193 42.3062 36.4544 42.7337C34.8833 43.6432 31.5231 42.461 27.8991 39.3425C27.4707 38.9731 27.0526 38.5919 26.6454 38.1992C28.0504 36.6627 29.4545 34.8766 30.8248 32.8927C33.2352 32.6789 35.5124 32.3291 37.5774 31.8517C37.6769 32.2516 37.7669 32.6538 37.8474 33.0579ZM17.1387 42.5765C15.6036 43.1185 14.3809 43.1341 13.6417 42.708C12.069 41.801 11.4152 38.2993 12.307 33.6025C12.413 33.0474 12.5344 32.4955 12.671 31.9472C14.7133 32.399 16.9739 32.7239 19.3899 32.9198C20.7696 34.861 22.2142 36.6452 23.67 38.2076C23.3607 38.507 23.0439 38.7987 22.7202 39.0825C20.7856 40.7734 18.8471 41.9731 17.1387 42.5765ZM9.9469 28.9883C7.51569 28.1573 5.50788 27.0773 4.13169 25.8988C2.89495 24.8399 2.27074 23.7884 2.27074 22.9353C2.27074 21.1197 4.97735 18.804 9.49174 17.2302C10.0396 17.0393 10.613 16.8591 11.208 16.6901C11.832 18.7195 12.6504 20.8414 13.638 22.9871C12.6375 25.1646 11.8075 27.3204 11.1774 29.3738C10.7641 29.2554 10.3539 29.1269 9.9469 28.9883ZM12.3577 12.5777C11.4207 7.78905 12.0429 4.17679 13.609 3.27018C15.277 2.30454 18.9654 3.68132 22.853 7.13329C23.1065 7.35889 23.3559 7.58908 23.6011 7.82372C22.1525 9.37928 20.7211 11.1503 19.3537 13.08C17.0088 13.2973 14.7642 13.6463 12.7005 14.114C12.5733 13.6049 12.459 13.0925 12.3577 12.5777ZM33.8647 17.8884C33.3772 17.0465 32.8717 16.2151 32.3485 15.3949C33.9393 15.5961 35.4635 15.8631 36.8948 16.1895C36.4651 17.5669 35.9296 19.0068 35.2991 20.4831C34.8383 19.6087 34.36 18.7437 33.8647 17.8884ZM25.0941 9.34598C26.0765 10.4104 27.0605 11.5986 28.0282 12.8879C26.065 12.7952 24.0986 12.7948 22.1353 12.8868C23.1041 11.6093 24.0964 10.4226 25.0941 9.34598ZM16.2673 17.9031C15.7782 18.7514 15.3088 19.6111 14.8598 20.4813C14.2397 19.0103 13.7089 17.5638 13.2756 16.1669C14.6981 15.8487 16.2151 15.5885 17.7958 15.391C17.2667 16.2162 16.7571 17.0539 16.2673 17.9031ZM17.8412 30.6312C16.2081 30.4489 14.6683 30.2021 13.2462 29.8924C13.6863 28.4707 14.2288 26.9934 14.8623 25.4908C15.3132 26.3617 15.7844 27.2219 16.2757 28.0706C16.7809 28.9432 17.304 29.7978 17.8412 30.6312ZM25.153 36.6746C24.1433 35.5855 23.1364 34.3805 22.153 33.0846C23.1078 33.122 24.081 33.1411 25.0702 33.1411C26.0865 33.1411 27.091 33.1183 28.0799 33.0743C27.109 34.3936 26.1287 35.6003 25.153 36.6746ZM35.3192 25.4141C35.9856 26.9332 36.5473 28.4027 36.9933 29.8001C35.5478 30.13 33.987 30.3957 32.3424 30.593C32.8694 29.7576 33.3797 28.9117 33.8731 28.056C34.3746 27.1862 34.8568 26.3053 35.3192 25.4141ZM32.0281 26.9918C31.2728 28.3038 30.4751 29.5909 29.6362 30.851C28.1166 30.9587 26.5936 31.0121 25.0702 31.0113C23.5185 31.0113 22.0093 30.963 20.556 30.8688C19.6952 29.6115 18.8823 28.3222 18.1189 27.0035C17.3592 25.6918 16.6498 24.3517 15.9917 22.9862C16.6481 21.6203 17.3556 20.2795 18.1127 18.9668L18.1125 18.967C18.8693 17.654 19.6758 16.3702 20.5301 15.1183C22.0128 15.0062 23.5333 14.9477 25.07 14.9477C26.6137 14.9477 28.1363 15.0067 29.6187 15.1197C30.4643 16.3697 31.2656 17.6491 32.0211 18.9555C32.7807 20.2654 33.4976 21.5995 34.1705 22.956C33.5045 24.3263 32.7899 25.6724 32.0281 26.9918ZM36.4219 3.20668C38.0914 4.16959 38.7407 8.05256 37.6918 13.1446C37.6248 13.4695 37.5496 13.8004 37.4678 14.136C35.399 13.6584 33.1528 13.3034 30.8011 13.0827C29.4311 11.1318 28.0115 9.35805 26.5864 7.82255C26.9599 7.46253 27.3423 7.11185 27.7332 6.77083C31.4142 3.56758 34.8545 2.30279 36.4219 3.20668ZM25.0702 18.4831C27.5291 18.4831 29.5225 20.4764 29.5225 22.9353C29.5225 25.3942 27.5291 27.3876 25.0702 27.3876C22.6113 27.3876 20.6179 25.3942 20.6179 22.9353C20.6179 20.4764 22.6113 18.4831 25.0702 18.4831Z" fill="#00D8FF"/>
  </g>
  <defs>
    <clipPath id="clip0_724_8679">
      <rect width="49.8594" height="44.4058" fill="white" transform="translate(0.140625 0.797119)"/>
    </clipPath>
  </defs>
</svg>
