<svg width="48" height="51" viewBox="0 0 48 51" fill="none" xmlns="http://www.w3.org/2000/svg">
  <g clip-path="url(#clip0_724_8645)">
    <g filter="url(#filter0_d_724_8645)">
      <path fill-rule="evenodd" clip-rule="evenodd" d="M21.4397 1.11776C19.6612 2.01272 15.9121 3.75514 13.881 5.1451C11.85 6.5351 12.1025 7.83001 11.2133 8.72497C10.324 9.61997 7.65626 11.8574 5.87773 13.1998C4.09924 14.5423 4.54385 18.1222 4.09924 19.4646C3.65462 20.8071 2.76536 23.9394 2.32074 25.2819C1.87611 26.6243 3.20999 28.4143 4.09924 30.2042C4.98849 31.9942 7.21162 36.9165 8.10086 38.7064C8.99014 40.4964 11.6579 39.6014 13.881 41.3913C16.1042 43.1813 19.2165 45.4189 21.4397 46.7613C23.6628 48.1037 24.5521 48.1037 26.7752 46.7613C28.9983 45.4189 32.1107 43.1813 34.3338 41.3913C36.557 39.6014 39.2247 40.4964 40.114 38.7064C41.0032 36.9165 43.2263 31.9942 44.1156 30.2042C45.0047 28.4143 46.3387 26.6243 45.894 25.2819C45.4494 23.9394 44.5602 20.8071 44.1156 19.4646C43.671 18.1222 44.1156 14.5423 42.3371 13.1998C40.5586 11.8574 38.4941 10.1481 37.0016 8.72497C35.509 7.30189 36.1123 6.48756 34.3338 5.1451C32.5553 3.80266 28.5537 2.01272 26.7752 1.11776C24.9967 0.222791 23.2182 0.222791 21.4397 1.11776Z" fill="white"/>
    </g>
    <path fill-rule="evenodd" clip-rule="evenodd" d="M15.1601 8.8748L23.4818 14.5551C23.6696 14.6802 23.889 14.7487 24.1141 14.7525C24.3396 14.7509 24.5596 14.6822 24.7464 14.5551L33.0744 8.8557C33.398 8.62405 33.5764 8.2378 33.544 7.83931C33.5116 7.44079 33.273 7.089 32.9164 6.91347L24.5947 2.79334C24.279 2.64018 23.9113 2.64018 23.5956 2.79334L15.2993 6.91347C14.9361 7.08994 14.6944 7.44855 14.6657 7.85355C14.637 8.2586 14.8256 8.64815 15.1601 8.8748ZM26.9407 16.3382C26.9414 16.7148 27.1257 17.0672 27.4339 17.2806L34.1051 21.8402C34.5322 22.1346 35.1036 22.0978 35.49 21.751L41.0862 16.7457C41.3356 16.5229 41.4741 16.2002 41.4643 15.8646C41.4546 15.529 41.2976 15.215 41.0356 15.0073L35.6923 10.7343C35.3039 10.4257 34.7621 10.4052 34.3518 10.6833L27.4339 15.4148C27.1312 15.6244 26.9475 15.9682 26.9407 16.3382ZM10.348 22.5406C10.6176 22.7828 10.7562 23.1401 10.7211 23.5022C10.686 23.8664 10.4757 24.1901 10.1583 24.3682L6.17453 26.7563C5.77069 26.9977 5.26082 26.9628 4.89301 26.6688C4.52524 26.3748 4.37592 25.8825 4.51778 25.4317L5.99113 20.7958C6.10671 20.4285 6.3997 20.1454 6.7689 20.0444C7.13787 19.937 7.53573 20.0311 7.81863 20.2927L10.348 22.5406ZM31.9552 23.0246L24.7528 18.0957C24.37 17.8382 23.8709 17.8382 23.4881 18.0957L16.2857 23.0246C15.9992 23.2229 15.8177 23.5415 15.7925 23.8907C15.7738 24.2422 15.9131 24.5836 16.1719 24.8204L23.368 31.2585C23.5755 31.4436 23.8432 31.5455 24.1204 31.545C24.3976 31.5449 24.6651 31.4431 24.8729 31.2585L32.069 24.8204C32.3285 24.5846 32.4661 24.2418 32.4421 23.8907C32.422 23.5415 32.2421 23.2216 31.9552 23.0246ZM12.7446 21.751L7.15466 16.7457C6.90314 16.5172 6.76435 16.1888 6.77524 15.8478C6.78131 15.5118 6.93685 15.1962 7.1989 14.9882L12.5422 10.6897C12.9333 10.382 13.4762 10.3615 13.8891 10.6388L20.8006 15.3702C21.1214 15.5806 21.3149 15.9399 21.3149 16.3254C21.3149 16.7109 21.1214 17.0703 20.8006 17.2806L14.1357 21.8402C13.706 22.1333 13.1339 22.0966 12.7446 21.751ZM41.4467 28.9405L35.7556 25.5336C35.3329 25.2789 34.7949 25.3305 34.4276 25.661L27.4718 31.8698C27.1785 32.1319 27.0406 32.5282 27.1076 32.9173C27.1746 33.3064 27.4368 33.6329 27.8007 33.7802L37.4502 37.6902C37.5826 37.7452 37.7244 37.7733 37.8676 37.773C38.3155 37.7744 38.722 37.5098 38.9047 37.098L41.8956 30.3988C42.1391 29.8686 41.9452 29.239 41.4467 28.9405ZM42.2371 20.7958L43.7105 25.4317H43.6978C43.8068 25.7785 43.7448 26.1568 43.5312 26.45C43.3175 26.7432 42.9776 26.9161 42.6165 26.9155C42.4139 26.9161 42.2149 26.8611 42.0411 26.7563L38.051 24.3682C37.7401 24.1864 37.537 23.863 37.5072 23.5022C37.4699 23.1398 37.6089 22.7816 37.8802 22.5406L40.4096 20.2863C40.6954 20.0303 41.0902 19.9368 41.4593 20.038C41.8283 20.1434 42.1203 20.4279 42.2371 20.7958ZM21.1294 32.9142C21.1975 32.5266 21.061 32.1313 20.769 31.8698L13.8132 25.661C13.446 25.3305 12.908 25.2789 12.4853 25.5336L6.79421 28.9405C6.30144 29.2403 6.10649 29.862 6.33894 30.3924L9.33622 37.0916C9.58457 37.6502 10.2266 37.9116 10.7906 37.6838L20.4339 33.7738C20.7978 33.6278 21.061 33.3027 21.1294 32.9142ZM24.5441 34.8246L32.284 37.9577C32.6624 38.1196 32.9239 38.4756 32.9669 38.8874C33.0159 39.3044 32.8307 39.7142 32.4864 39.9508L24.7401 45.332C24.5545 45.4624 24.3341 45.5334 24.1078 45.5356C23.8817 45.532 23.6616 45.4611 23.4755 45.332L15.7356 39.9508C15.3899 39.7148 15.2025 39.3054 15.2486 38.8874C15.3003 38.4712 15.5712 38.1157 15.9569 37.9577L23.6968 34.8246C23.9689 34.7161 24.2719 34.7161 24.5441 34.8246Z" fill="#BF4722"/>
  </g>
  <defs>
    <filter id="filter0_d_724_8645" x="0.232422" y="0.446533" width="47.7499" height="51.3215" filterUnits="userSpaceOnUse" color-interpolation-filters="sRGB">
      <feFlood flood-opacity="0" result="BackgroundImageFix"/>
      <feColorMatrix in="SourceAlpha" type="matrix" values="0 0 0 0 0 0 0 0 0 0 0 0 0 0 0 0 0 0 127 0" result="hardAlpha"/>
      <feOffset dy="2"/>
      <feGaussianBlur stdDeviation="1"/>
      <feColorMatrix type="matrix" values="0 0 0 0 0 0 0 0 0 0 0 0 0 0 0 0 0 0 0.202934 0"/>
      <feBlend mode="normal" in2="BackgroundImageFix" result="effect1_dropShadow_724_8645"/>
      <feBlend mode="normal" in="SourceGraphic" in2="effect1_dropShadow_724_8645" result="shape"/>
    </filter>
    <clipPath id="clip0_724_8645">
      <rect width="48" height="51" fill="white"/>
    </clipPath>
  </defs>
</svg>
