<svg width="49" height="46" viewBox="0 0 49 46" fill="none" xmlns="http://www.w3.org/2000/svg">
  <g clip-path="url(#clip0_724_8658)">
    <path d="M48.9977 9.9998C48.9977 9.9998 32.9266 -1.82621 20.4942 0.902735L19.5845 1.20595C17.7652 1.81239 16.2492 2.72204 15.3393 3.9349L14.7329 4.84455L10.1844 12.7286L18.0685 14.2446C21.4038 16.3674 25.6491 17.277 29.5911 16.3674L43.5396 19.0963L48.9977 9.9998Z" fill="#76B3E1"/>
    <path opacity="0.3" d="M48.9977 9.9998C48.9977 9.9998 32.9266 -1.82621 20.4942 0.902735L19.5845 1.20595C17.7652 1.81239 16.2492 2.72204 15.3393 3.9349L14.7329 4.84455L10.1844 12.7286L18.0685 14.2446C21.4038 16.3674 25.6491 17.277 29.5911 16.3674L43.5396 19.0963L48.9977 9.9998Z" fill="url(#paint0_linear_724_8658)"/>
    <path d="M15.3402 9.99996L14.1273 10.3032C8.97245 11.8193 7.45618 16.6709 10.1853 20.9161C13.2175 24.8581 19.5854 26.9807 24.7403 25.4646L43.5405 19.0968C43.5405 19.0968 27.4694 7.27082 15.3402 9.99996Z" fill="#518AC8"/>
    <path opacity="0.3" d="M15.3402 9.99996L14.1273 10.3032C8.97245 11.8193 7.45618 16.6709 10.1853 20.9161C13.2175 24.8581 19.5854 26.9807 24.7403 25.4646L43.5405 19.0968C43.5405 19.0968 27.4694 7.27082 15.3402 9.99996Z" fill="url(#paint1_linear_724_8658)"/>
    <path d="M40.2048 23.6454C36.732 19.3067 30.9752 17.5076 25.6499 19.0969L6.84968 25.1615L0.785156 35.7744L34.7467 41.5357L40.8113 30.6195C42.0241 28.497 41.7209 26.0713 40.2048 23.6454Z" fill="url(#paint2_linear_724_8658)"/>
    <path d="M34.1403 34.2582C30.6674 29.9195 24.9105 28.1204 19.5853 29.7097L0.785156 35.7742C0.785156 35.7742 16.8562 47.9035 29.2887 44.8711L30.1983 44.5679C35.3532 43.0518 37.1729 38.2002 34.1403 34.2582Z" fill="url(#paint3_linear_724_8658)"/>
  </g>
  <defs>
    <linearGradient id="paint0_linear_724_8658" x1="-217.222" y1="712.408" x2="3002.41" y2="2277.01" gradientUnits="userSpaceOnUse">
      <stop offset="0.1" stop-color="#76B3E1"/>
      <stop offset="0.3" stop-color="#DCF2FD"/>
      <stop offset="1" stop-color="#76B3E1"/>
    </linearGradient>
    <linearGradient id="paint1_linear_724_8658" x1="1986.14" y1="638.668" x2="1796.53" y2="1270.12" gradientUnits="userSpaceOnUse">
      <stop stop-color="#76B3E1"/>
      <stop offset="0.5" stop-color="#4377BB"/>
      <stop offset="1" stop-color="#1F3B77"/>
    </linearGradient>
    <linearGradient id="paint2_linear_724_8658" x1="437.439" y1="813.085" x2="3432.54" y2="2849.43" gradientUnits="userSpaceOnUse">
      <stop stop-color="#315AA9"/>
      <stop offset="0.5" stop-color="#518AC8"/>
      <stop offset="1" stop-color="#315AA9"/>
    </linearGradient>
    <linearGradient id="paint3_linear_724_8658" x1="2159.79" y1="508.887" x2="1742.22" y2="2040.21" gradientUnits="userSpaceOnUse">
      <stop stop-color="#4377BB"/>
      <stop offset="0.5" stop-color="#1A336B"/>
      <stop offset="1" stop-color="#1A336B"/>
    </linearGradient>
    <clipPath id="clip0_724_8658">
      <rect width="48.2188" height="45.0117" fill="white" transform="translate(0.78125 0.494141)"/>
    </clipPath>
  </defs>
</svg>
