<svg width="38" height="48" viewBox="0 0 38 48" fill="none" xmlns="http://www.w3.org/2000/svg">
  <g clip-path="url(#clip0_724_8623)">
    <path d="M1.60789 43.7836L0.150268 4.94068C0.101927 3.65765 1.08545 2.57034 2.36671 2.49051L35.4056 0.425596C36.7097 0.343993 37.833 1.33521 37.9146 2.63938C37.9175 2.68846 37.9191 2.73769 37.9191 2.78692V45.1133C37.9191 46.42 36.8599 47.4792 35.5532 47.4792C35.5178 47.4792 35.4823 47.4785 35.4471 47.4768L3.86617 46.0584C2.63621 46.0033 1.65416 45.014 1.60789 43.7836Z" fill="#FF4785"/>
    <mask id="mask0_724_8623" style="mask-type:luminance" maskUnits="userSpaceOnUse" x="0" y="0" width="38" height="48">
      <path d="M1.60594 43.7833L0.148315 4.94044C0.0999734 3.6574 1.0835 2.5701 2.36476 2.49027L35.4036 0.425352C36.7078 0.343749 37.831 1.33496 37.9126 2.63914C37.9156 2.68822 37.9172 2.73745 37.9172 2.78667V45.1131C37.9172 46.4197 36.858 47.479 35.5513 47.479C35.5158 47.479 35.4803 47.4782 35.4451 47.4766L3.86422 46.0582C2.63426 46.003 1.65221 45.0137 1.60594 43.7833Z" fill="white"/>
    </mask>
    <g mask="url(#mask0_724_8623)">
      <path d="M28.0369 6.20488L28.2627 0.777077L32.8 0.420654L32.9954 6.01802C32.9978 6.08532 32.9809 6.15192 32.9467 6.20994C32.9125 6.26796 32.8624 6.31498 32.8024 6.34545C32.7423 6.37591 32.6748 6.38855 32.6078 6.38188C32.5407 6.3752 32.477 6.34949 32.4242 6.30777L30.6746 4.92924L28.603 6.50069C28.5497 6.54121 28.4859 6.56572 28.4192 6.57135C28.3524 6.57697 28.2854 6.56349 28.2261 6.53246C28.1667 6.50144 28.1174 6.45416 28.0839 6.39615C28.0504 6.33814 28.0341 6.2718 28.0369 6.20488ZM22.2344 18.1575C22.2344 19.0781 28.4348 18.637 29.2671 17.9903C29.2671 11.722 25.9036 8.42798 19.7445 8.42798C13.5855 8.42798 10.1346 11.7731 10.1346 16.7908C10.1346 25.5302 21.9287 25.6976 21.9287 30.4644C21.9287 31.8026 21.2733 32.597 19.8318 32.597C17.9536 32.597 17.2109 31.6376 17.2983 28.3761C17.2983 27.6686 10.1346 27.448 9.91614 28.3761C9.36 36.2801 14.2843 38.5598 19.9192 38.5598C25.3794 38.5598 29.6601 35.6495 29.6601 30.3809C29.6601 21.0142 17.6915 21.2651 17.6915 16.6236C17.6915 14.742 19.0893 14.4912 19.9193 14.4912C20.7929 14.4912 22.3654 14.6452 22.2344 18.1575Z" fill="white"/>
    </g>
  </g>
  <defs>
    <clipPath id="clip0_724_8623">
      <rect width="37.8594" height="47.1584" fill="white" transform="translate(0.140747 0.420898)"/>
    </clipPath>
  </defs>
</svg>
