<svg width="43" height="50" viewBox="0 0 43 50" fill="none" xmlns="http://www.w3.org/2000/svg">
  <g clip-path="url(#clip0_724_8686)">
    <path d="M39.7864 6.6083C35.1486 -0.0295292 25.989 -1.9969 19.3664 2.22242L7.73528 9.63573C6.16403 10.6242 4.81632 11.9297 3.77829 13.4687C2.74026 15.0076 2.03476 16.7463 1.70687 18.5734C1.152 21.6512 1.63965 24.8261 3.09258 27.5955C2.09698 29.1057 1.41793 30.8022 1.09648 32.5823C0.765155 34.4463 0.809359 36.3576 1.2265 38.2043C1.64364 40.0509 2.42533 41.7957 3.5257 43.3362C8.16434 49.9747 17.3239 51.9412 23.9457 47.7219L35.5768 40.3089C37.1482 39.3205 38.496 38.0151 39.5341 36.4761C40.5721 34.9371 41.2775 33.1983 41.6052 31.3711C42.16 28.2934 41.6727 25.1186 40.2205 22.3489C41.2158 20.8386 41.8945 19.1422 42.2156 17.3622C42.5472 15.4983 42.5031 13.5869 42.086 11.7402C41.6689 9.89352 40.887 8.14876 39.7864 6.6083Z" fill="#FF3E00"/>
    <path d="M18.2297 43.9678C14.4794 44.9429 10.5192 43.4749 8.3104 40.2911C7.64834 39.3645 7.17803 38.3149 6.92705 37.204C6.67608 36.0931 6.6495 34.9433 6.84887 33.822C6.91639 33.4538 7.00931 33.0908 7.12696 32.7355L7.34611 32.0674L7.94205 32.5053C9.31868 33.5167 10.8579 34.2857 12.4934 34.7791L12.9257 34.9103L12.8859 35.3419C12.833 35.9559 12.9992 36.5687 13.355 37.0718C13.6795 37.54 14.1399 37.8974 14.674 38.0956C15.2081 38.2938 15.7902 38.3234 16.3416 38.1803C16.5945 38.1127 16.8355 38.0067 17.0563 37.8661L28.6911 30.4519C28.9758 30.2726 29.22 30.036 29.4082 29.7571C29.5964 29.4783 29.7245 29.1633 29.7843 28.8322C29.844 28.4942 29.8358 28.1478 29.7602 27.813C29.6845 27.4782 29.543 27.1619 29.3438 26.8824C29.0191 26.414 28.5586 26.0566 28.0243 25.8583C27.4901 25.6599 26.9078 25.6303 26.3562 25.7733C26.1037 25.8409 25.863 25.9467 25.6425 26.0871L21.2026 28.9173C20.4726 29.3815 19.6759 29.7313 18.8401 29.9548C15.0899 30.9299 11.1296 29.4619 8.92111 26.278C8.25901 25.3514 7.78866 24.3018 7.53766 23.191C7.28666 22.0801 7.26006 20.9303 7.45942 19.809C7.65662 18.7099 8.08103 17.6641 8.70551 16.7385C9.32999 15.8129 10.1408 15.0277 11.086 14.4333L22.7198 7.01825C23.4502 6.55334 24.2475 6.20306 25.0839 5.97961C28.8341 5.00445 32.7945 6.47247 35.0029 9.65624C35.665 10.5829 36.1354 11.6325 36.3864 12.7434C36.6374 13.8543 36.664 15.0041 36.4646 16.1254C36.3968 16.4934 36.3039 16.8564 36.1865 17.2118L35.9674 17.8799L35.3716 17.4428C33.9951 16.4307 32.4558 15.6614 30.8201 15.1679L30.3877 15.0366L30.4276 14.6051C30.48 13.9912 30.3139 13.3785 29.9584 12.8752C29.6339 12.407 29.1735 12.0496 28.6394 11.8514C28.1053 11.6531 27.5232 11.6236 26.9718 11.7668C26.7189 11.8344 26.4779 11.9403 26.2572 12.0809L14.6224 19.4955C14.3377 19.6746 14.0935 19.9111 13.9054 20.19C13.7173 20.4688 13.5894 20.7838 13.5299 21.1148C13.4698 21.4528 13.4778 21.7993 13.5533 22.1341C13.6288 22.469 13.7704 22.7854 13.9697 23.0648C14.2944 23.5332 14.7549 23.8906 15.2892 24.0889C15.8234 24.2873 16.4057 24.3169 16.9573 24.1739C17.2101 24.1062 17.4511 24.0003 17.6719 23.8598L22.111 21.0307C22.8408 20.5659 23.6375 20.2157 24.4734 19.9923C28.2235 19.0173 32.1839 20.4853 34.3925 23.6692C35.0546 24.5958 35.5249 25.6454 35.7759 26.7562C36.0268 27.867 36.0534 29.0168 35.8541 30.1381C35.6568 31.2372 35.2323 32.2831 34.6078 33.2089C33.9834 34.1347 33.1726 34.92 32.2274 35.5147L20.5937 42.9291C19.8633 43.394 19.0662 43.7443 18.2297 43.9678Z" fill="white"/>
  </g>
  <defs>
    <clipPath id="clip0_724_8686">
      <rect width="41.5625" height="50" fill="white" transform="translate(0.875)"/>
    </clipPath>
  </defs>
</svg>
