<svg width="46" height="42" viewBox="0 0 46 42" fill="none" xmlns="http://www.w3.org/2000/svg">
  <g clip-path="url(#clip0_724_8631)">
    <path d="M34.6953 12.8271L23.867 28.4836C23.7519 28.6499 23.5859 28.7742 23.394 28.8379C23.202 28.9016 22.9944 28.9013 22.8025 28.837C22.6112 28.7727 22.446 28.6479 22.3319 28.4813C22.2182 28.315 22.162 28.1159 22.1721 27.9146L22.6056 19.2707L15.6091 17.7869C15.4598 17.7553 15.3205 17.6874 15.2036 17.5891C15.087 17.4912 14.9964 17.3659 14.94 17.2245C14.8835 17.0831 14.8628 16.9299 14.8798 16.7786C14.897 16.6271 14.9514 16.4823 15.0382 16.357L25.8668 0.700462C25.9821 0.534296 26.1482 0.410032 26.3402 0.346348C26.5321 0.282663 26.7395 0.282998 26.9313 0.347302C27.1227 0.411481 27.2879 0.536342 27.4019 0.702939C27.5157 0.86961 27.5718 1.06848 27.5617 1.26966L27.1282 9.91375L34.1245 11.3975C34.2739 11.4291 34.4132 11.497 34.5302 11.5951C34.6469 11.693 34.7376 11.8183 34.7941 11.9598C34.8505 12.1012 34.8711 12.2545 34.8538 12.4059C34.8366 12.5573 34.7822 12.7019 34.6953 12.8271Z" fill="#FCC72B"/>
    <path d="M23.356 41.6193C23.068 41.6196 22.7828 41.5631 22.5167 41.4529C22.2506 41.3426 22.0089 41.1809 21.8056 40.977L11.5738 30.7462C11.1644 30.3347 10.9349 29.7776 10.9357 29.1972C10.9364 28.6167 11.1674 28.0602 11.5779 27.6498C11.9884 27.2395 12.5448 27.0087 13.1252 27.0079C13.7056 27.0071 14.2626 27.2364 14.6742 27.6456L23.356 36.3261L42.2688 17.4141C42.68 17.0029 43.2376 16.772 43.8191 16.772C44.4005 16.772 44.9582 17.003 45.3693 17.4142C45.7804 17.8253 46.0114 18.383 46.0114 18.9644C46.0114 19.5459 45.7804 20.1035 45.3692 20.5146L24.906 40.977C24.7027 41.181 24.4611 41.3427 24.1951 41.4529C23.9291 41.5632 23.644 41.6197 23.356 41.6193Z" fill="#729B1B"/>
    <path d="M23.3478 41.6193C23.6358 41.6197 23.9211 41.5631 24.1871 41.4529C24.4532 41.3427 24.6949 41.181 24.8983 40.9771L35.13 30.7462C35.5393 30.3348 35.7687 29.7777 35.7678 29.1973C35.767 28.6169 35.536 28.0605 35.1256 27.65C34.7151 27.2396 34.1587 27.0086 33.5783 27.0076C32.9979 27.007 32.4409 27.2364 32.0292 27.6456L23.3478 36.3262L4.43485 17.4141C4.02224 17.0099 3.46682 16.7849 2.88925 16.7879C2.31167 16.7909 1.75861 17.0216 1.35019 17.43C0.941782 17.8384 0.711019 18.3915 0.708037 18.9691C0.705055 19.5467 0.930094 20.1021 1.33427 20.5147L21.7977 40.9771C22.001 41.181 22.2426 41.3427 22.5086 41.4529C22.7745 41.5631 23.0599 41.6197 23.3478 41.6193Z" fill="#729B1B" fill-opacity="0.5"/>
  </g>
  <defs>
    <clipPath id="clip0_724_8631">
      <rect width="45.2969" height="41.4025" fill="white" transform="translate(0.703125 0.298828)"/>
    </clipPath>
  </defs>
</svg>
