<svg width="16" height="17" viewBox="0 0 16 17" fill="none" xmlns="http://www.w3.org/2000/svg">
<g clip-path="url(#clip0_975_26348)">
<path d="M7.7501 7.73463C7.05714 6.38696 5.17077 3.87585 3.41637 2.63782C1.73592 1.45143 1.09524 1.65671 0.675123 1.84732C0.18871 2.06598 0.100098 2.81313 0.100098 3.25173C0.100098 3.69161 0.341073 6.85361 0.497898 7.3821C1.01746 9.1263 2.86493 9.71535 4.56706 9.52665C4.65376 9.5139 4.74195 9.502 4.83162 9.49095C4.74365 9.50497 4.65546 9.51687 4.56706 9.52665C2.07316 9.8964 -0.142152 10.8048 2.76294 14.0389C5.95872 17.3475 7.14256 13.3293 7.7501 11.2925C8.35763 13.3293 9.05697 17.2028 12.6799 14.0389C15.4001 11.2925 13.427 9.8964 10.9331 9.52665C10.8447 9.5168 10.7565 9.5049 10.6686 9.49095C10.7578 9.502 10.846 9.5139 10.9331 9.52665C12.6353 9.71598 14.4827 9.1263 15.0023 7.3821C15.1591 6.85425 15.4001 3.69097 15.4001 3.25237C15.4001 2.8125 15.3115 2.06598 14.8251 1.84605C14.405 1.65607 13.7643 1.4508 12.0838 2.63655C10.3294 3.87648 8.44306 6.3876 7.7501 7.73463Z" fill="#08060D"/>
</g>
<defs>
<clipPath id="clip0_975_26348">
<rect width="15.3" height="15.3" fill="white" transform="translate(0.0996094 0.849609)"/>
</clipPath>
</defs>
</svg>
