<?xml version="1.0" encoding="utf-8"?>
<svg xmlns="http://www.w3.org/2000/svg" viewBox="0 0 100 100" width="100" height="100">
  <rect id="SVG-FBM-MARKER-V1" x="0" y="0" width="100" height="100" fill="rebeccapurple"/>
  <rect class="fbm-pad-000" x="0" y="0" width="3" height="3" fill="green"/>
  <rect class="fbm-pad-001" x="1" y="2" width="3" height="3" fill="green"/>
  <rect class="fbm-pad-002" x="2" y="4" width="3" height="3" fill="green"/>
  <rect class="fbm-pad-003" x="3" y="6" width="3" height="3" fill="green"/>
  <rect class="fbm-pad-004" x="4" y="8" width="3" height="3" fill="green"/>
  <rect class="fbm-pad-005" x="5" y="10" width="3" height="3" fill="green"/>
  <rect class="fbm-pad-006" x="6" y="12" width="3" height="3" fill="green"/>
  <rect class="fbm-pad-007" x="7" y="14" width="3" height="3" fill="green"/>
  <rect class="fbm-pad-008" x="8" y="16" width="3" height="3" fill="green"/>
  <rect class="fbm-pad-009" x="9" y="18" width="3" height="3" fill="green"/>
  <rect class="fbm-pad-010" x="10" y="20" width="3" height="3" fill="green"/>
  <rect class="fbm-pad-011" x="11" y="22" width="3" height="3" fill="green"/>
  <rect class="fbm-pad-012" x="12" y="24" width="3" height="3" fill="green"/>
  <rect class="fbm-pad-013" x="13" y="26" width="3" height="3" fill="green"/>
  <rect class="fbm-pad-014" x="14" y="28" width="3" height="3" fill="green"/>
  <rect class="fbm-pad-015" x="15" y="30" width="3" height="3" fill="green"/>
  <rect class="fbm-pad-016" x="16" y="32" width="3" height="3" fill="green"/>
  <rect class="fbm-pad-017" x="17" y="34" width="3" height="3" fill="green"/>
  <rect class="fbm-pad-018" x="18" y="36" width="3" height="3" fill="green"/>
  <rect class="fbm-pad-019" x="19" y="38" width="3" height="3" fill="green"/>
  <rect class="fbm-pad-020" x="20" y="40" width="3" height="3" fill="green"/>
  <rect class="fbm-pad-021" x="21" y="42" width="3" height="3" fill="green"/>
  <rect class="fbm-pad-022" x="22" y="44" width="3" height="3" fill="green"/>
  <rect class="fbm-pad-023" x="23" y="46" width="3" height="3" fill="green"/>
  <rect class="fbm-pad-024" x="24" y="48" width="3" height="3" fill="green"/>
  <rect class="fbm-pad-025" x="25" y="50" width="3" height="3" fill="green"/>
  <rect class="fbm-pad-026" x="26" y="52" width="3" height="3" fill="green"/>
  <rect class="fbm-pad-027" x="27" y="54" width="3" height="3" fill="green"/>
  <rect class="fbm-pad-028" x="28" y="56" width="3" height="3" fill="green"/>
  <rect class="fbm-pad-029" x="29" y="58" width="3" height="3" fill="green"/>
  <rect class="fbm-pad-030" x="30" y="60" width="3" height="3" fill="green"/>
  <rect class="fbm-pad-031" x="31" y="62" width="3" height="3" fill="green"/>
  <rect class="fbm-pad-032" x="32" y="64" width="3" height="3" fill="green"/>
  <rect class="fbm-pad-033" x="33" y="66" width="3" height="3" fill="green"/>
  <rect class="fbm-pad-034" x="34" y="68" width="3" height="3" fill="green"/>
  <rect class="fbm-pad-035" x="35" y="70" width="3" height="3" fill="green"/>
  <rect class="fbm-pad-036" x="36" y="72" width="3" height="3" fill="green"/>
  <rect class="fbm-pad-037" x="37" y="74" width="3" height="3" fill="green"/>
  <rect class="fbm-pad-038" x="38" y="76" width="3" height="3" fill="green"/>
  <rect class="fbm-pad-039" x="39" y="78" width="3" height="3" fill="green"/>
  <rect class="fbm-pad-040" x="40" y="80" width="3" height="3" fill="green"/>
  <rect class="fbm-pad-041" x="41" y="82" width="3" height="3" fill="green"/>
  <rect class="fbm-pad-042" x="42" y="84" width="3" height="3" fill="green"/>
  <rect class="fbm-pad-043" x="43" y="86" width="3" height="3" fill="green"/>
  <rect class="fbm-pad-044" x="44" y="88" width="3" height="3" fill="green"/>
  <rect class="fbm-pad-045" x="45" y="90" width="3" height="3" fill="green"/>
  <rect class="fbm-pad-046" x="46" y="92" width="3" height="3" fill="green"/>
  <rect class="fbm-pad-047" x="47" y="94" width="3" height="3" fill="green"/>
  <rect class="fbm-pad-048" x="48" y="96" width="3" height="3" fill="green"/>
  <rect class="fbm-pad-049" x="49" y="98" width="3" height="3" fill="green"/>
  <rect class="fbm-pad-050" x="50" y="0" width="3" height="3" fill="green"/>
  <rect class="fbm-pad-051" x="51" y="2" width="3" height="3" fill="green"/>
  <rect class="fbm-pad-052" x="52" y="4" width="3" height="3" fill="green"/>
  <rect class="fbm-pad-053" x="53" y="6" width="3" height="3" fill="green"/>
  <rect class="fbm-pad-054" x="54" y="8" width="3" height="3" fill="green"/>
  <rect class="fbm-pad-055" x="55" y="10" width="3" height="3" fill="green"/>
  <rect class="fbm-pad-056" x="56" y="12" width="3" height="3" fill="green"/>
  <rect class="fbm-pad-057" x="57" y="14" width="3" height="3" fill="green"/>
  <rect class="fbm-pad-058" x="58" y="16" width="3" height="3" fill="green"/>
  <rect class="fbm-pad-059" x="59" y="18" width="3" height="3" fill="green"/>
  <rect class="fbm-pad-060" x="60" y="20" width="3" height="3" fill="green"/>
  <rect class="fbm-pad-061" x="61" y="22" width="3" height="3" fill="green"/>
  <rect class="fbm-pad-062" x="62" y="24" width="3" height="3" fill="green"/>
  <rect class="fbm-pad-063" x="63" y="26" width="3" height="3" fill="green"/>
  <rect class="fbm-pad-064" x="64" y="28" width="3" height="3" fill="green"/>
  <rect class="fbm-pad-065" x="65" y="30" width="3" height="3" fill="green"/>
  <rect class="fbm-pad-066" x="66" y="32" width="3" height="3" fill="green"/>
  <rect class="fbm-pad-067" x="67" y="34" width="3" height="3" fill="green"/>
  <rect class="fbm-pad-068" x="68" y="36" width="3" height="3" fill="green"/>
  <rect class="fbm-pad-069" x="69" y="38" width="3" height="3" fill="green"/>
  <rect class="fbm-pad-070" x="70" y="40" width="3" height="3" fill="green"/>
  <rect class="fbm-pad-071" x="71" y="42" width="3" height="3" fill="green"/>
  <rect class="fbm-pad-072" x="72" y="44" width="3" height="3" fill="green"/>
  <rect class="fbm-pad-073" x="73" y="46" width="3" height="3" fill="green"/>
  <rect class="fbm-pad-074" x="74" y="48" width="3" height="3" fill="green"/>
  <rect class="fbm-pad-075" x="75" y="50" width="3" height="3" fill="green"/>
  <rect class="fbm-pad-076" x="76" y="52" width="3" height="3" fill="green"/>
  <rect class="fbm-pad-077" x="77" y="54" width="3" height="3" fill="green"/>
  <rect class="fbm-pad-078" x="78" y="56" width="3" height="3" fill="green"/>
  <rect class="fbm-pad-079" x="79" y="58" width="3" height="3" fill="green"/>
  <rect class="fbm-pad-080" x="80" y="60" width="3" height="3" fill="green"/>
  <rect class="fbm-pad-081" x="81" y="62" width="3" height="3" fill="green"/>
  <rect class="fbm-pad-082" x="82" y="64" width="3" height="3" fill="green"/>
  <rect class="fbm-pad-083" x="83" y="66" width="3" height="3" fill="green"/>
  <rect class="fbm-pad-084" x="84" y="68" width="3" height="3" fill="green"/>
  <rect class="fbm-pad-085" x="85" y="70" width="3" height="3" fill="green"/>
  <rect class="fbm-pad-086" x="86" y="72" width="3" height="3" fill="green"/>
  <rect class="fbm-pad-087" x="87" y="74" width="3" height="3" fill="green"/>
  <rect class="fbm-pad-088" x="88" y="76" width="3" height="3" fill="green"/>
  <rect class="fbm-pad-089" x="89" y="78" width="3" height="3" fill="green"/>
  <rect class="fbm-pad-090" x="90" y="80" width="3" height="3" fill="green"/>
  <rect class="fbm-pad-091" x="91" y="82" width="3" height="3" fill="green"/>
  <rect class="fbm-pad-092" x="92" y="84" width="3" height="3" fill="green"/>
  <rect class="fbm-pad-093" x="93" y="86" width="3" height="3" fill="green"/>
  <rect class="fbm-pad-094" x="94" y="88" width="3" height="3" fill="green"/>
  <rect class="fbm-pad-095" x="95" y="90" width="3" height="3" fill="green"/>
  <rect class="fbm-pad-096" x="96" y="92" width="3" height="3" fill="green"/>
  <rect class="fbm-pad-097" x="97" y="94" width="3" height="3" fill="green"/>
  <rect class="fbm-pad-098" x="98" y="96" width="3" height="3" fill="green"/>
  <rect class="fbm-pad-099" x="99" y="98" width="3" height="3" fill="green"/>
  <rect class="fbm-pad-100" x="0" y="0" width="3" height="3" fill="green"/>
  <rect class="fbm-pad-101" x="1" y="2" width="3" height="3" fill="green"/>
  <rect class="fbm-pad-102" x="2" y="4" width="3" height="3" fill="green"/>
  <rect class="fbm-pad-103" x="3" y="6" width="3" height="3" fill="green"/>
  <rect class="fbm-pad-104" x="4" y="8" width="3" height="3" fill="green"/>
  <rect class="fbm-pad-105" x="5" y="10" width="3" height="3" fill="green"/>
  <rect class="fbm-pad-106" x="6" y="12" width="3" height="3" fill="green"/>
  <rect class="fbm-pad-107" x="7" y="14" width="3" height="3" fill="green"/>
  <rect class="fbm-pad-108" x="8" y="16" width="3" height="3" fill="green"/>
  <rect class="fbm-pad-109" x="9" y="18" width="3" height="3" fill="green"/>
  <rect class="fbm-pad-110" x="10" y="20" width="3" height="3" fill="green"/>
  <rect class="fbm-pad-111" x="11" y="22" width="3" height="3" fill="green"/>
  <rect class="fbm-pad-112" x="12" y="24" width="3" height="3" fill="green"/>
  <rect class="fbm-pad-113" x="13" y="26" width="3" height="3" fill="green"/>
  <rect class="fbm-pad-114" x="14" y="28" width="3" height="3" fill="green"/>
  <rect class="fbm-pad-115" x="15" y="30" width="3" height="3" fill="green"/>
  <rect class="fbm-pad-116" x="16" y="32" width="3" height="3" fill="green"/>
  <rect class="fbm-pad-117" x="17" y="34" width="3" height="3" fill="green"/>
  <rect class="fbm-pad-118" x="18" y="36" width="3" height="3" fill="green"/>
  <rect class="fbm-pad-119" x="19" y="38" width="3" height="3" fill="green"/>
</svg>
