<svg width="20" height="19" viewBox="0 0 20 19" fill="none" xmlns="http://www.w3.org/2000/svg">
<path d="M16.2238 3.76798C15.0723 3.22923 13.8411 2.83769 12.5539 2.61475C12.3958 2.90056 12.2111 3.28497 12.0838 3.59078C10.7155 3.385 9.35971 3.385 8.01655 3.59078C7.88924 3.28497 7.70036 2.90056 7.54086 2.61475C6.25227 2.83769 5.01964 3.23067 3.86816 3.77083C1.54561 7.2805 0.91601 10.703 1.23081 14.0769C2.77125 15.2272 4.26411 15.9261 5.73178 16.3833C6.09416 15.8846 6.41735 15.3544 6.69577 14.7957C6.16551 14.5942 5.65763 14.3456 5.17774 14.0569C5.30505 13.9626 5.42959 13.864 5.5499 13.7625C8.47685 15.1315 11.6571 15.1315 14.549 13.7625C14.6708 13.864 14.7953 13.9626 14.9212 14.0569C14.4399 14.347 13.9306 14.5956 13.4004 14.7971C13.6788 15.3544 14.0006 15.886 14.3644 16.3847C15.8334 15.9275 17.3277 15.2287 18.8681 14.0769C19.2375 10.1657 18.2371 6.77462 16.2238 3.76798ZM7.09453 12.002C6.21588 12.002 5.49533 11.1817 5.49533 10.1828C5.49533 9.18394 6.2005 8.36226 7.09453 8.36226C7.98858 8.36226 8.70911 9.18251 8.69373 10.1828C8.69512 11.1817 7.98858 12.002 7.09453 12.002ZM13.0044 12.002C12.1258 12.002 11.4052 11.1817 11.4052 10.1828C11.4052 9.18394 12.1104 8.36226 13.0044 8.36226C13.8984 8.36226 14.619 9.18251 14.6036 10.1828C14.6036 11.1817 13.8984 12.002 13.0044 12.002Z" fill="#08060D"/>
</svg>
