<svg width="256" height="64" viewBox="0 0 256 64" fill="none" xmlns="http://www.w3.org/2000/svg">
<path fill-rule="evenodd" clip-rule="evenodd" d="M0.411092 50.1719C-0.214959 49.4086 -0.0780078 48.285 0.691788 47.667L7.98408 41.8119C8.62017 41.3012 9.55015 41.4165 10.0688 42.0462C15.022 48.0596 20.278 50.8435 26.0957 50.8435C31.8732 50.8435 36.9859 48.099 41.7222 42.1523C42.2305 41.5141 43.1582 41.3821 43.8035 41.8815L51.1954 47.602C51.976 48.2061 52.1332 49.3268 51.5203 50.1004C44.5175 58.9398 35.9435 63.597 26.0957 63.597C16.2766 63.597 7.62609 58.9689 0.411092 50.1719Z" fill="#202020"/>
<path fill-rule="evenodd" clip-rule="evenodd" d="M26.4487 17.1674C26.1739 16.924 25.7606 16.9239 25.4855 17.1671L9.62895 31.1881C9.02279 31.7241 8.09562 31.6619 7.56651 31.0497L1.38195 23.8942C0.860213 23.2906 0.922623 22.3792 1.52177 21.8523L25.0072 1.19951C25.5562 0.716746 26.3783 0.716854 26.9271 1.19976L50.4178 21.8682C51.0173 22.3957 51.079 23.308 50.556 23.9114L44.3565 31.0633C43.8267 31.6744 42.9001 31.7356 42.2946 31.1994L26.4487 17.1674Z" fill="#202020"/>
<path d="M83.1535 52.7596C77.5333 52.7596 72.8498 50.9382 69.051 47.2955C65.2522 43.6008 63.3788 38.8652 63.3788 33.0889C63.3788 27.2606 65.3042 22.473 69.103 18.7262C72.9539 14.9274 77.6374 13.054 83.2055 13.054C90.0747 13.054 96.1632 16.0202 99.7018 20.6517L93.5092 27.1565C90.543 23.9821 87.3166 22.3689 83.83 22.3689C80.8638 22.3689 78.418 23.3577 76.3885 25.3872C74.411 27.4167 73.4223 29.9666 73.4223 33.0369C73.4223 36.0031 74.411 38.5009 76.3885 40.5305C78.418 42.5079 80.8638 43.4967 83.778 43.4967C87.5768 43.4967 90.9073 41.8314 93.6653 38.553L100.118 44.7456C98.3488 47.0873 95.955 49.0128 92.9888 50.5219C90.0226 52.031 86.7442 52.7596 83.1535 52.7596ZM111.036 12.4816V52.1871H101.877V12.4816H111.036ZM119.717 20.9119C116.646 20.9119 114.409 18.6742 114.409 15.6039C114.409 12.6377 116.75 10.4 119.717 10.4C122.683 10.4 124.972 12.6377 124.972 15.6039C124.972 18.6742 122.683 20.9119 119.717 20.9119ZM124.348 23.4618V52.1871H115.137V23.4618H124.348ZM141.979 52.8116C137.452 52.8116 133.809 51.4066 130.947 48.5965C128.137 45.7864 126.732 42.1957 126.732 37.7724C126.732 33.3491 128.137 29.7584 130.999 26.9483C133.861 24.1383 137.556 22.7332 142.135 22.7332C148.12 22.7332 153.376 25.6474 155.821 31.1114L148.484 34.9623C147.027 32.5165 144.997 31.2676 142.343 31.2676C140.418 31.2676 138.857 31.892 137.608 33.141C136.411 34.3899 135.786 35.9511 135.786 37.7724C135.786 41.5712 138.545 44.3813 142.239 44.3813C144.893 44.3813 147.339 42.9242 148.38 40.6866L155.717 45.0578C153.219 49.8454 148.068 52.8116 141.979 52.8116ZM187.659 52.1871H176.731L168.249 40.7907L166.896 42.0396V52.1871H157.737V12.4816H166.896V31.788L175.534 23.4618H186.722L174.389 35.0144L187.659 52.1871ZM188.273 37.252V13.7305H198.057V37.0959C198.057 41.4151 200.555 43.4967 204.145 43.4967C207.684 43.4967 210.182 41.311 210.182 37.0959V13.7305H220.017V37.252C220.017 48.5965 212.159 52.8637 204.145 52.8637C196.183 52.8637 188.273 48.5965 188.273 37.252ZM241.759 22.7332C245.87 22.7332 249.201 24.1903 251.855 27.1045C254.509 29.9666 255.81 33.5573 255.81 37.7724C255.81 41.9876 254.457 45.5782 251.803 48.5444C249.149 51.4586 245.818 52.9157 241.811 52.9157C238.637 52.9157 235.879 51.8749 233.641 49.7934V63.9999H224.43V23.4618H233.485V26.1157C235.723 23.8781 238.481 22.7332 241.759 22.7332ZM246.443 37.8765C246.443 34.1297 243.737 31.2676 239.99 31.2676C236.243 31.2676 233.485 34.1297 233.485 37.8765C233.485 39.6978 234.109 41.259 235.306 42.56C236.555 43.8609 238.116 44.4854 239.99 44.4854C241.863 44.4854 243.424 43.8609 244.621 42.56C245.818 41.259 246.443 39.6978 246.443 37.8765Z" fill="#202020"/>
</svg>
