<?xml version="1.0" encoding="UTF-8"?>
<svg xmlns="http://www.w3.org/2000/svg" version="1.1" viewBox="130 56 710 350">
  <!-- Generator: Adobe Illustrator 28.7.5, SVG Export Plug-In . SVG Version: 1.2.0 Build 176)  -->
  <g>
    <g id="Layer_1">
      <g id="fn46EB">
        <g>
          <path d="M226.96,402.66c-32.46-84.39-64.41-167.47-96.57-251.08,2.07-.15,3.48-.33,4.88-.33,18.33-.02,36.66.12,54.99-.12,3.75-.05,5.14,1.42,6.34,4.6,12.4,32.76,24.92,65.48,37.42,98.2.64,1.68,1.42,3.3,2.71,6.26,2.06-4.05,3.68-6.99,5.08-10.04,14.41-31.4,28.72-62.84,43.32-94.15,1.08-2.31,4.35-5.2,6.37-5.04,2.41.2,5.57,2.93,6.71,5.37,15.41,32.95,30.52,66.03,45.72,99.07.58,1.27,1.39,2.44,2.67,4.65,1.38-3.28,2.39-5.48,3.26-7.74,12.37-32.23,24.73-64.47,37.08-96.71.83-2.16,1.29-4.22,4.56-4.2,18.66.09,37.32-.05,55.99-.09.45,0,.89.24,1.73.49-.56,1.8-.98,3.54-1.62,5.2-30.98,80.58-61.98,161.16-93.05,241.71-.63,1.64-2.21,2.92-3.35,4.36-1.09-1.32-2.52-2.48-3.2-3.99-16.7-36.92-33.25-73.91-50.09-110.77-1.12-2.45-4.23-5.24-6.64-5.47-1.97-.19-5.17,2.75-6.33,5.06-18.17,35.87-36.09,71.86-54.08,107.81-.95,1.89-2.05,3.7-3.88,6.97Z"/>
          <path d="M550.21,212.45v-59.73c2.24,0,4.2,0,6.16,0,60.16,0,120.31,0,180.47,0,.17,0,.33,0,.5,0,7.68.03,8.51,1.33,4.93,7.98-6.15,11.41-12.34,22.8-18.54,34.18-26.64,48.89-53.29,97.77-79.92,146.66-2.54,4.67-1.31,6.64,4.17,6.65,30.83.02,61.66.01,92.48.01,1.95,0,3.9,0,6.12,0v54.91h-5.58c-62.32,0-124.65,0-186.97,0-7.78,0-8.63-1.38-5.13-8.38,29.03-57.97,58.07-115.93,87.1-173.89,3.48-6.96,2.61-8.38-5.16-8.38-24.83-.01-49.66,0-74.49,0-1.96,0-3.92,0-6.14,0Z"/>
          <path d="M526.68,402.84h-60.32v-249.84h60.32v249.84Z"/>
          <path d="M785.45,161.15c-3.65-32.08-13.42-41.79-51.81-51.93,13.87-3.35,27.65-5.17,37.33-15.42,9.5-10.08,11.48-23.58,14.83-36.88,2.56,31.31,18.62,49.33,50.82,51.94-13.03,3.73-26.17,5.72-35.9,15.14-9.96,9.65-11.75,23.05-15.26,37.15Z"/>
        </g>
      </g>
    </g>
  </g>
</svg>