<svg width="61" height="44" viewBox="0 0 61 44" fill="none" xmlns="http://www.w3.org/2000/svg">
<g clip-path="url(#clip0_60_51)">
<path fill-rule="evenodd" clip-rule="evenodd" d="M54.5791 2.00754L57.6594 3.60552H57.6607C58.6347 4.10606 59.2412 5.09777 59.2412 6.19387V33.8882C59.2412 35.7565 57.7224 37.2715 55.8495 37.2715H50.9486C50.7072 37.3411 50.4549 37.3786 50.1973 37.3786H6.00442C4.89491 37.3786 3.90479 36.676 3.51975 35.6629H2.81137C1.77699 35.6629 0.938477 34.8264 0.938477 33.7945V2.92565C0.938477 1.89378 1.77699 1.05731 2.81137 1.05731H52.5841C53.11 1.05731 53.5849 1.27547 53.9257 1.62611C54.0894 1.7934 54.2946 1.90315 54.516 1.98077C54.5375 1.98746 54.5589 1.99683 54.5791 2.00754ZM1.89773 2.92565V33.7959L1.89639 33.7945C1.89639 34.2977 2.30692 34.7072 2.81137 34.7072H50.1009L53.499 8.94118V2.92565C53.499 2.42243 53.0885 2.01289 52.5841 2.01289H2.81272C2.30826 2.01289 1.89773 2.42243 1.89773 2.92565ZM49.9719 35.6856L49.8745 36.4243H6.00442C5.43424 36.4243 4.91369 36.1339 4.60244 35.6856H49.9719Z" fill="#191919"/>
<mask id="mask0_60_51" style="mask-type:luminance" maskUnits="userSpaceOnUse" x="0" y="0" width="61" height="39">
<path d="M61 0.121124H0V38.5041H61V0.121124Z" fill="white"/>
<path fill-rule="evenodd" clip-rule="evenodd" d="M54.5791 2.00751L57.6594 3.60549H57.6607C58.6347 4.10603 59.2412 5.09774 59.2412 6.19384V33.8881C59.2412 35.7564 57.7224 37.2714 55.8495 37.2714H50.9486C50.7072 37.3411 50.4549 37.3785 50.1973 37.3785H6.00442C4.89491 37.3785 3.90479 36.6759 3.51975 35.6628H2.81137C1.77699 35.6628 0.938477 34.8264 0.938477 33.7945V2.92562C0.938477 1.89375 1.77699 1.05728 2.81137 1.05728H52.5841C53.11 1.05728 53.5849 1.27544 53.9257 1.62608C54.0894 1.79337 54.2946 1.90312 54.516 1.98074C54.5375 1.98743 54.5589 1.9968 54.5791 2.00751ZM1.89773 2.92562V33.7958L1.89639 33.7945C1.89639 34.2977 2.30692 34.7072 2.81137 34.7072H50.1009L53.499 8.94115V2.92562C53.499 2.4224 53.0885 2.01286 52.5841 2.01286H2.81272C2.30826 2.01286 1.89773 2.4224 1.89773 2.92562ZM49.9719 35.6856L49.8745 36.4243H6.00442C5.43424 36.4243 4.91369 36.1339 4.60244 35.6856H49.9719Z" fill="black"/>
</mask>
<g mask="url(#mask0_60_51)">
<path d="M57.6594 3.6055L57.2264 4.43607L57.4299 4.54167H57.6594V3.6055ZM54.579 2.00752L54.1373 2.83358L54.146 2.83809L54.579 2.00752ZM57.6607 3.6055L58.0905 2.77326L57.8882 2.66933H57.6607V3.6055ZM50.9486 37.2714V36.3353H50.8157L50.6882 36.3721L50.9486 37.2714ZM3.51974 35.6628L4.39725 35.331L4.16759 34.7267H3.51974V35.6628ZM53.9257 1.62609L53.2519 2.27773L53.254 2.27997L53.9257 1.62609ZM54.516 1.98075L54.2048 2.86395L54.2203 2.8694L54.236 2.8743L54.516 1.98075ZM1.89772 33.7958L1.23391 34.4576L2.83618 36.057V33.7958H1.89772ZM1.89638 33.7945L2.56019 33.1327L0.957916 31.5333V33.7945H1.89638ZM50.1009 34.7072V35.6434H50.9239L51.0313 34.8294L50.1009 34.7072ZM53.499 8.94115L54.4295 9.06326L54.4374 9.00247V8.94115H53.499ZM49.8744 36.4243V37.3605H50.6975L50.8048 36.5464L49.8744 36.4243ZM49.9719 35.6856L50.9022 35.8077L51.0419 34.7494H49.9719V35.6856ZM4.60242 35.6856V34.7494H2.81096L3.8309 36.2185L4.60242 35.6856ZM58.0924 2.77492L55.0121 1.17694L54.146 2.83809L57.2264 4.43607L58.0924 2.77492ZM57.6607 2.66933H57.6594V4.54167H57.6607V2.66933ZM60.1796 6.19385C60.1796 4.74764 59.3773 3.43453 58.0905 2.77326L57.231 4.43773C57.8922 4.77755 58.3027 5.44786 58.3027 6.19385H60.1796ZM60.1796 33.8881V6.19385H58.3027V33.8881H60.1796ZM55.8495 38.2076C58.2407 38.2076 60.1796 36.2735 60.1796 33.8881H58.3027C58.3027 35.2395 57.2041 36.3353 55.8495 36.3353V38.2076ZM50.9486 38.2076H55.8495V36.3353H50.9486V38.2076ZM50.1973 38.3147C50.5465 38.3147 50.8863 38.2639 51.209 38.1708L50.6882 36.3721C50.5279 36.4183 50.3633 36.4424 50.1973 36.4424V38.3147ZM6.00441 38.3147H50.1973V36.4424H6.00441V38.3147ZM2.64222 35.9947C3.16282 37.3645 4.49742 38.3147 6.00441 38.3147V36.4424C5.29237 36.4424 4.64674 35.9874 4.39725 35.331L2.64222 35.9947ZM2.81136 36.599H3.51974V34.7267H2.81136V36.599ZM0 33.7945C0 35.3434 1.25867 36.599 2.81136 36.599V34.7267C2.29527 34.7267 1.87692 34.3093 1.87692 33.7945H0ZM0 2.92562V33.7945H1.87692V2.92562H0ZM2.81136 0.121124C1.25867 0.121124 0 1.37673 0 2.92562H1.87692C1.87692 2.41079 2.29527 1.99346 2.81136 1.99346V0.121124ZM52.5841 0.121124H2.81136V1.99346H52.5841V0.121124ZM54.5994 0.974457C54.0908 0.451028 53.3763 0.121124 52.5841 0.121124V1.99346C52.8435 1.99346 53.079 2.09986 53.2519 2.27773L54.5994 0.974457ZM54.8272 1.09755C54.6918 1.05006 54.6285 1.00413 54.5973 0.972211L53.254 2.27997C53.5501 2.58263 53.8974 2.7562 54.2048 2.86395L54.8272 1.09755ZM55.0207 1.1815C54.9587 1.14851 54.8829 1.11434 54.7959 1.0872L54.236 2.8743C54.1919 2.86054 54.159 2.84515 54.1373 2.83358L55.0207 1.1815ZM2.83618 33.7958V2.92562H0.959258V33.7958H2.83618ZM1.23257 34.4562L1.23391 34.4576L2.56153 33.134L2.56019 33.1327L1.23257 34.4562ZM2.81136 33.771C2.81359 33.771 2.81768 33.7717 2.82174 33.7734C2.82514 33.7749 2.82714 33.7764 2.82829 33.7776C2.82944 33.7787 2.83104 33.7808 2.83248 33.7841C2.8342 33.7881 2.83484 33.7923 2.83484 33.7945H0.957916C0.957916 34.8148 1.78861 35.6434 2.81136 35.6434V33.771ZM50.1009 33.771H2.81136V35.6434H50.1009V33.771ZM51.0313 34.8294L54.4295 9.06326L52.5686 8.81904L49.1704 34.5851L51.0313 34.8294ZM52.5605 2.92562V8.94115H54.4374V2.92562H52.5605ZM52.5841 2.94904C52.5818 2.94904 52.5777 2.94841 52.5736 2.9467C52.5703 2.94525 52.5683 2.94366 52.5671 2.94251C52.566 2.94136 52.5644 2.93938 52.563 2.93597C52.5612 2.93193 52.5605 2.92784 52.5605 2.92562H54.4374C54.4374 1.90538 53.6068 1.0767 52.5841 1.0767V2.94904ZM2.8127 2.94904H52.5841V1.0767H2.8127V2.94904ZM2.83618 2.92562C2.83618 2.92784 2.83554 2.93193 2.83383 2.93598C2.83238 2.93938 2.83078 2.94136 2.82963 2.94251C2.82849 2.94366 2.82649 2.94525 2.82308 2.9467C2.81903 2.94841 2.81493 2.94904 2.8127 2.94904V1.0767C1.78996 1.0767 0.959258 1.90537 0.959258 2.92562H2.83618ZM50.8048 36.5464L50.9022 35.8077L49.0414 35.5634L48.944 36.3022L50.8048 36.5464ZM49.8744 35.4881H6.00441V37.3605H49.8744V35.4881ZM6.00441 35.4881C5.75608 35.4881 5.51798 35.3601 5.37393 35.1525L3.8309 36.2185C4.30936 36.9077 5.11236 37.3605 6.00441 37.3605V35.4881ZM4.60242 36.6217H49.9719V34.7494H4.60242V36.6217Z" fill="#80EE37"/>
</g>
<path d="M29.4295 43.3061C44.4975 43.3061 56.7126 42.1772 56.7126 40.7846C56.7126 39.3921 44.4975 38.2632 29.4295 38.2632C14.3615 38.2632 2.14636 39.3921 2.14636 40.7846C2.14636 42.1772 14.3615 43.3061 29.4295 43.3061Z" fill="#191919"/>
<path d="M20.8302 33.223L17.7351 39.1385C17.4373 39.6886 16.6014 39.3567 16.7625 38.7558L18.5482 32.325C18.7306 31.6706 19.4095 31.2864 20.0655 31.4671C20.8155 31.6652 21.1938 32.5418 20.8302 33.2217V33.223Z" fill="white"/>
<path d="M20.6358 33.4396L20.689 33.3379V33.3286C21.0966 32.4041 20.5791 31.2814 19.5776 31.0153C18.6723 30.7673 17.7371 31.2978 17.4857 32.1996L15.6998 38.6308L15.6986 38.6349C15.3926 39.7773 16.9779 40.3945 17.5376 39.361L17.5407 39.3551L20.6358 33.4396Z" fill="#191919" stroke="#80EE37"/>
<path d="M39.7053 32.234L42.1256 38.7183C42.3362 39.3085 41.5258 39.7047 41.1878 39.18L37.5064 33.3168C37.1455 32.7412 37.3199 31.9824 37.8968 31.6211C38.5461 31.2049 39.445 31.5127 39.7066 32.234H39.7053Z" fill="white"/>
<path d="M39.5828 32.1996L39.5376 32.0748C39.1745 31.0736 37.9393 30.6481 37.0349 31.226C36.2405 31.7251 36.0005 32.7712 36.4983 33.565L40.1798 39.4285L40.1828 39.4332C40.8239 40.4281 42.3541 39.673 41.9573 38.5613L41.955 38.555L39.5828 32.1996Z" fill="#191919" stroke="#80EE37"/>
<path d="M15.4267 35.0498L12.3315 40.9653C12.0337 41.5153 11.1979 41.1834 11.3589 40.5825L13.1446 34.1518C13.3271 33.4973 14.0059 33.1133 14.6619 33.2953C15.4119 33.492 15.7902 34.3699 15.4267 35.0498Z" fill="white"/>
<path d="M12.1341 41.1877L12.1372 41.1818L15.2314 35.2681C15.7338 34.3256 15.2171 33.1192 14.1741 32.8434C13.2684 32.594 12.3335 33.1249 12.0821 34.0263L10.2963 40.4575L10.2952 40.4616C9.98917 41.6041 11.5744 42.2214 12.1341 41.1877Z" fill="#191919" stroke="#80EE37"/>
<path d="M45.1089 34.0593L47.5292 40.5436C47.7398 41.1337 46.9294 41.5299 46.5914 41.0053L42.91 35.1421C42.549 34.5665 42.7235 33.8077 43.3004 33.4464C43.9497 33.0301 44.8486 33.338 45.1102 34.0593H45.1089Z" fill="white"/>
<path d="M44.9882 34.0248L44.9429 33.9C44.5798 32.8989 43.3445 32.4734 42.4402 33.0512C41.6458 33.5504 41.4058 34.5964 41.9036 35.3902L45.5851 41.2537L45.5881 41.2584C46.2293 42.2533 47.7594 41.4984 47.3626 40.3866L47.3603 40.3802L44.9882 34.0248Z" fill="#191919" stroke="#80EE37"/>
<path d="M54.3566 2.43185L57.4369 4.02983C58.2486 4.44739 58.7598 5.28252 58.7598 6.19393V33.8895C58.7598 35.4942 57.4557 36.7951 55.8471 36.7951H49.8246" fill="#191919"/>
<path fill-rule="evenodd" clip-rule="evenodd" d="M2.8108 1.535H52.5835C53.3533 1.535 53.9774 2.15757 53.9774 2.92554V33.7944C53.9774 34.5624 53.3533 35.1849 52.5835 35.1849H2.8108C2.04096 35.1849 1.41687 34.5624 1.41687 33.7944V2.92554C1.41687 2.15757 2.04096 1.535 2.8108 1.535ZM51.7385 36.265C52.0243 35.9799 52.2308 35.6145 52.3221 35.2064H3.87895C4.09629 36.1767 4.96566 36.9021 6.00408 36.9021H50.197C50.7993 36.9021 51.3441 36.6585 51.7385 36.265Z" fill="white"/>
<path d="M50.2726 4.33893H5.12178C4.62237 4.33893 4.21753 4.74278 4.21753 5.24097V31.522C4.21753 32.0202 4.62237 32.4241 5.12178 32.4241H50.2726C50.7719 32.4241 51.1768 32.0202 51.1768 31.522V5.24097C51.1768 4.74278 50.7719 4.33893 50.2726 4.33893Z" fill="#191919"/>
<path d="M33.9295 34.2372H23.1871C22.9229 34.2372 22.7083 34.0231 22.7083 33.7593C22.7083 33.4957 22.9229 33.2816 23.1871 33.2816H33.9295C34.1938 33.2816 34.4084 33.4957 34.4084 33.7593C34.4084 34.0231 34.1938 34.2372 33.9295 34.2372Z" fill="#191919"/>
<path d="M57.6594 3.60552L54.5791 2.00754C54.5589 1.99683 54.5375 1.98746 54.516 1.98077C54.2946 1.90315 54.0894 1.7934 53.9257 1.62611C53.5849 1.27547 53.11 1.05731 52.5841 1.05731H2.81137C1.77699 1.05731 0.938477 1.89378 0.938477 2.92565V33.7945C0.938477 34.8264 1.77699 35.6629 2.81137 35.6629H3.51975C3.90479 36.676 4.89491 37.3786 6.00442 37.3786H50.1973C50.4549 37.3786 50.7072 37.3411 50.9486 37.2715H55.8495C57.7224 37.2715 59.2412 35.7565 59.2412 33.8882V6.19387C59.2412 5.09777 58.6347 4.10606 57.6607 3.60552H57.6594ZM1.89773 33.7959V2.92565C1.89773 2.42243 2.30826 2.01289 2.81272 2.01289H52.5841C53.0885 2.01289 53.4991 2.42243 53.4991 2.92565V33.7945C53.4991 34.2977 53.0885 34.7072 52.5841 34.7072H2.81137C2.30692 34.7072 1.89639 34.2977 1.89639 33.7945L1.89773 33.7959ZM6.00442 36.4243C5.43423 36.4243 4.91369 36.1339 4.60244 35.6856H51.6007C51.5416 35.7726 51.4745 35.8529 51.3981 35.9278C51.0774 36.2477 50.6508 36.4243 50.196 36.4243H6.00442ZM58.2819 33.8896C58.2819 35.2279 57.1899 36.3159 55.8495 36.3159H52.3278C52.4794 36.1152 52.6001 35.8931 52.6873 35.6588C53.6721 35.6053 54.4583 34.7916 54.4583 33.7945V3.02334L57.2193 4.45537C57.8754 4.79263 58.2819 5.45912 58.2819 6.19521V33.8909V33.8896Z" fill="#191919"/>
<path d="M50.2731 3.86124H5.12234C4.35896 3.86124 3.73914 4.48089 3.73914 5.24107V31.5221C3.73914 32.2836 4.3603 32.9019 5.12234 32.9019H50.2731C51.0365 32.9019 51.6563 32.2822 51.6563 31.5221V5.24107C51.6563 4.47955 51.0352 3.86124 50.2731 3.86124ZM50.6985 31.5221C50.6985 31.7563 50.508 31.9463 50.2731 31.9463H5.12234C4.88756 31.9463 4.69704 31.7563 4.69704 31.5221V5.24107C4.69704 5.00686 4.88756 4.81681 5.12234 4.81681H50.2731C50.508 4.81681 50.6985 5.00686 50.6985 5.24107V31.5221Z" fill="#191919"/>
<path d="M45.0816 31.7508H10.4235C10.3135 31.7508 10.229 31.6651 10.2397 31.5674C10.2397 31.5674 12.6936 26.0989 13.1134 19.4943C13.5844 12.0704 19.7464 6.18842 27.3024 6.18842H28.2013C35.7573 6.18842 41.6766 12.0905 42.3903 19.4943C43.0276 26.1002 45.264 31.5674 45.264 31.5674C45.2761 31.6651 45.1902 31.7508 45.0802 31.7508H45.0816Z" fill="white"/>
<path d="M27.0331 20.7953C27.0331 23.749 25.277 26.1433 23.1103 26.1433C22.9398 26.1433 22.7708 26.1286 22.6058 26.1005C23.5476 25.1235 24.1568 23.579 24.1568 21.8392C24.1568 19.1184 22.6675 16.874 20.7396 16.5354C21.3983 15.8541 22.2208 15.4487 23.1116 15.4487C25.2783 15.4487 27.0345 17.8429 27.0345 20.7966L27.0331 20.7953Z" fill="#191919"/>
<path d="M23.1116 26.6212C22.9157 26.6212 22.7185 26.6038 22.5253 26.5703C22.3509 26.5396 22.2074 26.4164 22.1524 26.2478C22.0973 26.0792 22.1403 25.8945 22.2624 25.7673C23.1491 24.8479 23.6791 23.3797 23.6791 21.8379C23.6791 19.3848 22.3804 17.3076 20.6578 17.0052C20.4833 16.9744 20.3398 16.8499 20.2848 16.6826C20.2298 16.514 20.2727 16.3293 20.3961 16.2022C21.1756 15.3951 22.1148 14.9695 23.1129 14.9695C25.5399 14.9695 27.5148 17.5833 27.5148 20.7954C27.5148 24.0074 25.5399 26.6212 23.1129 26.6212H23.1116ZM21.7137 16.3481C23.4295 17.1577 24.6371 19.3406 24.6371 21.8379C24.6371 23.2473 24.264 24.5735 23.5932 25.616C25.2649 25.2829 26.5541 23.2486 26.5541 20.794C26.5541 18.1094 25.01 15.9252 23.1116 15.9252C22.6246 15.9252 22.151 16.0697 21.7137 16.3481Z" fill="#191919"/>
<path d="M24.1569 21.8395C24.1569 23.578 23.5492 25.1238 22.606 26.1008C20.6781 25.7622 19.189 23.5178 19.189 20.7969C19.189 19.0585 19.7967 17.5127 20.7399 16.5357C22.6677 16.8743 24.1569 19.1187 24.1569 21.8395Z" fill="white"/>
<path d="M22.6062 26.5785C22.578 26.5785 22.5512 26.5759 22.523 26.5719C20.3482 26.1904 18.7087 23.7079 18.7087 20.7969C18.7087 18.9875 19.3232 17.3146 20.3938 16.2051C20.5038 16.09 20.6649 16.0391 20.8219 16.0659C22.9966 16.4473 24.6361 18.9299 24.6361 21.8408C24.6361 23.6503 24.0216 25.3232 22.951 26.4327C22.8597 26.5277 22.735 26.5785 22.6062 26.5785ZM20.9077 17.0629C20.1283 17.9878 19.668 19.3595 19.668 20.7956C19.668 23.1283 20.842 25.1211 22.4385 25.5707C23.218 24.646 23.6782 23.2742 23.6782 21.8381C23.6782 19.5054 22.5043 17.5127 20.9077 17.0629Z" fill="#191919"/>
<path d="M37.6696 20.7953C37.6696 23.749 35.9135 26.1433 33.7467 26.1433C33.5763 26.1433 33.4073 26.1286 33.2423 26.1005C34.1841 25.1235 34.7932 23.579 34.7932 21.8392C34.7932 19.1184 33.304 16.874 31.3761 16.5354C32.0348 15.8541 32.8573 15.4487 33.7481 15.4487C35.9148 15.4487 37.6709 17.8429 37.6709 20.7966L37.6696 20.7953Z" fill="#191919"/>
<path d="M33.7462 26.6212C33.5503 26.6212 33.3532 26.6038 33.1599 26.5703C32.9856 26.5396 32.842 26.4164 32.787 26.2478C32.732 26.0792 32.7749 25.8945 32.897 25.7673C33.7838 24.8479 34.3138 23.3797 34.3138 21.8379C34.3138 19.3848 33.015 17.3076 31.2924 17.0052C31.118 16.9744 30.9744 16.8499 30.9194 16.6826C30.8645 16.514 30.9073 16.3293 31.0308 16.2022C31.8102 15.3951 32.7494 14.9695 33.7476 14.9695C36.1746 14.9695 38.1495 17.5833 38.1495 20.7954C38.1495 24.0074 36.1746 26.6212 33.7476 26.6212H33.7462ZM32.3483 16.3481C34.0642 17.1577 35.2717 19.3406 35.2717 21.8379C35.2717 23.2473 34.8987 24.5735 34.2279 25.616C35.8995 25.2829 37.1888 23.2486 37.1888 20.794C37.1888 18.1094 35.6446 15.9252 33.7462 15.9252C33.2592 15.9252 32.7857 16.0697 32.3483 16.3481Z" fill="#191919"/>
<path d="M34.7916 21.8395C34.7916 23.578 34.1839 25.1238 33.2407 26.1008C31.3128 25.7622 29.8236 23.5178 29.8236 20.7969C29.8236 19.0585 30.4314 17.5127 31.3745 16.5357C33.3024 16.8743 34.7916 19.1187 34.7916 21.8395Z" fill="white"/>
<path d="M33.2407 26.5785C33.2126 26.5785 33.1857 26.5759 33.1576 26.5719C30.9828 26.1904 29.3434 23.7079 29.3434 20.7969C29.3434 18.9875 29.9578 17.3146 31.0284 16.2051C31.1385 16.09 31.2994 16.0391 31.4564 16.0659C33.6312 16.4473 35.2706 18.9299 35.2706 21.8408C35.2706 23.6503 34.6562 25.3232 33.5855 26.4327C33.4943 26.5277 33.3696 26.5785 33.2407 26.5785ZM31.541 17.0629C30.7615 17.9878 30.3013 19.3595 30.3013 20.7956C30.3013 23.1283 31.4752 25.1211 33.0717 25.5707C33.8512 24.646 34.3114 23.2742 34.3114 21.8381C34.3114 19.5054 33.1375 17.5127 31.541 17.0629Z" fill="#191919"/>
</g>
<defs>
<clipPath id="clip0_60_51">
<rect width="61" height="44" fill="white"/>
</clipPath>
</defs>
</svg>
