<svg viewBox="0 0 1440 495" fill="none" xmlns="http://www.w3.org/2000/svg">
<rect y="191" width="315" height="146" rx="10" fill="#C3E88C"/>
<text fill="#15505C" xml:space="preserve" style="white-space: pre" font-family="Inter" font-size="40" font-weight="600" letter-spacing="0em"><tspan x="105.5" y="278.545">Entry</tspan></text>
<rect x="556" width="360" height="141" rx="10" fill="#C3E88C"/>
<text fill="#15505C" xml:space="preserve" style="white-space: pre" font-family="Inter" font-size="40" font-weight="600" letter-spacing="0em"><tspan x="594" y="85.0455">async chunk A</tspan></text>
<rect x="1080" y="169" width="360" height="141" rx="10" fill="#C3E88C"/>
<text fill="#15505C" xml:space="preserve" style="white-space: pre" font-family="Inter" font-size="40" font-weight="600" letter-spacing="0em"><tspan x="1091.5" y="254.045">common chunk C</tspan></text>
<rect x="556" y="354" width="360" height="141" rx="10" fill="#C3E88C"/>
<text fill="#15505C" xml:space="preserve" style="white-space: pre" font-family="Inter" font-size="40" font-weight="600" letter-spacing="0em"><tspan x="595.5" y="439.045">async chunk B</tspan></text>
<path d="M546.44 71.5452C546.741 70.1977 545.893 68.8613 544.545 68.5602L522.587 63.6533C521.239 63.3522 519.903 64.2004 519.602 65.5479C519.301 66.8954 520.149 68.2318 521.496 68.5329L541.015 72.8946L536.653 92.4132C536.352 93.7607 537.2 95.0971 538.548 95.3983C539.895 95.6994 541.232 94.8511 541.533 93.5036L546.44 71.5452ZM326.34 212.111L334.161 207.146L331.482 202.925L323.66 207.889L326.34 212.111ZM349.804 197.218L365.447 187.289L362.767 183.068L347.125 192.996L349.804 197.218ZM381.09 177.361L396.733 167.432L394.053 163.211L378.41 173.139L381.09 177.361ZM412.375 157.504L428.018 147.575L425.339 143.354L409.696 153.282L412.375 157.504ZM443.661 137.646L459.304 127.718L456.625 123.496L440.982 133.425L443.661 137.646ZM474.947 117.789L490.59 107.861L487.91 103.639L472.267 113.568L474.947 117.789ZM506.233 97.9322L521.875 88.0036L519.196 83.7821L503.553 93.7107L506.233 97.9322ZM537.518 78.075L545.34 73.1107L542.66 68.8893L534.839 73.8536L537.518 78.075ZM548.88 72.0904C549.482 69.3955 547.785 66.7226 545.09 66.1204L501.174 56.3065C498.479 55.7043 495.806 57.4008 495.203 60.0958C494.601 62.7907 496.298 65.4636 498.993 66.0658L538.03 74.7892L529.307 113.826C528.704 116.521 530.401 119.194 533.096 119.796C535.791 120.399 538.464 118.702 539.066 116.007L548.88 72.0904ZM327.679 214.221L335.501 209.257L330.142 200.814L322.321 205.779L327.679 214.221ZM351.144 199.329L366.787 189.4L361.428 180.957L345.785 190.886L351.144 199.329ZM382.429 179.471L398.072 169.543L392.713 161.1L377.071 171.029L382.429 179.471ZM413.715 159.614L429.358 149.686L423.999 141.243L408.356 151.171L413.715 159.614ZM445.001 139.757L460.644 129.829L455.285 121.386L439.642 131.314L445.001 139.757ZM476.287 119.9L491.929 109.971L486.571 101.529L470.928 111.457L476.287 119.9ZM507.572 100.043L523.215 90.1143L517.856 81.6714L502.213 91.6L507.572 100.043ZM538.858 80.1858L546.679 75.2215L541.321 66.7785L533.499 71.7428L538.858 80.1858Z" fill="#0B7285"/>
<path d="M544.718 442.395C546.04 441.998 546.791 440.605 546.395 439.282L539.935 417.729C539.539 416.407 538.145 415.656 536.823 416.052C535.5 416.449 534.749 417.842 535.146 419.165L540.888 438.323L521.729 444.065C520.407 444.461 519.656 445.855 520.052 447.177C520.449 448.5 521.842 449.251 523.165 448.854L544.718 442.395ZM323.814 324.201L331.636 328.415L334.007 324.013L326.186 319.799L323.814 324.201ZM347.278 336.844L362.921 345.272L365.293 340.871L349.65 332.442L347.278 336.844ZM378.564 353.701L394.207 362.129L396.579 357.728L380.936 349.299L378.564 353.701ZM409.85 370.558L425.493 378.987L427.864 374.585L412.222 366.156L409.85 370.558ZM441.136 387.415L456.778 395.844L459.15 391.442L443.507 383.013L441.136 387.415ZM472.421 404.272L488.064 412.701L490.436 408.299L474.793 399.871L472.421 404.272ZM503.707 421.129L519.35 429.558L521.722 425.156L506.079 416.728L503.707 421.129ZM534.993 437.987L542.814 442.201L545.186 437.799L537.364 433.585L534.993 437.987ZM545.435 444.79C548.081 443.997 549.582 441.21 548.79 438.565L535.871 395.459C535.078 392.814 532.291 391.312 529.646 392.105C527 392.898 525.499 395.685 526.292 398.33L537.775 436.646L499.459 448.129C496.814 448.922 495.312 451.709 496.105 454.354C496.898 457 499.685 458.501 502.33 457.708L545.435 444.79ZM322.628 326.402L330.45 330.616L335.193 321.813L327.372 317.598L322.628 326.402ZM346.093 339.045L361.735 347.473L366.479 338.67L350.836 330.241L346.093 339.045ZM377.378 355.902L393.021 364.33L397.765 355.527L382.122 347.098L377.378 355.902ZM408.664 372.759L424.307 381.187L429.05 372.384L413.407 363.955L408.664 372.759ZM439.95 389.616L455.593 398.045L460.336 389.241L444.693 380.813L439.95 389.616ZM471.235 406.473L486.878 414.902L491.622 406.098L475.979 397.67L471.235 406.473ZM502.521 423.33L518.164 431.759L522.907 422.955L507.265 414.527L502.521 423.33ZM533.807 440.187L541.628 444.402L546.372 435.598L538.55 431.384L533.807 440.187Z" fill="#0B7285"/>
<text fill="#0B7285" xml:space="preserve" style="white-space: pre" font-family="Inter" font-size="35" letter-spacing="0em"><tspan x="172" y="98.7273">dynamic import</tspan></text>
<text fill="#1864AB" xml:space="preserve" style="white-space: pre" font-family="Inter" font-size="35" letter-spacing="0em"><tspan x="1013" y="83.7273">direct import</tspan></text>
<path d="M1071.89 171.899C1074.05 171.404 1075.39 169.258 1074.9 167.105L1066.85 132.017C1066.35 129.864 1064.21 128.519 1062.05 129.014C1059.9 129.508 1058.55 131.654 1059.05 133.807L1066.21 164.996L1035.02 172.154C1032.86 172.648 1031.52 174.795 1032.01 176.948C1032.51 179.101 1034.65 180.446 1036.81 179.952L1071.89 171.899ZM918.876 77.3895L1068.88 171.389L1073.12 164.611L923.124 70.6105L918.876 77.3895Z" fill="#1864AB"/>
<path d="M1074.95 317.66C1075.31 315.481 1073.84 313.419 1071.66 313.055L1036.15 307.114C1033.97 306.75 1031.91 308.22 1031.55 310.399C1031.18 312.578 1032.65 314.64 1034.83 315.004L1066.39 320.285L1061.11 351.846C1060.75 354.025 1062.22 356.087 1064.4 356.452C1066.58 356.816 1068.64 355.345 1069 353.167L1074.95 317.66ZM923.323 427.256L1073.32 320.256L1068.68 313.744L918.677 420.744L923.323 427.256Z" fill="#1864AB"/>
</svg>
