<svg width="20" height="20" viewBox="0 0 20 20" fill="none" xmlns="http://www.w3.org/2000/svg">
<path d="M12.4998 6.66667C12.4998 4.36548 10.6343 2.5 8.33317 2.5C6.03199 2.5 4.1665 4.36548 4.1665 6.66667C4.1665 8.96783 6.03199 10.8333 8.33317 10.8333C10.6343 10.8333 12.4998 8.96783 12.4998 6.66667Z" stroke="#6C3BFF" stroke-width="1.35" stroke-linecap="round" stroke-linejoin="round"/>
<path d="M2.5 16.6666C2.5 13.445 5.11168 10.8333 8.33333 10.8333C9.39583 10.8333 10.392 11.1174 11.25 11.6137" stroke="#6C3BFF" stroke-width="1.35" stroke-linecap="round" stroke-linejoin="round"/>
<path d="M15.0871 12.0879L15.6004 13.1229C15.6704 13.267 15.857 13.4052 16.0144 13.4317L16.9448 13.5875C17.5397 13.6875 17.6797 14.1227 17.251 14.552L16.5278 15.2812C16.4053 15.4047 16.3382 15.6429 16.3761 15.8134L16.5832 16.7162C16.7465 17.4307 16.3703 17.7071 15.7433 17.3337L14.8713 16.8132C14.7138 16.7191 14.4543 16.7191 14.2939 16.8132L13.4219 17.3337C12.7978 17.7071 12.4186 17.4278 12.5819 16.7162L12.789 15.8134C12.8269 15.6429 12.7599 15.4047 12.6374 15.2812L11.9141 14.552C11.4883 14.1227 11.6254 13.6875 12.2204 13.5875L13.1506 13.4317C13.3052 13.4052 13.4919 13.267 13.5619 13.1229L14.0751 12.0879C14.3551 11.5263 14.81 11.5263 15.0871 12.0879Z" stroke="#6C3BFF" stroke-width="1.35" stroke-linecap="round" stroke-linejoin="round"/>
</svg>
