<svg xmlns="http://www.w3.org/2000/svg" width="270" height="47" fill="none" viewBox="0 0 270 47"><path fill="#9135ff" d="M233.768 45.71c-.663.844-2.02.374-2.02-.699V34.708a2.26 2.26 0 0 0-2.262-2.262H218.11c-.92 0-1.457-1.04-.92-1.788l7.479-10.471c1.071-1.498 0-3.578-1.842-3.578H209.06c-.92 0-1.456-1.04-.92-1.788l9.696-13.576c.213-.297.556-.474.92-.474h28.894c.92 0 1.456 1.04.92 1.788l-7.48 10.472c-1.07 1.497 0 3.578 1.842 3.578h11.376c.944 0 1.474 1.087.89 1.83l-21.427 27.272z"/><mask id="a" width="49" height="47" x="207" y="0" maskUnits="userSpaceOnUse" style="mask-type:alpha"><path fill="#000" d="M233.664 45.71c-.664.843-2.021.374-2.021-.699V34.708a2.26 2.26 0 0 0-2.262-2.262h-11.376c-.92 0-1.456-1.04-.92-1.788l7.48-10.472c1.07-1.497 0-3.578-1.842-3.578h-13.767c-.92 0-1.457-1.04-.92-1.788l9.696-13.575c.213-.297.555-.474.919-.474h28.894c.92 0 1.457 1.04.92 1.788l-7.479 10.471c-1.071 1.498 0 3.578 1.842 3.578h11.376c.943 0 1.473 1.088.89 1.831l-21.428 27.272z"/></mask><g mask="url(#a)"><g filter="url(#b)"><ellipse cx="5.508" cy="14.704" fill="#eee6ff" rx="5.508" ry="14.704" transform="rotate(89.814 85.481 118.15)scale(1 -1)"/></g><g filter="url(#c)"><ellipse cx="10.399" cy="29.851" fill="#eee6ff" rx="10.399" ry="29.851" transform="rotate(89.814 79.906 88.847)scale(1 -1)"/></g><g filter="url(#d)"><ellipse cx="5.508" cy="30.487" fill="#8900ff" rx="5.508" ry="30.487" transform="rotate(89.814 77.612 89.995)scale(1 -1)"/></g><g filter="url(#e)"><ellipse cx="5.508" cy="30.599" fill="#8900ff" rx="5.508" ry="30.599" transform="rotate(89.814 70.88 101.3)scale(1 -1)"/></g><g filter="url(#f)"><ellipse cx="5.508" cy="30.599" fill="#8900ff" rx="5.508" ry="30.599" transform="rotate(89.814 71.07 102.643)scale(1 -1)"/></g><g filter="url(#g)"><ellipse cx="14.072" cy="22.078" fill="#eee6ff" rx="14.072" ry="22.078" transform="rotate(93.35 128.054 146.884)scale(-1 1)"/></g><g filter="url(#h)"><ellipse cx="3.47" cy="21.501" fill="#8900ff" rx="3.47" ry="21.501" transform="rotate(89.009 132.227 153.7)scale(-1 1)"/></g><g filter="url(#i)"><ellipse cx="3.47" cy="21.501" fill="#8900ff" rx="3.47" ry="21.501" transform="rotate(89.009 132.227 153.7)scale(-1 1)"/></g><g filter="url(#j)"><ellipse cx="208.21" cy="9.743" fill="#8900ff" rx="4.407" ry="29.108" transform="rotate(39.51 208.21 9.743)"/></g><g filter="url(#k)"><ellipse cx="255.345" cy="-5.321" fill="#8900ff" rx="4.407" ry="29.108" transform="rotate(37.892 255.345 -5.32)"/></g><g filter="url(#l)"><ellipse cx="249.235" cy="7.104" fill="#00c2ff" rx="5.971" ry="9.665" transform="rotate(37.892 249.235 7.104)"/></g><g filter="url(#m)"><ellipse cx="205.944" cy="39.103" fill="#8900ff" rx="4.407" ry="29.108" transform="rotate(37.892 205.944 39.103)"/></g><g filter="url(#n)"><ellipse cx="205.944" cy="39.103" fill="#8900ff" rx="4.407" ry="29.108" transform="rotate(37.892 205.944 39.103)"/></g><g filter="url(#o)"><ellipse cx="243.474" cy="30.678" fill="#8900ff" rx="4.407" ry="29.108" transform="rotate(37.892 243.474 30.678)"/></g><g filter="url(#p)"><ellipse cx="246.241" cy="33.171" fill="#00c2ff" rx="5.971" ry="15.297" transform="rotate(37.892 246.241 33.17)"/></g></g><path fill="#08060e" d="M200.536 0c-9.198 13.166-9.252 33.575 0 46.789h6.215c-9.25-13.214-9.196-33.623 0-46.789zm62.423 0h-6.214c9.198 13.166 9.252 33.575 0 46.789h6.214c9.25-13.214 9.197-33.623 0-46.789M28.499 33.346 40.261.776h16.091L38.517 46.013h-20.68L0 .776h16.544zm48.728 12.667h-15.51V.776h15.51zm56.332-34.122h-17.385v34.122h-15.51V11.891H83.28V.776h50.279zm50.709-.129h-29.147v6.074h28.694V28.5h-28.694v6.528h29.986v10.986h-45.496V.776h44.657z"/><defs><filter id="b" width="60.045" height="41.654" x="188.053" y="16.92" color-interpolation-filters="sRGB" filterUnits="userSpaceOnUse"><feFlood flood-opacity="0" result="BackgroundImageFix"/><feBlend in="SourceGraphic" in2="BackgroundImageFix" result="shape"/><feGaussianBlur result="effect1_foregroundBlur_2002_16318" stdDeviation="7.659"/></filter><filter id="c" width="90.34" height="51.437" x="153.209" y="-6.762" color-interpolation-filters="sRGB" filterUnits="userSpaceOnUse"><feFlood flood-opacity="0" result="BackgroundImageFix"/><feBlend in="SourceGraphic" in2="BackgroundImageFix" result="shape"/><feGaussianBlur result="effect1_foregroundBlur_2002_16318" stdDeviation="7.659"/></filter><filter id="d" width="79.355" height="29.4" x="158.182" y="2.801" color-interpolation-filters="sRGB" filterUnits="userSpaceOnUse"><feFlood flood-opacity="0" result="BackgroundImageFix"/><feBlend in="SourceGraphic" in2="BackgroundImageFix" result="shape"/><feGaussianBlur result="effect1_foregroundBlur_2002_16318" stdDeviation="4.596"/></filter><filter id="e" width="79.579" height="29.4" x="162.777" y="20.8" color-interpolation-filters="sRGB" filterUnits="userSpaceOnUse"><feFlood flood-opacity="0" result="BackgroundImageFix"/><feBlend in="SourceGraphic" in2="BackgroundImageFix" result="shape"/><feGaussianBlur result="effect1_foregroundBlur_2002_16318" stdDeviation="4.596"/></filter><filter id="f" width="79.579" height="29.4" x="164.309" y="21.949" color-interpolation-filters="sRGB" filterUnits="userSpaceOnUse"><feFlood flood-opacity="0" result="BackgroundImageFix"/><feBlend in="SourceGraphic" in2="BackgroundImageFix" result="shape"/><feGaussianBlur result="effect1_foregroundBlur_2002_16318" stdDeviation="4.596"/></filter><filter id="g" width="74.749" height="58.852" x="223.578" y="-17.13" color-interpolation-filters="sRGB" filterUnits="userSpaceOnUse"><feFlood flood-opacity="0" result="BackgroundImageFix"/><feBlend in="SourceGraphic" in2="BackgroundImageFix" result="shape"/><feGaussianBlur result="effect1_foregroundBlur_2002_16318" stdDeviation="7.659"/></filter><filter id="h" width="61.377" height="25.362" x="231.37" y="3.055" color-interpolation-filters="sRGB" filterUnits="userSpaceOnUse"><feFlood flood-opacity="0" result="BackgroundImageFix"/><feBlend in="SourceGraphic" in2="BackgroundImageFix" result="shape"/><feGaussianBlur result="effect1_foregroundBlur_2002_16318" stdDeviation="4.596"/></filter><filter id="i" width="61.377" height="25.362" x="231.37" y="3.055" color-interpolation-filters="sRGB" filterUnits="userSpaceOnUse"><feFlood flood-opacity="0" result="BackgroundImageFix"/><feBlend in="SourceGraphic" in2="BackgroundImageFix" result="shape"/><feGaussianBlur result="effect1_foregroundBlur_2002_16318" stdDeviation="4.596"/></filter><filter id="j" width="56.045" height="63.649" x="180.187" y="-22.082" color-interpolation-filters="sRGB" filterUnits="userSpaceOnUse"><feFlood flood-opacity="0" result="BackgroundImageFix"/><feBlend in="SourceGraphic" in2="BackgroundImageFix" result="shape"/><feGaussianBlur result="effect1_foregroundBlur_2002_16318" stdDeviation="4.596"/></filter><filter id="k" width="54.814" height="64.646" x="227.938" y="-37.644" color-interpolation-filters="sRGB" filterUnits="userSpaceOnUse"><feFlood flood-opacity="0" result="BackgroundImageFix"/><feBlend in="SourceGraphic" in2="BackgroundImageFix" result="shape"/><feGaussianBlur result="effect1_foregroundBlur_2002_16318" stdDeviation="4.596"/></filter><filter id="l" width="33.541" height="35.313" x="232.464" y="-10.552" color-interpolation-filters="sRGB" filterUnits="userSpaceOnUse"><feFlood flood-opacity="0" result="BackgroundImageFix"/><feBlend in="SourceGraphic" in2="BackgroundImageFix" result="shape"/><feGaussianBlur result="effect1_foregroundBlur_2002_16318" stdDeviation="4.596"/></filter><filter id="m" width="54.814" height="64.646" x="178.536" y="6.78" color-interpolation-filters="sRGB" filterUnits="userSpaceOnUse"><feFlood flood-opacity="0" result="BackgroundImageFix"/><feBlend in="SourceGraphic" in2="BackgroundImageFix" result="shape"/><feGaussianBlur result="effect1_foregroundBlur_2002_16318" stdDeviation="4.596"/></filter><filter id="n" width="54.814" height="64.646" x="178.536" y="6.78" color-interpolation-filters="sRGB" filterUnits="userSpaceOnUse"><feFlood flood-opacity="0" result="BackgroundImageFix"/><feBlend in="SourceGraphic" in2="BackgroundImageFix" result="shape"/><feGaussianBlur result="effect1_foregroundBlur_2002_16318" stdDeviation="4.596"/></filter><filter id="o" width="54.814" height="64.646" x="216.067" y="-1.645" color-interpolation-filters="sRGB" filterUnits="userSpaceOnUse"><feFlood flood-opacity="0" result="BackgroundImageFix"/><feBlend in="SourceGraphic" in2="BackgroundImageFix" result="shape"/><feGaussianBlur result="effect1_foregroundBlur_2002_16318" stdDeviation="4.596"/></filter><filter id="p" width="39.409" height="43.623" x="226.536" y="11.36" color-interpolation-filters="sRGB" filterUnits="userSpaceOnUse"><feFlood flood-opacity="0" result="BackgroundImageFix"/><feBlend in="SourceGraphic" in2="BackgroundImageFix" result="shape"/><feGaussianBlur result="effect1_foregroundBlur_2002_16318" stdDeviation="4.596"/></filter></defs></svg>