<svg width="19" height="19" viewBox="0 0 19 19" fill="none" xmlns="http://www.w3.org/2000/svg">
<path fill-rule="evenodd" clip-rule="evenodd" d="M1.89348 1.9802C1.94501 2.05201 3.13844 3.74863 4.54555 5.75044C5.95266 7.75224 7.2541 9.60349 7.43766 9.86433C7.6212 10.1252 7.77138 10.3438 7.77138 10.3502C7.77138 10.3566 7.70303 10.4389 7.61949 10.5331C7.53596 10.6273 7.30066 10.894 7.09664 11.1257C6.8926 11.3573 6.54864 11.7478 6.33229 11.9934C6.11595 12.239 5.73533 12.6712 5.48647 12.9539C5.23763 13.2366 4.79013 13.7448 4.49203 14.0832C3.57007 15.13 3.43702 15.2812 2.73519 16.0796C2.36044 16.5059 2.00108 16.9135 1.93663 16.9854C1.87218 17.0573 1.81944 17.1237 1.81944 17.1329C1.81944 17.1437 2.05482 17.1496 2.48262 17.1496H3.14579L3.87488 16.3197C4.27588 15.8633 4.67145 15.414 4.75392 15.3214C4.93225 15.121 6.29223 13.5754 6.40654 13.4432C6.45031 13.3926 6.51388 13.3206 6.54782 13.2832C6.58177 13.2457 6.84933 12.9421 7.14241 12.6085C7.43547 12.2748 7.68331 11.9937 7.69312 11.9837C7.70296 11.9737 7.85811 11.7974 8.03791 11.5919C8.21771 11.3865 8.37037 11.2183 8.37715 11.2183C8.38395 11.2183 9.30755 12.5244 10.4296 14.1208C11.5517 15.7171 12.4898 17.0515 12.5143 17.0861L12.5588 17.1489L14.8336 17.1493C16.7043 17.1495 17.1069 17.1457 17.0997 17.1275C17.0921 17.1081 16.0022 15.5555 13.2062 11.5806C11.1934 8.71917 10.9257 8.33465 10.9334 8.31514C10.9408 8.29617 11.215 7.98297 13.0175 5.93439C13.3266 5.58299 13.7529 5.09833 13.9646 4.85737C14.1763 4.61642 14.3901 4.37377 14.4397 4.31817C14.4892 4.26256 14.7497 3.96684 15.0186 3.66101C15.2875 3.35518 15.7446 2.83552 16.0344 2.50621C16.3242 2.17691 16.5719 1.89446 16.5849 1.87854C16.6073 1.85129 16.5694 1.84961 15.935 1.84961H15.2614L14.9618 2.19083C14.5631 2.64494 13.8423 3.46384 13.6376 3.69525C13.5472 3.7975 13.4344 3.92599 13.3869 3.98079C13.3395 4.03559 13.2459 4.14149 13.1789 4.21614C13.1119 4.29079 12.7745 4.67413 12.429 5.068C12.0836 5.46188 11.7962 5.78793 11.7904 5.79256C11.7846 5.79719 11.7106 5.88106 11.6259 5.97894C11.4778 6.15014 11.327 6.32151 10.6357 7.1046C10.3322 7.44835 10.3167 7.46311 10.2911 7.43151C10.2764 7.41332 9.38703 6.15 8.31482 4.62418L6.36534 1.84996L4.08257 1.84978L1.7998 1.84961L1.89348 1.9802ZM3.67515 2.88998C3.6923 2.91554 4.1188 3.51273 4.62296 4.21707C5.57912 5.55288 9.33643 10.8053 11.7528 14.184C12.525 15.2636 13.1662 16.1566 13.1777 16.1682C13.1942 16.1849 13.419 16.1885 14.2282 16.1851L15.2578 16.1807L12.5636 12.4147C11.0817 10.3434 8.93624 7.34447 7.79584 5.75044L5.72239 2.8522L4.6832 2.84785L3.64401 2.8435L3.67515 2.88998Z" fill="#08060D"/>
</svg>
