<svg width="34" height="48" viewBox="0 0 34 48" fill="none" xmlns="http://www.w3.org/2000/svg">
  <mask id="mask0_1_865" style="mask-type:luminance" maskUnits="userSpaceOnUse" x="0" y="0" width="34" height="48">
    <path d="M33.8759 0.407997H0.779999V47.123H33.8759V0.407997Z" fill="white"/>
  </mask>
  <g mask="url(#mask0_1_865)">
    <path d="M33.879 9.589L30.864 43.366L17.311 47.123L3.795 43.371L0.783005 9.589H33.879Z" fill="#264DE4"/>
    <path d="M28.283 41.215L30.859 12.351H17.331V44.251L28.283 41.215Z" fill="#2965F1"/>
    <path d="M7.688 24.88L8.05901 29.024H17.331V24.88H7.688Z" fill="#EBEBEB"/>
    <path d="M17.332 16.494H17.317H6.942L7.319 20.637H17.332V16.494Z" fill="#EBEBEB"/>
    <path d="M17.331 39.952V35.641L17.313 35.646L12.698 34.4L12.403 31.095H10.161H8.244L8.825 37.601L17.312 39.957L17.331 39.952Z" fill="#EBEBEB"/>
    <path d="M8.57201 0.407997H13.59V2.507H10.671V4.605H13.59V6.704H8.57201V0.407997Z" fill="white"/>
    <path d="M14.594 0.407997H19.612V2.233H16.692V2.598H19.612V6.795H14.594V4.879H17.513V4.514H14.594V0.407997Z" fill="white"/>
    <path d="M20.616 0.407997H25.634V2.233H22.715V2.598H25.634V6.795H20.616V4.879H23.536V4.514H20.616V0.407997Z" fill="white"/>
    <path d="M22.42 29.023L21.939 34.397L17.318 35.644V39.955L25.812 37.601L25.875 36.901L26.848 25.993L26.949 24.88L27.697 16.494H17.318V20.637H23.157L22.78 24.88H17.318V29.023H22.42Z" fill="white"/>
  </g>
</svg>
