<svg width="48" height="48" viewBox="0 0 48 48" fill="none" xmlns="http://www.w3.org/2000/svg">
  <mask id="mask0_1_878" style="mask-type:luminance" maskUnits="userSpaceOnUse" x="0" y="0" width="48" height="48">
    <path d="M47.4286 0.407997H0.00799561V47.8286H47.4286V0.407997Z" fill="white"/>
  </mask>
  <g mask="url(#mask0_1_878)">
    <path d="M47.428 0.407997H0.00799561V47.828H47.428V0.407997Z" fill="#F7DF1E"/>
    <path d="M31.864 37.455C32.819 39.015 34.062 40.161 36.26 40.161C38.106 40.161 39.285 39.238 39.285 37.963C39.285 36.435 38.074 35.894 36.041 35.005L34.927 34.527C31.712 33.157 29.576 31.441 29.576 27.813C29.576 24.471 32.122 21.927 36.102 21.927C38.935 21.927 40.972 22.913 42.439 25.495L38.969 27.723C38.205 26.353 37.381 25.813 36.102 25.813C34.796 25.813 33.969 26.641 33.969 27.723C33.969 29.059 34.797 29.601 36.709 30.429L37.823 30.906C41.609 32.529 43.747 34.185 43.747 37.906C43.747 41.918 40.595 44.116 36.363 44.116C32.224 44.116 29.551 42.144 28.243 39.559L31.864 37.455ZM16.122 37.841C16.822 39.083 17.459 40.133 18.99 40.133C20.454 40.133 21.378 39.56 21.378 37.333V22.181H25.834V37.393C25.834 42.007 23.129 44.108 19.18 44.108C15.612 44.108 13.546 42.261 12.495 40.037L16.122 37.841Z" fill="black"/>
  </g>
</svg>
