<svg width="49" height="49" viewBox="0 0 49 49" fill="none" xmlns="http://www.w3.org/2000/svg">
  <mask id="mask0_5_918" style="mask-type:luminance" maskUnits="userSpaceOnUse" x="0" y="0" width="49" height="49">
    <path d="M48.2674 0H0V48.2674H48.2674V0Z" fill="white"/>
  </mask>
  <g mask="url(#mask0_5_918)">
    <g opacity="0.4">
      <path fill-rule="evenodd" clip-rule="evenodd" d="M24.092 35.9285C34.771 50.4856 45.221 31.8653 45.206 20.6678C45.188 7.42869 31.769 0.0292969 24.083 0.0292969C11.747 0.0292969 -0.00100708 10.2246 -0.00100708 24.1739C-0.00100708 39.6785 13.466 48.2668 24.083 48.2668C21.681 47.9209 13.674 46.2052 13.566 27.7631C13.494 15.2899 17.635 10.3066 24.066 12.4989C24.21 12.5523 31.159 15.2937 31.159 24.2493C31.159 33.1667 24.092 35.9285 24.092 35.9285Z" fill="url(#paint0_linear_5_918)"/>
      <path fill-rule="evenodd" clip-rule="evenodd" d="M24.079 12.4895C17.023 10.0575 8.379 15.8731 8.379 27.5215C8.379 46.5413 22.473 48.2674 24.182 48.2674C36.518 48.2674 48.266 38.0721 48.266 24.1229C48.266 8.61818 34.799 0.0299037 24.182 0.0299037C27.123 -0.377346 40.032 3.21253 40.032 20.8564C40.032 32.3624 30.393 38.6263 24.123 35.9499C23.979 35.8965 17.03 33.1551 17.03 24.1995C17.03 15.2821 24.079 12.4895 24.079 12.4895Z" fill="url(#paint1_linear_5_918)"/>
    </g>
  </g>
  <defs>
    <linearGradient id="paint0_linear_5_918" x1="7.13799" y1="7.1379" x2="41.137" y2="41.148" gradientUnits="userSpaceOnUse">
      <stop/>
      <stop offset="1" stop-color="white"/>
    </linearGradient>
    <linearGradient id="paint1_linear_5_918" x1="41.141" y1="41.1439" x2="7.14199" y2="7.13674" gradientUnits="userSpaceOnUse">
      <stop/>
      <stop offset="1" stop-color="white"/>
    </linearGradient>
  </defs>
</svg>
