<svg width="48" height="48" viewBox="0 0 48 48" fill="none" xmlns="http://www.w3.org/2000/svg">
  <mask id="mask0_1_897" style="mask-type:luminance" maskUnits="userSpaceOnUse" x="0" y="0" width="48" height="48">
    <path d="M47.4356 0.410995H0.0150146V47.2313H47.4356V0.410995Z" fill="white"/>
  </mask>
  <g mask="url(#mask0_1_897)">
    <path fill-rule="evenodd" clip-rule="evenodd" d="M47.26 20.8C47.228 20.183 47.213 19.566 47.149 18.949C47.039 18.111 46.928 17.257 46.739 16.434C46.596 15.754 46.36 15.105 46.123 14.457C45.823 13.698 45.522 12.923 45.143 12.195C44.527 11.025 43.722 9.98 42.979 8.889C42.488 8.193 41.857 7.624 41.382 6.912C41.114 6.5 40.719 6.153 40.324 5.837C39.692 5.33 39.029 4.87099 38.366 4.42799C37.86 4.07999 37.355 3.74799 36.817 3.44799C36.391 3.20899 35.933 3.01999 35.49 2.81399C34.985 2.57699 34.495 2.291 33.927 2.181C33.784 2.151 33.658 2.10299 33.515 2.05499C33.152 1.92899 32.805 1.78699 32.441 1.67599C31.889 1.50099 31.352 1.296 30.782 1.153C30.231 1.011 29.662 0.917003 29.093 0.837003C28.462 0.744003 27.815 0.710999 27.182 0.648999C26.772 0.600999 26.361 0.553998 25.966 0.538998C25.366 0.506998 24.75 0.507001 24.15 0.492001C23.849 0.476001 23.534 0.444004 23.234 0.460004C22.776 0.476004 22.318 0.522995 21.859 0.585995C21.417 0.633995 20.975 0.711998 20.549 0.775998C20.028 0.838998 19.507 0.870994 18.986 0.934994C18.496 0.997994 17.99 1.093 17.501 1.173C17.327 1.204 17.153 1.26699 16.979 1.29899C16.601 1.37799 16.206 1.40999 15.826 1.53599C15.148 1.74299 14.468 1.981 13.805 2.233C13.188 2.486 12.588 2.755 12.004 3.071C11.404 3.403 10.835 3.79699 10.266 4.17799C9.72798 4.54199 9.192 4.921 8.67 5.332C8.165 5.729 7.69098 6.171 7.23198 6.614C6.97998 6.866 6.77397 7.16699 6.53697 7.45199C6.14297 7.91099 5.74797 8.353 5.36897 8.828C5.05397 9.224 4.76797 9.63499 4.46797 10.047C3.93197 10.773 3.47399 11.549 3.04799 12.324C2.87399 12.641 2.716 12.957 2.558 13.273C2.321 13.747 2.06798 14.206 1.84798 14.696C1.68898 15.029 1.56297 15.393 1.46797 15.756C1.24797 16.532 1.026 17.323 0.821001 18.097C0.631001 18.794 0.583987 19.521 0.568987 20.233C0.552987 20.866 0.615972 21.483 0.678972 22.116C0.694972 22.274 0.600988 22.464 0.788988 22.59C0.725988 22.764 0.773991 22.86 0.866991 22.89C0.757991 23.064 0.914984 23.176 0.852984 23.334C0.836984 23.365 0.900987 23.428 0.930987 23.476C0.930987 23.524 0.915987 23.587 0.930987 23.634C0.947987 23.777 1.01097 23.919 1.01097 24.077C1.01097 24.188 1.10498 24.314 1.13698 24.425C1.15198 24.472 1.137 24.552 1.105 24.583C1.01 24.694 1.02599 24.789 1.16799 24.852C1.24799 25.058 1.216 25.152 1.2 25.248C1.232 25.39 1.184 25.437 1.2 25.469C1.327 25.723 1.375 26.007 1.39 26.292C1.39 26.355 1.42099 26.419 1.45299 26.498C1.46899 26.498 1.45299 26.798 1.45299 26.798C1.53099 26.751 1.595 26.735 1.674 26.703C1.722 26.909 1.76899 27.1 1.83199 27.274C1.91099 27.4 1.91099 27.462 1.87999 27.478C1.94299 27.762 1.974 28.031 2.084 28.3C2.084 28 2.054 27.7 2.006 27.415C2.227 27.494 2.41699 27.573 2.54299 27.573C2.55899 27.525 2.57499 27.462 2.59099 27.43C2.49599 27.336 2.41698 27.194 2.32198 27.099C2.35398 27.225 2.32198 27.273 2.32198 27.321C2.25898 27.289 2.18 27.257 2.101 27.225C2.164 27.147 2.22798 27.067 2.32198 26.973C2.32198 26.83 2.24399 26.703 2.02199 26.719C2.11699 26.688 2.21198 26.641 2.32198 26.609C2.49598 26.514 2.30699 26.34 2.30699 26.119C2.32199 25.85 2.16399 25.582 2.11699 25.296C2.03799 24.854 2.05398 24.19 2.00698 23.747C1.91198 23.667 1.83297 23.873 1.81697 23.889C1.86497 24.268 1.91198 24.648 1.94298 25.028C1.84898 24.711 1.78498 24.363 1.70598 23.983C1.68998 24.094 1.67497 24.142 1.67497 24.205C1.59697 24.283 1.65898 24.379 1.70598 24.49C1.59598 24.442 1.46898 24.458 1.46898 24.458V24.901C1.31198 24.743 1.26498 24.617 1.18498 24.505C1.15398 24.379 1.13698 24.253 1.10698 24.127C1.13698 24.047 1.10698 24 1.10698 23.953C1.09098 23.841 1.07498 23.715 1.05898 23.572C1.07498 23.557 1.04399 23.32 1.04399 23.32C1.16999 23.335 1.24999 23.35 1.32799 23.35C1.16999 23.146 1.27999 23.019 1.34499 22.892C1.37599 22.829 1.487 22.814 1.519 22.75C1.645 22.512 1.851 22.323 1.851 22.022C1.851 21.88 1.89899 21.722 1.91399 21.579C1.94499 21.31 1.97699 21.041 1.99199 20.772C2.02399 20.424 1.992 20.076 2.071 19.744C2.199 19.192 2.35699 18.638 2.52999 18.084C2.65599 17.688 2.79898 17.309 2.95598 16.913C3.19298 16.296 3.41498 15.679 3.71498 15.094C4.14098 14.24 4.631 13.417 5.105 12.579C5.405 12.057 5.72097 11.567 6.05397 11.061C6.36897 10.57 6.68399 10.064 7.04799 9.60499C7.55399 8.95699 8.10698 8.355 8.72298 7.817C9.35498 7.248 9.95499 6.663 10.634 6.141C11.518 5.459 12.451 4.859 13.445 4.337C14.251 3.91 15.087 3.57699 15.925 3.25999C16.462 3.05499 17.046 2.95999 17.6 2.78599C18.231 2.57999 18.863 2.486 19.526 2.47C19.953 2.454 20.364 2.40599 20.79 2.35899C21.169 2.32899 21.548 2.29599 21.959 2.24899C21.911 2.31199 21.896 2.344 21.88 2.375C21.707 2.628 21.517 2.881 21.343 3.134C21.201 3.34 21.043 3.562 20.901 3.767C20.648 4.1 20.379 4.432 20.142 4.78C19.779 5.302 19.447 5.84 19.068 6.362C18.69 6.868 18.278 7.343 17.883 7.832C17.362 8.513 16.873 9.209 16.352 9.889C15.877 10.537 15.373 11.155 14.915 11.804C14.504 12.372 14.14 12.974 13.745 13.558C13.161 14.429 12.577 15.282 11.993 16.153C11.534 16.817 11.076 17.465 10.602 18.13C10.571 18.178 10.523 18.192 10.476 18.224C10.35 18.429 10.35 18.54 10.302 18.635C10.176 18.872 10.05 19.11 9.907 19.332C9.828 19.458 9.71797 19.568 9.62297 19.695C9.60697 19.505 9.87498 19.41 9.74898 19.173C9.67098 19.3 9.59098 19.41 9.51198 19.537L9.32298 19.915C9.38598 19.963 9.49697 19.995 9.38597 20.089C9.33797 20.169 9.291 20.263 9.243 20.343C9.323 20.295 9.36898 20.248 9.41698 20.185C9.41698 20.359 9.323 20.5 9.243 20.643C9.18 20.769 9.02197 20.865 8.91197 20.959C8.92797 20.975 9.03797 21.023 9.05397 21.038C9.19697 20.99 9.244 20.912 9.26 20.959C9.308 20.896 9.35499 20.848 9.37099 20.801C9.43299 20.643 9.52799 20.517 9.68599 20.453C9.74899 20.421 9.79598 20.374 9.84398 20.327C10.318 19.836 10.808 19.362 11.234 18.839C11.898 18.032 12.498 17.195 13.131 16.372C13.398 16.024 13.715 15.676 13.999 15.344C14.045 15.707 14.014 16.055 13.999 16.388C13.951 16.973 13.919 17.558 13.873 18.159C13.856 18.396 13.873 18.633 13.856 18.871C13.856 18.934 13.808 18.981 13.808 19.045C13.808 19.203 13.856 19.377 13.856 19.535C13.808 20.12 13.745 20.689 13.697 21.275C13.681 21.401 13.744 21.528 13.775 21.639C13.697 22.493 13.871 23.395 13.728 24.296C13.839 24.122 13.871 24.012 13.871 23.901C13.886 23.807 13.871 23.712 13.871 23.601V23.443C13.886 23.158 13.949 22.858 13.918 22.572C13.886 22.256 13.886 21.956 13.949 21.655C13.981 21.529 13.934 21.371 14.013 21.212V21.449C13.997 22.35 14.029 23.252 13.903 24.154C13.887 24.233 13.951 24.376 13.777 24.359C13.634 24.644 13.808 24.85 13.651 25.008C13.619 25.04 13.681 25.182 13.697 25.277C13.634 25.467 13.634 25.467 13.728 25.483C13.744 25.831 13.777 26.146 13.792 26.479C14.044 25.879 13.918 25.26 14.029 24.643C14.045 24.897 14.061 25.15 14.045 25.418C14.045 25.83 14.029 26.225 14.014 26.636C14.014 26.715 13.997 26.795 13.982 26.874C13.934 27.096 13.919 27.317 13.84 27.522C13.777 27.681 13.808 27.918 13.808 28.107V28.71C13.871 28.978 13.792 29.121 13.84 29.279C13.792 29.438 13.777 29.485 13.792 29.532L13.84 29.77C14.156 29.738 14.014 29.975 14.14 30.102C14.045 30.229 14.077 30.276 14.077 30.34C14.077 30.482 14.062 30.609 14.045 30.751C14.045 31.115 14.03 31.479 14.03 31.827C14.03 31.875 14.045 31.921 14.045 31.968C14.045 32.001 14.03 32.413 14.03 32.413C14.062 32.459 14.03 32.507 13.982 32.554C13.967 32.554 13.919 30.545 13.919 30.545H13.682C13.651 31.494 13.73 32.348 13.556 33.234C13.367 33.249 13.304 33.281 13.098 33.281C12.608 33.281 12.118 33.281 11.628 33.297C11.044 33.297 10.476 33.312 9.89 33.312C9.607 33.312 9.30699 33.345 9.02199 33.345C8.64299 33.345 8.24798 33.297 7.86998 33.297C7.28498 33.297 6.71598 33.345 6.13198 33.36C5.70498 33.376 5.27898 33.376 4.85298 33.392C4.56798 33.407 4.28298 33.422 3.99898 33.455C3.87298 33.47 3.762 33.518 3.605 33.565C3.556 33.565 3.44698 33.549 3.35198 33.565C3.19298 33.597 3.05199 33.691 2.89299 33.723C2.65599 33.772 2.59298 33.834 2.62398 34.072V34.23C2.60898 34.261 2.97197 34.181 2.97197 34.181C2.93997 34.181 2.92399 34.276 2.87599 34.356C3.00399 34.308 3.08197 34.276 3.16197 34.245C3.39897 34.356 3.60399 34.293 3.79299 34.341C4.40899 34.498 5.03998 34.563 5.67198 34.625C6.08298 34.657 6.47799 34.673 6.88899 34.688C7.47299 34.72 8.05698 34.752 8.64098 34.752C9.13098 34.752 9.60498 34.704 10.094 34.704C10.772 34.704 11.453 34.735 12.132 34.752C12.274 34.752 12.432 34.735 12.59 34.735H13.742C14.77 34.704 15.796 34.687 16.823 34.657C17.409 34.64 18.009 34.609 18.593 34.593L20.394 34.545C21.089 34.529 21.784 34.529 22.463 34.515C22.985 34.515 23.49 34.497 24.012 34.482C24.596 34.466 25.196 34.419 25.781 34.387C26.097 34.371 26.413 34.339 26.729 34.308C27.108 34.277 27.503 34.23 27.881 34.214C28.45 34.181 29.035 34.166 29.604 34.134C30.315 34.087 31.026 34.024 31.752 34.008C32.416 33.977 33.095 33.992 33.759 33.977C34.343 33.961 34.928 33.929 35.528 33.913L36.525 33.865C36.525 33.865 37.187 33.85 37.519 33.817C38.088 33.786 38.656 33.723 39.225 33.707C39.588 33.691 39.951 33.707 40.315 33.691C40.899 33.675 41.499 33.643 42.084 33.643C42.304 33.643 42.541 33.675 42.826 33.691C42.699 33.802 42.62 33.865 42.525 33.944C42.588 33.96 42.651 33.992 42.715 34.024C42.62 34.087 42.541 34.102 42.463 34.102C42.431 34.181 42.399 34.213 42.367 34.372H42.651C42.541 34.372 42.446 34.514 42.336 34.609C42.21 34.576 42.099 34.609 42.036 34.783C42.146 34.845 42.13 34.893 42.115 34.957C41.925 35.019 41.783 35.083 41.863 35.288C41.798 35.32 41.72 35.351 41.641 35.399C41.563 35.525 41.42 35.557 41.451 35.731C41.515 35.746 41.577 35.779 41.625 35.793C41.546 35.825 41.467 35.872 41.388 35.904C41.104 36.078 41.231 36.157 41.294 36.236C41.246 36.268 41.199 36.299 41.151 36.315C41.183 36.458 41.229 36.489 41.246 36.489C41.183 36.536 41.103 36.6 41.009 36.679C40.961 36.821 40.897 36.884 40.834 36.979C40.771 37.074 40.74 37.201 40.66 37.296C40.329 37.66 40.092 38.088 39.666 38.372C39.507 38.483 39.366 38.625 39.223 38.768C38.939 39.036 38.686 39.337 38.386 39.59C37.992 39.922 37.582 40.223 37.154 40.523C36.634 40.887 36.113 41.251 35.591 41.599C35.307 41.788 34.991 41.93 34.691 42.104C34.391 42.278 34.106 42.437 33.806 42.61C33.616 42.736 33.442 42.91 33.237 43.007C32.716 43.229 32.163 43.418 31.626 43.624C31.104 43.846 30.725 44.035 30.331 44.177C29.967 44.303 29.588 44.399 29.209 44.477C29.083 44.51 28.94 44.477 28.798 44.493C28.529 44.541 28.261 44.605 27.992 44.636C27.297 44.731 26.602 44.795 25.907 44.89C25.496 44.938 25.101 45.016 24.69 45.064C24.407 45.079 24.106 45.048 23.822 45.048C23.617 45.048 23.396 45.096 23.19 45.064C22.858 45.016 22.527 44.938 22.195 44.875C22.117 44.859 22.005 44.826 21.942 44.859C21.816 44.923 21.705 44.828 21.578 44.859C21.5 44.875 21.421 44.811 21.342 44.811C21.278 44.796 21.199 44.828 21.12 44.811C20.945 44.764 20.788 44.701 20.597 44.717C20.409 44.732 20.219 44.637 20.015 44.591C19.73 44.527 19.463 44.465 19.177 44.4C19.067 44.369 18.973 44.321 18.862 44.258C18.451 44.258 18.182 44.242 17.929 44.147C17.708 44.069 17.503 43.958 17.266 43.99C17.203 44.005 17.156 43.974 17.092 43.974C17.044 43.911 16.998 43.784 16.951 43.784C16.635 43.8 16.445 43.532 16.176 43.452C16.035 43.404 15.924 43.246 15.782 43.199C15.434 43.056 15.151 42.756 14.756 42.709C14.629 42.693 14.503 42.63 14.361 42.583C14.409 42.645 14.439 42.693 14.487 42.74C14.029 42.518 13.602 42.266 13.176 42.028C13.113 42.012 13.066 41.95 13.018 41.918L12.592 41.633C12.355 41.681 12.26 41.585 12.196 41.554C11.77 41.254 11.281 41.063 10.869 40.732C10.695 40.589 10.491 40.494 10.365 40.32C10.143 40.051 9.875 39.861 9.575 39.703C9.338 39.577 9.11698 39.434 8.89598 39.292C8.78498 39.213 8.674 39.118 8.674 38.944C8.674 38.833 8.62697 38.722 8.48497 38.785C8.42197 38.691 8.35899 38.58 8.27999 38.548C8.08999 38.47 7.96398 38.326 7.82198 38.2C7.67998 38.074 7.56998 37.9 7.39598 37.837C7.07898 37.711 6.88998 37.442 6.70098 37.221C6.25798 36.698 5.86298 36.128 5.45198 35.576C5.41998 35.528 5.35698 35.496 5.30998 35.449C5.37298 35.623 5.45199 35.765 5.53099 35.923C5.37299 35.86 5.26299 35.749 5.16799 35.638C5.15199 35.655 6.25798 37.473 6.25798 37.473C6.35398 37.616 6.43199 37.758 6.52699 37.901C6.28899 37.916 6.13199 37.79 6.05199 37.647C5.91099 37.395 5.75199 37.237 5.43599 37.269C5.40499 37.158 5.37299 37.031 5.35799 36.921C5.29399 36.921 5.24697 36.921 5.13597 36.905C5.35797 37.253 5.54798 37.553 5.75298 37.901C5.67298 37.853 5.62698 37.822 5.59398 37.806C5.87798 38.107 6.083 38.487 6.446 38.677C6.525 39.04 6.93599 39.214 7.03099 39.562C6.95299 39.546 6.88798 39.53 6.80898 39.514C6.68298 39.356 6.53997 39.198 6.39897 39.024C6.42997 39.135 6.477 39.23 6.54 39.309C6.73 39.546 6.90399 39.783 7.12499 39.989C7.20399 40.069 7.31499 40.101 7.31499 40.244C7.44099 40.307 7.489 40.322 7.536 40.322C7.568 40.418 7.52098 40.56 7.70998 40.528C7.83598 40.765 7.96197 40.765 8.13597 40.687C8.34197 40.892 8.45298 40.909 8.59398 40.783C8.59398 40.861 8.60997 40.94 8.60997 41.003C8.67297 40.972 8.65798 40.924 8.65798 40.845C8.73598 40.908 8.78399 40.94 8.81499 40.971C8.97299 41.193 9.11499 41.398 9.33599 41.572C9.63699 41.826 9.90498 42.095 10.189 42.332C10.742 42.791 11.359 43.171 11.975 43.519C12.733 43.946 13.46 44.405 14.234 44.815C15.166 45.306 16.161 45.639 17.187 45.876C17.567 45.955 17.93 46.034 18.31 46.128C18.64 46.224 18.972 46.366 19.304 46.445C19.81 46.556 20.331 46.651 20.836 46.745C20.946 46.761 21.058 46.777 21.184 46.793C21.325 46.825 21.499 46.761 21.531 46.809C21.61 46.935 21.673 46.872 21.768 46.856C21.878 46.824 22.005 46.824 22.131 46.824C22.573 46.84 23 46.935 23.442 46.903C23.538 46.903 23.68 46.824 23.759 46.981C23.901 46.918 23.98 46.918 24.043 46.903C24.06 47.045 24.043 47.045 24.013 47.061C23.98 47.076 23.933 47.092 23.87 47.14C24.438 47.25 24.976 47.266 25.449 47.14C26.271 47.203 26.982 47.108 27.661 46.871C27.724 46.95 27.772 47.061 27.866 46.903C27.898 46.855 27.977 46.839 28.041 46.823C28.182 46.791 28.356 46.728 28.482 46.775C28.625 46.823 28.673 46.697 28.782 46.697C28.973 46.697 29.146 46.681 29.32 46.649C29.415 46.633 29.51 46.586 29.62 46.554C29.494 46.49 29.368 46.474 29.272 46.474C29.463 46.379 29.636 46.3 29.81 46.222C29.778 46.269 29.746 46.332 29.684 46.332H29.904C29.856 46.332 29.793 46.474 29.715 46.569C30.282 46.427 30.804 46.3 31.31 46.173C31.135 45.842 31.499 45.953 31.625 45.762C31.467 45.81 31.31 45.857 31.151 45.888C31.688 45.62 32.241 45.383 32.778 45.146C32.7 45.241 32.604 45.288 32.463 45.368C32.557 45.383 32.62 45.383 32.668 45.398C32.92 45.478 32.858 45.241 32.936 45.098C33.236 45.098 33.362 45.051 33.505 45.003C33.663 44.955 33.82 44.908 33.979 44.845C34.231 44.735 34.468 44.593 34.721 44.467C34.769 44.45 34.847 44.467 34.91 44.467C35.085 44.355 35.147 44.26 35.194 44.276C35.417 44.308 35.573 44.228 35.636 44.024C35.747 43.944 35.826 43.881 35.905 43.833C36.251 43.643 36.583 43.454 36.931 43.264C37.057 43.264 37.121 43.264 37.152 43.248C37.358 43.152 37.548 43.043 37.737 42.931C37.689 42.916 37.579 42.853 37.579 42.853C37.737 42.821 37.783 42.805 37.879 42.774C38.258 42.329 38.78 42.029 39.174 41.681C39.348 41.666 39.348 41.618 39.348 41.587C39.411 41.508 39.474 41.413 39.552 41.349C39.9 41.033 40.279 40.764 40.595 40.432C41.053 39.972 41.495 39.497 41.906 39.007C42.284 38.564 42.665 38.122 42.98 37.631C43.423 36.951 43.802 36.255 44.197 35.542C44.481 35.037 44.734 34.531 45.019 34.025C45.049 33.977 45.113 33.914 45.161 33.914C45.587 33.866 46.014 33.836 46.425 33.788C46.52 33.772 46.63 33.71 46.725 33.662C46.677 33.582 46.646 33.488 46.599 33.408C46.535 33.312 46.44 33.234 46.377 33.138C46.314 33.06 46.267 32.964 46.219 32.87C46.171 32.792 46.125 32.728 46.077 32.648C45.981 32.474 45.887 32.3 45.807 32.111C45.791 32.063 45.759 31.985 45.776 31.937C46.06 31.321 46.171 30.656 46.439 30.039C46.707 29.406 46.787 28.695 46.913 28.014C47.024 27.366 47.087 26.718 47.165 26.07C47.213 25.611 47.276 25.168 47.291 24.709C47.388 23.982 47.355 23.301 47.339 22.62C47.324 22.02 47.291 21.403 47.261 20.802L47.26 20.8ZM7.627 40.271C7.517 40.145 7.422 40.002 7.312 39.876L7.35997 39.828C7.53197 40.018 7.70599 40.208 7.87999 40.414C7.78499 40.366 7.674 40.335 7.627 40.271ZM7.87999 40.414C7.92799 40.398 7.97599 40.398 8.02199 40.382C8.06999 40.461 8.102 40.556 8.148 40.651C7.928 40.635 7.81699 40.54 7.87999 40.414ZM24.309 46.947V46.899C24.609 46.867 24.893 46.836 25.193 46.804V46.851C24.893 46.899 24.609 46.929 24.309 46.945V46.947ZM28.288 46.535C28.068 46.583 27.831 46.615 27.61 46.647C27.531 46.663 27.436 46.742 27.405 46.599C27.373 46.615 27.341 46.615 27.31 46.631C27.388 46.868 27.578 46.678 27.736 46.773C27.388 46.821 27.058 46.852 26.725 46.899V46.868C26.821 46.852 26.931 46.836 27.025 46.82V46.773C26.868 46.757 26.71 46.741 26.551 46.741C26.505 46.741 26.441 46.805 26.394 46.821C26.331 46.836 26.268 46.852 26.189 46.852C25.92 46.868 25.652 46.868 25.399 46.884C25.383 46.884 25.351 46.868 25.335 46.868V46.82C26.393 46.678 27.436 46.536 28.494 46.394C28.511 46.425 28.511 46.457 28.526 46.488C28.431 46.488 28.368 46.521 28.289 46.536L28.288 46.535ZM28.526 46.378C28.89 46.33 29.222 46.299 29.569 46.252C28.843 46.457 28.605 46.489 28.526 46.378ZM14.768 14.441C15.272 13.745 15.794 13.049 16.299 12.337C16.457 12.13 16.583 11.909 16.741 11.704C16.789 11.64 16.852 11.609 16.931 11.545L16.915 11.515C16.978 11.435 17.041 11.371 17.073 11.309C17.154 11.182 17.201 11.04 17.264 10.897C17.28 10.867 17.327 10.836 17.327 10.836C17.549 10.946 17.549 10.709 17.627 10.63C17.769 10.471 17.912 10.298 18.038 10.139C18.133 10.013 18.227 9.90199 18.307 9.75999C18.322 9.71199 18.275 9.634 18.259 9.57H18.212C18.26 9.538 18.307 9.492 18.354 9.459C18.37 9.459 18.37 9.459 18.385 9.444C18.48 9.301 18.575 9.15799 18.67 9.03199C18.859 8.77999 19.064 8.52599 19.285 8.30499C19.254 8.38299 19.222 8.463 19.19 8.526C19.206 8.526 19.206 8.543 19.222 8.543C19.412 8.289 19.617 8.052 19.807 7.798C19.791 7.783 19.775 7.76699 19.759 7.76699C19.681 7.84599 19.617 7.925 19.538 8.005C19.522 7.989 19.507 7.973 19.49 7.973C19.649 7.767 19.807 7.56199 19.964 7.32499C19.996 7.37299 20.028 7.43499 20.09 7.56199C20.154 7.40399 20.217 7.293 20.264 7.182C20.217 7.23 20.154 7.27699 20.107 7.32499L20.059 7.27699L20.343 6.85099C20.643 6.42399 20.944 5.98099 21.244 5.55299C21.355 5.39499 21.496 5.269 21.592 5.11C21.892 4.51 22.366 4.035 22.729 3.481C22.808 3.371 22.918 3.276 23.013 3.181C23.091 3.085 23.156 3.117 23.219 3.197C23.645 3.734 24.071 4.288 24.497 4.826C24.814 5.222 25.13 5.59999 25.43 6.01199C25.793 6.51799 26.141 7.024 26.504 7.531C26.915 8.116 27.326 8.70099 27.721 9.30099C28.321 10.188 28.889 11.074 29.49 11.959C29.932 12.608 30.374 13.241 30.801 13.889H29.994C29.252 13.874 28.493 13.811 27.751 13.842C26.74 13.89 25.714 14.001 24.703 14.08C23.423 14.191 22.128 14.206 20.849 14.206C20.39 14.206 19.932 14.27 19.475 14.302C18.921 14.333 18.384 14.365 17.831 14.38C17.183 14.412 16.553 14.428 15.904 14.444C15.541 14.46 15.162 14.444 14.767 14.444L14.768 14.441ZM32.885 21.716V21.859C32.87 21.859 32.854 21.876 32.822 21.876C32.759 21.653 32.696 21.416 32.617 21.194C32.459 20.735 32.285 20.276 32 19.865C31.683 19.423 31.4 18.965 31.083 18.506C31.005 18.395 30.894 18.3 30.799 18.206C30.467 17.841 30.135 17.461 29.709 17.193C29.077 16.797 28.429 16.465 27.734 16.18C27.544 16.102 27.371 16.006 27.182 15.895H27.56L30.261 15.847C30.846 15.832 31.415 15.832 31.999 15.8C32.14 15.8 32.22 15.848 32.299 15.974C32.44 16.211 32.583 16.449 32.741 16.686C32.757 16.718 32.789 16.764 32.789 16.812C32.789 17.16 32.789 17.524 32.804 17.872C32.819 18.236 32.852 18.584 32.867 18.948C32.867 19.312 32.835 19.691 32.851 20.071C32.867 20.609 32.883 21.163 32.883 21.715L32.885 21.716ZM15.888 16.42C16.631 16.388 17.341 16.341 18.068 16.309C18.636 16.277 19.221 16.261 19.789 16.229C20.026 16.214 20.247 16.199 20.484 16.229C20.232 16.357 19.978 16.483 19.758 16.641C19.473 16.831 19.205 17.084 18.92 17.29C18.635 17.495 18.382 17.748 18.146 18.017C17.846 18.38 17.514 18.697 17.197 19.045C16.975 19.298 16.723 19.535 16.534 19.804C16.266 20.152 16.029 20.53 15.776 20.927C15.855 19.423 15.95 17.937 15.886 16.419L15.888 16.42ZM26.204 31.636C25.698 31.762 25.177 31.905 24.655 31.968C24.213 32.032 23.755 32.016 23.297 32.016C22.885 32.016 22.49 32.001 22.079 31.968C21.621 31.922 21.163 31.874 20.721 31.668C20.341 31.494 19.947 31.336 19.568 31.146C19.188 30.956 18.809 30.735 18.524 30.387C18.32 30.133 18.035 29.928 17.782 29.707C17.83 29.896 17.94 30.055 18.114 30.165C18.035 30.26 17.924 30.213 17.766 29.959C17.719 29.991 17.672 30.007 17.64 30.023C17.688 29.912 17.735 29.801 17.782 29.707C17.719 29.58 17.64 29.438 17.577 29.31C17.451 29.105 17.325 28.884 17.214 28.678C17.182 28.63 17.182 28.583 17.151 28.536C17.071 28.441 16.992 28.346 16.928 28.251C16.802 28.062 16.692 27.857 16.534 27.666C16.534 27.714 16.55 27.761 16.55 27.825C16.534 27.825 16.519 27.84 16.519 27.84L16.186 27.034C16.17 27.034 16.17 27.034 16.155 27.049L16.439 28.094C16.423 28.094 16.407 28.109 16.391 28.109C16.344 28.046 16.297 27.983 16.265 27.905C16.233 27.777 16.139 27.777 16.061 27.825C16.012 27.857 15.981 27.967 15.997 28.014C16.108 28.283 16.234 28.552 16.361 28.821C16.392 28.916 16.424 28.995 16.471 29.09C16.487 29.122 16.535 29.153 16.535 29.201C16.598 29.327 16.646 29.453 16.724 29.564C16.867 29.754 17.025 29.944 17.167 30.133C17.308 30.323 17.434 30.529 17.561 30.719C17.576 30.75 17.624 30.75 17.639 30.767C17.718 31.004 17.987 31.177 18.176 31.082C18.224 31.446 18.619 31.573 18.777 31.921C18.587 31.842 18.445 31.779 18.319 31.715C18.302 31.731 18.302 31.746 18.286 31.778C18.476 31.873 18.666 31.968 18.839 32.078C18.998 32.174 19.155 32.268 19.298 32.378C19.487 32.552 19.709 32.648 19.976 32.711C19.962 32.663 19.946 32.647 19.946 32.647C20.388 32.853 20.846 33.074 21.193 33.247C19.55 33.279 17.797 33.311 15.98 33.343C15.98 33.043 15.964 32.758 15.964 32.457C15.964 32.331 15.996 32.22 15.979 32.093C15.931 31.367 15.931 30.638 15.837 29.926C15.743 29.168 15.743 28.424 15.759 27.663C15.774 27.253 15.743 26.826 15.727 26.415C15.727 25.861 15.727 25.322 15.744 24.77C15.744 24.691 15.775 24.628 15.807 24.548H15.855C15.87 24.58 15.855 24.628 15.885 24.644C15.933 24.692 16.012 24.77 16.044 24.754C16.139 24.691 16.281 24.628 16.313 24.532C16.391 24.343 16.423 24.137 16.423 23.948C16.423 23.806 16.487 23.711 16.549 23.616C16.582 23.568 16.597 23.521 16.629 23.458C16.566 23.41 16.503 23.379 16.424 23.316C16.487 23.141 16.472 22.936 16.709 22.841C16.74 22.825 16.74 22.745 16.757 22.698C16.772 22.571 16.787 22.428 16.804 22.302C16.835 22.35 16.852 22.365 16.882 22.397C16.898 22.365 16.914 22.349 16.914 22.349C16.914 22.286 16.898 22.159 16.914 22.159C17.104 22.128 17.025 21.922 17.119 21.828C17.134 21.811 17.103 21.763 17.103 21.731C17.103 21.7 17.103 21.653 17.119 21.653C17.339 21.605 17.308 21.368 17.45 21.257C17.498 21.225 17.513 21.179 17.576 21.099C17.702 21.32 17.481 21.431 17.466 21.589C17.733 21.431 17.813 21.052 17.655 20.941C17.718 20.893 17.781 20.83 17.829 20.767C18.003 20.577 18.191 20.403 18.35 20.213C18.461 20.072 18.524 19.898 18.634 19.755C18.698 19.676 18.824 19.613 18.919 19.565C19.203 19.408 19.471 19.234 19.645 18.965C19.677 18.933 19.724 18.902 19.771 18.87C19.819 18.838 19.914 18.838 19.93 18.791C19.946 18.76 19.899 18.68 19.867 18.633C19.929 18.601 19.993 18.538 20.119 18.474C20.071 18.569 20.056 18.633 20.024 18.697L20.102 18.775C20.245 18.664 20.466 18.538 20.608 18.443C20.608 18.428 20.529 18.365 20.529 18.365C20.435 18.413 20.292 18.491 20.151 18.555C20.181 18.507 20.181 18.476 20.199 18.46C20.419 18.318 20.64 18.176 20.877 18.064C21.429 17.812 21.983 17.558 22.536 17.321C22.63 17.273 22.758 17.306 22.867 17.306C22.914 17.306 22.945 17.306 22.994 17.29C23.246 17.211 23.499 17.132 23.752 17.068C23.861 17.037 23.988 17.021 24.1 17.021C24.572 17.036 25.046 17.036 25.52 17.068C25.725 17.084 25.915 17.131 26.105 17.194C26.341 17.274 26.594 17.384 26.815 17.494C27.084 17.638 27.336 17.796 27.59 17.97C28.048 18.27 28.474 18.602 28.932 18.871C29.374 19.14 29.722 19.504 30.006 19.916C30.355 20.406 30.749 20.848 30.907 21.449L31.143 22.494C31.191 22.683 31.302 22.873 31.254 23.094C31.174 23.49 31.111 23.901 31.048 24.297C31.017 24.456 30.985 24.615 31.002 24.771C31.032 25.263 30.843 25.69 30.653 26.133C30.59 26.275 30.495 26.418 30.416 26.576C30.432 26.591 30.527 26.639 30.542 26.639L30.685 26.355C30.701 26.355 30.701 26.355 30.716 26.371C30.637 26.592 30.574 26.829 30.494 27.051C30.306 27.541 30.116 28.047 29.879 28.522C29.753 28.791 29.531 29.012 29.374 29.266C29.216 29.487 29.09 29.724 28.932 29.93C28.79 30.104 28.648 30.278 28.458 30.404C28.032 30.72 27.589 31.037 27.131 31.29C26.847 31.464 26.515 31.559 26.2 31.638L26.204 31.636ZM17.784 30.796L17.768 30.812C17.735 30.797 17.688 30.781 17.657 30.749L17.277 30.179C17.246 30.132 17.229 30.085 17.246 30.022C17.42 30.291 17.595 30.544 17.784 30.796ZM27.61 32.963C28.32 32.663 28.905 32.237 29.441 31.746C29.521 31.666 29.599 31.588 29.694 31.524C30.358 31.113 30.847 30.543 31.29 29.911C31.795 29.183 32.127 28.361 32.538 27.586C32.569 27.522 32.601 27.46 32.633 27.412C32.601 29.215 32.807 30.986 33.043 32.774C31.259 32.837 29.442 32.9 27.61 32.964V32.963ZM43.627 32.489C43.611 32.521 43.579 32.552 43.564 32.585C43.548 32.552 43.548 32.505 43.532 32.441C43.437 32.695 43.232 32.568 43.09 32.568C42.237 32.584 41.368 32.584 40.515 32.584C39.693 32.584 38.857 32.584 38.035 32.599C37.767 32.599 37.482 32.662 37.213 32.678C36.566 32.709 35.918 32.726 35.271 32.741C35.223 32.741 35.176 32.663 35.097 32.599C35.081 32.631 35.049 32.678 35.002 32.741C34.985 32.71 34.954 32.679 34.922 32.632C34.906 32.68 34.89 32.726 34.874 32.758H34.828C34.796 32.537 34.733 32.331 34.733 32.109C34.733 31.635 34.781 31.161 34.796 30.686C34.813 30.465 34.796 30.259 34.796 30.053C34.86 30.101 34.907 30.133 34.971 30.179C35.002 30.117 35.034 30.07 35.065 30.023C35.065 30.023 35.034 30.006 35.002 29.975C35.032 29.959 35.064 29.927 35.064 29.911C35.08 29.863 35.112 29.816 35.112 29.785C35.112 29.674 35.08 29.579 35.064 29.485C35.08 29.485 35.095 29.485 35.112 29.468L35.206 29.942H35.254C35.191 29.833 35.396 29.737 35.223 29.611C35.207 29.595 35.238 29.5 35.238 29.453C35.19 29.358 35.16 29.264 35.112 29.137C35.128 29.121 35.175 29.105 35.223 29.089C35.16 29.058 35.112 29.026 35.065 29.011C35.223 28.868 35.223 28.789 35.08 28.631C35.113 28.616 35.144 28.616 35.144 28.601C35.144 28.458 35.144 28.316 35.113 28.175C35.081 28.015 35.161 27.827 34.923 27.73C34.939 27.779 34.955 27.81 34.986 27.857C34.986 27.857 34.938 27.873 34.891 27.905C34.686 27.714 34.813 27.46 34.765 27.176C34.876 27.208 34.955 27.24 35.034 27.272C35.002 27.161 34.923 27.034 34.876 26.892H34.811V25.847C34.811 25.864 34.922 25.864 34.986 25.88C34.986 25.864 35.001 25.848 35.001 25.832C34.953 25.769 34.889 25.706 34.826 25.627L34.858 25.595C34.732 25.437 34.795 25.217 34.795 25.169V24.061C34.954 24.22 34.717 24.425 34.954 24.52V24.362H34.938C34.922 24.125 34.922 23.888 34.906 23.65H34.875C34.859 23.682 34.859 23.698 34.843 23.73H34.811L34.906 19.949C35.064 20.155 35.238 20.345 35.348 20.55C35.712 21.215 36.185 21.784 36.628 22.385C37.007 22.907 37.354 23.476 37.702 24.014C38.128 24.663 38.539 25.311 38.966 25.959C39.282 26.45 39.614 26.941 39.944 27.415C40.244 27.842 40.561 28.253 40.877 28.665C41.145 29.029 41.429 29.393 41.698 29.756C42.014 30.199 42.33 30.642 42.646 31.069C42.803 31.29 42.977 31.512 43.15 31.733C43.246 31.859 43.388 31.955 43.483 32.033C43.468 32.033 43.452 32.033 43.42 32.018C43.468 32.081 43.498 32.128 43.531 32.16C43.705 32.255 43.721 32.349 43.626 32.492L43.627 32.489ZM44.432 28.535V28.424C44.432 28.456 44.448 28.503 44.432 28.535ZM44.97 21.56C44.953 21.56 44.859 21.464 44.844 21.449C44.827 21.497 44.844 21.544 44.812 21.607C44.796 21.56 44.686 21.576 44.686 21.529C44.67 21.75 44.78 21.972 44.764 22.193C44.812 22.161 45.001 22.145 45.048 22.098C45.064 22.114 45.096 22.129 45.112 22.129C44.796 22.367 44.875 22.604 45.017 22.874C45.048 22.936 45.143 23.063 45.048 23.19C45.017 23.221 45.064 23.316 45.08 23.395H45.126V23.425L44.984 23.473C44.953 23.425 44.764 23.332 44.764 23.251V24.059C44.922 24.107 44.922 24.328 44.985 24.439C45.018 24.391 45.033 24.359 45.049 24.313L45.065 24.328C45.049 24.422 45.033 24.517 45.001 24.613C44.97 24.754 44.938 24.881 44.923 25.023C44.923 25.039 44.953 25.071 44.953 25.086C44.781 25.483 44.875 25.924 44.812 26.335C44.764 26.635 44.812 26.953 44.781 27.269C44.748 27.538 44.685 27.822 44.622 28.091C44.606 28.139 44.574 28.154 44.496 28.186C44.527 27.996 44.512 27.87 44.48 27.696C44.463 27.696 44.258 27.585 44.242 27.585C44.242 27.807 44.368 28.107 44.416 28.36C44.368 28.344 44.179 28.234 44.164 28.234C44.131 28.423 44.131 28.676 44.115 28.882C44.099 29.04 43.958 29.182 43.941 29.356C43.941 29.452 44.052 29.514 44.036 29.673H44.162C44.162 29.357 44.305 29.073 44.305 28.74H44.352C44.368 28.772 44.416 28.804 44.4 28.819C44.368 28.993 44.304 29.183 44.321 29.357C44.321 29.452 44.399 29.547 44.369 29.657C44.336 29.753 44.321 29.848 44.305 29.99C44.288 29.911 44.273 29.879 44.273 29.832C44.257 29.832 44.115 29.816 44.099 29.816C44.083 29.911 44.21 30.005 44.194 30.085C44.178 30.1 44.162 30.1 44.13 30.117L43.609 29.357C43.198 28.756 42.787 28.154 42.377 27.538C42.265 27.379 42.171 27.221 42.091 27.064C41.602 26.224 41.065 25.418 40.465 24.643C40.007 24.058 39.642 23.424 39.216 22.809C38.822 22.224 38.427 21.654 38.032 21.068C37.89 20.879 37.717 20.705 37.59 20.499C37.18 19.851 36.816 19.186 36.406 18.538C36.058 18 35.68 17.477 35.316 16.956C35.19 16.782 35.064 16.591 34.937 16.402C34.921 16.372 34.906 16.34 34.906 16.293C34.874 15.944 34.842 15.596 34.826 15.264C34.826 14.948 34.858 14.632 34.858 14.299V14.015C34.858 13.935 34.873 13.872 34.873 13.792C34.888 13.777 34.904 13.746 34.92 13.73C34.462 13.73 33.988 13.713 33.53 13.73C33.23 13.745 33.072 13.618 32.867 13.397C32.266 12.717 31.824 11.942 31.303 11.214C30.813 10.518 30.308 9.83699 29.802 9.15699C29.391 8.60399 28.98 8.066 28.57 7.513C28.111 6.88 27.67 6.247 27.195 5.614C26.626 4.856 26.042 4.096 25.458 3.337C25.187 2.989 24.887 2.657 24.587 2.293C24.793 2.325 24.983 2.35599 25.172 2.37199L25.931 2.42C26.5 2.467 27.068 2.49899 27.636 2.57699C28.11 2.64099 28.584 2.73599 29.074 2.81399C30.117 2.98799 31.144 3.27299 32.139 3.60499C32.724 3.79499 33.292 4.04799 33.862 4.28599C35.14 4.80799 36.357 5.44 37.558 6.104C37.936 6.31 38.158 6.64199 38.441 6.94299C38.852 7.36999 39.264 7.797 39.658 8.239C40.115 8.762 40.542 9.299 40.985 9.837C41.379 10.312 41.789 10.786 42.185 11.261C42.311 11.403 42.407 11.577 42.516 11.735C42.769 12.115 43.054 12.48 43.275 12.89C43.432 13.192 43.527 13.54 43.637 13.872C43.794 14.362 43.953 14.836 44.111 15.327C44.221 15.69 44.315 16.071 44.395 16.449C44.458 16.703 44.443 16.971 44.521 17.224C44.617 17.557 44.521 17.92 44.617 18.253C44.632 18.285 44.647 18.332 44.664 18.364C44.727 18.426 44.774 18.49 44.679 18.585C44.664 18.601 44.664 18.663 44.679 18.711C44.712 18.68 44.727 18.648 44.759 18.601C44.759 18.632 44.774 18.649 44.774 18.664C44.774 18.726 44.758 18.79 44.774 18.853C44.774 18.884 44.805 18.931 44.821 18.963C44.853 18.931 44.884 18.915 44.947 18.867C45.089 19.405 45.105 19.943 45.105 20.497C45.105 21.019 45.2 21.541 44.979 22.047C45.026 21.873 44.916 21.714 44.963 21.556L44.97 21.56Z" fill="#DD3A0A"/>
  </g>
</svg>
