<svg width="48" height="48" viewBox="0 0 48 48" fill="none" xmlns="http://www.w3.org/2000/svg">
  <mask id="mask0_1_884" style="mask-type:luminance" maskUnits="userSpaceOnUse" x="0" y="0" width="48" height="48">
    <path d="M47.4326 0.407997H0.0119934V47.8286H47.4326V0.407997Z" fill="white"/>
  </mask>
  <g mask="url(#mask0_1_884)">
    <path d="M42.801 0.407997H4.64301C2.08501 0.407997 0.0119934 2.481 0.0119934 5.039V43.197C0.0119934 45.755 2.08501 47.828 4.64301 47.828H42.801C45.359 47.828 47.432 45.755 47.432 43.197V5.039C47.432 2.481 45.359 0.407997 42.801 0.407997Z" fill="#3178C6"/>
    <path d="M42.801 0.407997H4.64301C2.08501 0.407997 0.0119934 2.481 0.0119934 5.039V43.197C0.0119934 45.755 2.08501 47.828 4.64301 47.828H42.801C45.359 47.828 47.432 45.755 47.432 43.197V5.039C47.432 2.481 45.359 0.407997 42.801 0.407997Z" fill="#3178C6"/>
    <path fill-rule="evenodd" clip-rule="evenodd" d="M29.366 38.142V42.779C30.12 43.165 31.011 43.455 32.04 43.648C33.069 43.842 34.154 43.938 35.294 43.938C36.406 43.938 37.461 43.832 38.462 43.619C39.462 43.407 40.339 43.057 41.092 42.569C41.846 42.081 42.443 41.444 42.883 40.656C43.322 39.869 43.542 38.896 43.542 37.737C43.542 36.896 43.416 36.16 43.165 35.527C42.914 34.895 42.552 34.332 42.078 33.839C41.605 33.347 41.037 32.905 40.375 32.513C39.713 32.122 38.966 31.753 38.135 31.405C37.527 31.154 36.981 30.91 36.497 30.673C36.014 30.437 35.604 30.195 35.265 29.949C34.927 29.703 34.666 29.442 34.483 29.166C34.299 28.891 34.207 28.58 34.207 28.232C34.207 27.913 34.289 27.626 34.454 27.37C34.618 27.114 34.85 26.894 35.149 26.71C35.449 26.527 35.816 26.384 36.251 26.283C36.686 26.182 37.169 26.131 37.701 26.131C38.087 26.131 38.495 26.16 38.925 26.218C39.355 26.276 39.788 26.365 40.223 26.486C40.658 26.607 41.08 26.759 41.491 26.942C41.902 27.126 42.281 27.338 42.629 27.58V23.248C41.923 22.977 41.153 22.777 40.317 22.646C39.481 22.516 38.522 22.451 37.44 22.451C36.338 22.451 35.294 22.569 34.309 22.806C33.323 23.042 32.456 23.412 31.707 23.914C30.958 24.416 30.366 25.056 29.931 25.834C29.496 26.611 29.279 27.541 29.279 28.623C29.279 30.004 29.677 31.183 30.475 32.158C31.272 33.134 32.482 33.96 34.106 34.636C34.744 34.897 35.338 35.153 35.889 35.404C36.439 35.655 36.915 35.916 37.316 36.186C37.717 36.457 38.034 36.752 38.266 37.07C38.498 37.389 38.614 37.751 38.614 38.157C38.614 38.456 38.541 38.734 38.396 38.99C38.251 39.246 38.031 39.468 37.737 39.657C37.442 39.845 37.075 39.992 36.635 40.098C36.195 40.205 35.681 40.258 35.091 40.258C34.086 40.258 33.091 40.082 32.105 39.729C31.12 39.376 30.207 38.848 29.366 38.142ZM21.571 26.719H27.519V22.914H10.94V26.719H16.859V43.66H21.571V26.719Z" fill="white"/>
  </g>
</svg>
