<svg width="48" height="48" viewBox="0 0 48 48" fill="none" xmlns="http://www.w3.org/2000/svg">
  <mask id="mask0_1_891" style="mask-type:luminance" maskUnits="userSpaceOnUse" x="0" y="0" width="48" height="48">
    <path d="M47.4436 0.0210037H0.0230103V47.4416H47.4436V0.0210037Z" fill="white"/>
  </mask>
  <g mask="url(#mask0_1_891)">
    <path d="M29.158 0.0210037C29.158 0.105004 29.158 0.188 29.158 0.277C29.158 3.28 26.723 5.714 23.721 5.714C20.717 5.714 18.283 3.279 18.283 0.277C18.283 0.188 18.283 0.105004 18.283 0.0210037H0.0230103V47.442H47.444V0.0210037H29.158Z" fill="#654FF0"/>
    <path d="M11.04 25.576H14.183L16.328 37.003H16.367L18.946 25.576H21.886L24.215 37.143H24.26L26.706 25.576H29.788L25.783 42.366H22.664L20.354 30.94H20.294L17.821 42.366H14.645L11.04 25.576ZM33.332 25.576H38.286L43.206 42.366H39.964L38.894 38.63H33.25L32.424 42.366H29.267L33.332 25.576ZM35.218 29.715L33.847 35.875H38.113L36.539 29.715H35.218Z" fill="white"/>
  </g>
</svg>
